<svg width="762" height="411" viewBox="0 0 762 411" fill="none" xmlns="http://www.w3.org/2000/svg">
<rect x="0.5" y="0.5" width="761" height="410" rx="15.5" stroke="#CECEFB" stroke-opacity="0.05"/>
<path d="M85.5251 280.376L76.3188 268.612C75.7329 267.864 74.5312 268.278 74.5312 269.229V356.031C74.5312 356.584 74.979 357.031 75.5312 357.031H726.542C727.237 357.031 727.72 356.338 727.48 355.686L710.789 310.381C710.502 309.604 709.451 309.491 709.007 310.189L706.687 313.835C706.246 314.528 705.203 314.423 704.909 313.655L698.061 295.745C697.761 294.961 696.687 294.873 696.263 295.598L694.149 299.222C693.689 300.012 692.497 299.82 692.307 298.926L666.928 179.11C666.686 177.968 665.018 178.095 664.951 179.26L662.957 214.156C662.907 215.037 661.824 215.425 661.225 214.778L640.625 192.508C640.051 191.888 639.015 192.214 638.9 193.05L632.058 242.656C631.916 243.681 630.501 243.842 630.133 242.875L622.425 222.644C622.078 221.732 620.764 221.806 620.522 222.751L608.604 269.29C608.369 270.208 607.107 270.314 606.721 269.448L603.641 262.516C603.297 261.744 602.21 261.719 601.832 262.475L596.39 273.36C596.08 273.98 595.25 274.104 594.772 273.604L583.836 262.147C583.247 261.53 582.206 261.877 582.119 262.725C580.562 277.814 577.717 305.078 577.23 308.486C576.733 311.963 559.301 292.791 549.917 281.938C549.505 281.462 548.762 281.481 548.373 281.976L535.999 297.725C535.558 298.286 534.688 298.218 534.34 297.595L511.883 257.408C511.462 256.656 510.351 256.752 510.066 257.565L502.52 279.126C502.247 279.905 501.202 280.037 500.744 279.35L468.409 230.848C467.964 230.181 466.955 230.282 466.651 231.024L462.679 240.734C462.323 241.605 461.071 241.547 460.797 240.647L446.615 194.132C446.326 193.184 444.983 193.189 444.7 194.139L439.703 210.949C439.41 211.934 438 211.89 437.77 210.888L426.512 161.916C426.297 160.982 425.018 160.856 424.625 161.73L421.573 168.512C421.157 169.436 419.789 169.227 419.668 168.221L412.209 106.034C412.065 104.84 410.325 104.868 410.219 106.065L405.806 156.245C405.724 157.179 404.517 157.497 403.986 156.724L401.813 153.561C401.288 152.798 400.099 153.095 399.995 154.015L395.84 190.814C395.829 190.908 395.806 191 395.769 191.087L389.819 205.366C389.608 205.875 389.025 206.116 388.516 205.906L379.418 202.16C378.941 201.964 378.394 202.162 378.153 202.618L355.563 245.355C355.253 245.943 354.467 246.07 353.987 245.61L340.463 232.65C340.018 232.223 339.297 232.297 338.947 232.805L326.334 251.152C325.951 251.709 325.138 251.734 324.722 251.201L310.493 232.989C310.06 232.434 309.205 232.489 308.845 233.094L298.113 251.169C297.78 251.73 297.007 251.827 296.546 251.366L282.865 237.684C282.462 237.282 281.805 237.296 281.42 237.716L268.802 251.481C268.409 251.91 267.734 251.913 267.336 251.489L231.022 212.755C230.477 212.173 229.503 212.432 229.32 213.209L221.519 246.212C221.47 246.417 221.359 246.601 221.2 246.739L174.458 287.164C174.277 287.321 174.045 287.407 173.804 287.407H168.963C168.629 287.407 168.317 287.574 168.131 287.852L161.177 298.283C160.931 298.652 160.476 298.816 160.054 298.684C150.884 295.821 133.372 289.896 131.38 287.407C129.555 285.126 127.255 289.464 126.026 292.693C125.807 293.267 125.138 293.538 124.592 293.254L94.1463 277.422C93.8621 277.275 93.5242 277.272 93.2377 277.415L86.7598 280.654C86.3345 280.867 85.8182 280.751 85.5251 280.376Z" fill="url(#paint0_linear_2_2)"/>
<path d="M74 266.328L84.9938 280.376C85.2869 280.751 85.8032 280.867 86.2286 280.654L92.7065 277.415C92.993 277.272 93.3308 277.275 93.615 277.422L124.061 293.254C124.606 293.538 125.275 293.267 125.494 292.693C126.724 289.464 129.024 285.126 130.849 287.407C132.84 289.896 150.352 295.821 159.522 298.684C159.945 298.816 160.4 298.652 160.646 298.283L167.6 287.852C167.785 287.574 168.098 287.407 168.432 287.407H173.273C173.513 287.407 173.745 287.321 173.927 287.164L220.669 246.739C220.828 246.601 220.939 246.417 220.988 246.212L228.788 213.209C228.972 212.432 229.946 212.173 230.491 212.755L266.804 251.489C267.203 251.913 267.878 251.91 268.271 251.481L280.889 237.716C281.274 237.296 281.931 237.282 282.333 237.684L296.015 251.366C296.476 251.827 297.249 251.73 297.582 251.169L308.314 233.094C308.673 232.489 309.529 232.434 309.962 232.989L324.19 251.201C324.606 251.734 325.42 251.709 325.802 251.152L338.416 232.805C338.765 232.297 339.487 232.223 339.932 232.65L353.456 245.61C353.935 246.07 354.721 245.943 355.032 245.355L377.622 202.618C377.863 202.162 378.41 201.964 378.887 202.16L387.984 205.906C388.494 206.116 389.076 205.875 389.288 205.366L395.238 191.087C395.274 191 395.298 190.908 395.309 190.814L399.463 154.015C399.567 153.095 400.757 152.798 401.281 153.561L403.455 156.724C403.986 157.497 405.193 157.179 405.275 156.245L409.688 106.065C409.794 104.868 411.534 104.84 411.677 106.034L419.137 168.221C419.258 169.227 420.626 169.436 421.042 168.512L424.094 161.73C424.487 160.856 425.766 160.982 425.98 161.916L437.238 210.888C437.469 211.89 438.879 211.934 439.171 210.949L444.169 194.139C444.451 193.189 445.795 193.184 446.084 194.132L460.265 240.647C460.54 241.547 461.791 241.605 462.148 240.734L466.12 231.024C466.424 230.282 467.433 230.181 467.878 230.848L500.213 279.35C500.671 280.037 501.716 279.905 501.989 279.126L509.535 257.565C509.819 256.752 510.931 256.656 511.352 257.408L533.809 297.595C534.157 298.218 535.027 298.286 535.468 297.725L547.842 281.976C548.231 281.481 548.974 281.462 549.386 281.938C558.77 292.791 576.202 311.963 576.699 308.486C577.186 305.078 580.031 277.814 581.588 262.725C581.675 261.877 582.716 261.53 583.305 262.147L594.241 273.604C594.719 274.104 595.549 273.98 595.858 273.36L601.301 262.475C601.679 261.719 602.766 261.744 603.109 262.516L606.19 269.448C606.575 270.314 607.837 270.208 608.073 269.29L619.991 222.751C620.233 221.806 621.547 221.732 621.894 222.644L629.602 242.875C629.97 243.842 631.385 243.681 631.527 242.656L638.369 193.05C638.484 192.214 639.52 191.888 640.094 192.508L660.693 214.778C661.292 215.425 662.376 215.037 662.426 214.156L664.42 179.26C664.486 178.095 666.155 177.969 666.397 179.11L691.776 298.926C691.966 299.82 693.157 300.012 693.618 299.222L695.732 295.598C696.155 294.873 697.23 294.961 697.53 295.745L704.378 313.655C704.671 314.423 705.714 314.528 706.156 313.835L709.559 308.486" stroke="#F2D17D"/>
<path d="M75.1699 325.732L80.8121 318.881C82.4799 316.856 85.613 316.958 87.146 319.087L93.231 327.538C94.4475 329.228 96.9202 329.345 98.2912 327.778V327.778C99.3262 326.595 101.062 326.328 102.405 327.143L115.548 335.123C116.997 336.003 118.844 335.873 120.156 334.799L122.336 333.016C123.864 331.766 126.077 331.818 127.544 333.139L129.182 334.613C130.488 335.789 132.409 335.974 133.916 335.07L140.011 331.412C140.633 331.039 141.344 330.842 142.069 330.842H154.174C155.499 330.842 156.737 330.187 157.482 329.092L165.537 317.246C166.501 315.828 168.263 315.183 169.915 315.642L176.568 317.49C177.866 317.85 179.259 317.533 180.273 316.646L186.563 311.141C187.923 309.951 189.912 309.821 191.416 310.824L198.43 315.499C200.46 316.853 203.219 316.089 204.264 313.884L206.165 309.87C207.168 307.751 209.77 306.946 211.795 308.127L218.927 312.287C221.177 313.6 224.062 312.445 224.785 309.942L229.305 294.296C230.245 291.045 234.546 290.357 236.453 293.153L238.795 296.588C240.114 298.522 242.805 298.915 244.622 297.439L247.282 295.278C249.365 293.585 252.491 294.384 253.507 296.868L253.877 297.772C255.178 300.953 259.62 301.12 261.157 298.047L261.392 297.575C262.711 294.938 266.332 294.585 268.135 296.918L272.16 302.126C273.689 304.105 276.638 304.211 278.306 302.348L293.251 285.645C295.032 283.654 298.227 283.935 299.633 286.206L301.83 289.756C303.366 292.238 306.959 292.291 308.568 289.855L325.409 264.367C326.992 261.97 330.511 261.974 332.089 264.375L340.085 276.544C341.67 278.955 345.209 278.946 346.782 276.527L349.186 272.828C350.53 270.76 353.406 270.389 355.231 272.048L362.584 278.732C364.316 280.307 367.025 280.064 368.449 278.206L377.718 266.117C379.188 264.199 382.011 264.013 383.72 265.722L389.379 271.381C391.47 273.472 395.029 272.649 395.99 269.853L398.206 263.405C399.301 260.222 403.597 259.731 405.381 262.585L408.673 267.852C410.513 270.796 414.998 270.019 415.74 266.628V266.628C416.53 263.012 421.457 262.46 423.028 265.812L424.231 268.378C425.654 271.414 429.957 271.457 431.441 268.45L447.479 235.927C448.886 233.073 452.901 232.926 454.514 235.668L460.347 245.584C461.831 248.106 465.433 248.234 467.091 245.822L467.421 245.341C468.966 243.094 472.257 243.017 473.904 245.189L482.53 256.56C483.726 258.136 485.895 258.601 487.632 257.654L487.79 257.568C489.855 256.441 492.442 257.332 493.376 259.492L499.359 273.327C500.522 276.016 504.086 276.584 506.027 274.39L514.373 264.955C515.637 263.526 517.736 263.189 519.384 264.15L536.426 274.091C538.197 275.124 540.463 274.651 541.672 272.995L565.865 239.861C567.412 237.742 570.545 237.661 572.2 239.697L573.542 241.35C575.316 243.533 578.731 243.251 580.123 240.806L621.17 168.696C622.671 166.06 626.445 165.988 628.045 168.565L631.622 174.329C633.388 177.174 637.66 176.719 638.787 173.566L668.862 89.4597C670.224 85.6486 675.737 86.0403 676.547 90.0058L694.421 177.494C695.258 181.589 701.075 181.683 702.043 177.617V177.617C702.864 174.168 707.488 173.512 709.236 176.597L710.44 178.721C712.197 181.822 716.825 181.25 717.775 177.816L731.808 127.08" stroke="#5BA6FF"/>
<path d="M75.1699 330.752L80.8121 323.901C82.4799 321.876 85.613 321.978 87.146 324.107L93.231 332.558C94.4475 334.248 96.9202 334.365 98.2912 332.798V332.798C99.3262 331.615 101.062 331.348 102.405 332.163L115.548 340.143C116.997 341.023 118.844 340.893 120.156 339.819L122.336 338.036C123.864 336.786 126.077 336.838 127.544 338.159L129.182 339.633C130.488 340.809 132.409 340.994 133.916 340.09L140.011 336.433C140.633 336.06 141.344 335.862 142.069 335.862H154.174C155.499 335.862 156.737 335.207 157.482 334.112L165.537 322.266C166.501 320.848 168.263 320.203 169.915 320.662L176.568 322.51C177.866 322.87 179.259 322.553 180.273 321.666L186.563 316.162C187.923 314.971 189.912 314.841 191.416 315.844L198.43 320.519C200.46 321.873 203.219 321.109 204.264 318.904L206.165 314.89C207.168 312.771 209.77 311.966 211.795 313.147L218.927 317.307C221.177 318.62 224.062 317.465 224.785 314.962L229.305 299.316C230.245 296.065 234.546 295.377 236.453 298.173L238.795 301.608C240.114 303.542 242.805 303.935 244.622 302.459L247.282 300.298C249.365 298.605 252.491 299.404 253.507 301.888L253.877 302.792C255.178 305.973 259.62 306.141 261.157 303.067L261.392 302.595C262.711 299.958 266.332 299.605 268.135 301.938L272.16 307.146C273.689 309.125 276.638 309.231 278.306 307.368L293.251 290.665C295.032 288.674 298.227 288.955 299.633 291.226L301.83 294.776C303.366 297.258 306.959 297.311 308.568 294.875L325.409 269.387C326.992 266.99 330.511 266.994 332.089 269.395L340.085 281.564C341.67 283.975 345.209 283.966 346.782 281.547L349.186 277.848C350.53 275.78 353.406 275.409 355.231 277.068L362.584 283.753C364.316 285.327 367.025 285.084 368.449 283.226L377.718 271.137C379.188 269.219 382.011 269.033 383.72 270.742L389.379 276.401C391.47 278.492 395.029 277.669 395.99 274.873L398.206 268.425C399.301 265.242 403.597 264.751 405.381 267.605L408.673 272.872C410.513 275.816 414.998 275.039 415.74 271.648V271.648C416.53 268.032 421.457 267.48 423.028 270.832L424.231 273.398C425.654 276.434 429.957 276.477 431.441 273.47L447.479 240.947C448.886 238.094 452.901 237.946 454.514 240.688L460.347 250.604C461.831 253.126 465.433 253.254 467.091 250.842L467.421 250.361C468.966 248.114 472.257 248.037 473.904 250.209L482.53 261.58C483.726 263.156 485.895 263.621 487.632 262.674L487.79 262.588C489.855 261.461 492.442 262.352 493.376 264.512L499.359 278.347C500.522 281.036 504.086 281.604 506.027 279.41L514.373 269.975C515.637 268.546 517.736 268.209 519.384 269.17L536.426 279.111C538.197 280.144 540.463 279.671 541.672 278.015L565.865 244.881C567.412 242.762 570.545 242.681 572.2 244.717L573.542 246.37C575.316 248.553 578.731 248.271 580.123 245.826L621.17 173.716C622.671 171.08 626.445 171.008 628.045 173.585L631.622 179.349C633.388 182.194 637.66 181.739 638.787 178.586L668.862 94.4797C670.224 90.6686 675.737 91.0603 676.547 95.0258L694.421 182.514C695.258 186.609 701.075 186.703 702.043 182.637V182.637C702.864 179.188 707.488 178.532 709.236 181.617L710.44 183.741C712.197 186.842 716.825 186.27 717.775 182.836L731.808 132.1" stroke="#FF5B5B"/>
<path d="M91.028 386.04H95.384V387H89.54V386.112L92.612 383.244C93.2 382.692 93.608 382.248 93.824 381.9C94.052 381.552 94.16 381.192 94.16 380.832C94.16 379.92 93.572 379.38 92.6 379.38C91.652 379.38 90.86 379.872 90.296 380.916L89.504 380.376C90.188 379.092 91.244 378.432 92.576 378.432C94.196 378.432 95.228 379.404 95.228 380.808C95.228 381.708 94.784 382.524 93.62 383.616L91.028 386.04ZM102.498 381.408C102.498 382.464 102.078 383.532 101.25 384.624L99.4504 387H98.1904L100.782 383.724C100.326 384.072 99.7864 384.252 99.1624 384.252C97.5904 384.252 96.3064 383.064 96.3064 381.36C96.3064 379.644 97.6264 378.432 99.4264 378.432C101.202 378.432 102.498 379.584 102.498 381.408ZM101.442 381.36C101.442 380.124 100.662 379.368 99.4024 379.368C98.1424 379.368 97.3624 380.124 97.3624 381.36C97.3624 382.596 98.1424 383.34 99.4024 383.34C100.662 383.34 101.442 382.596 101.442 381.36ZM106.096 383.976V383.04H109.576V383.976H106.096ZM113.079 385.212L113.931 384.72C114.375 385.68 115.287 386.208 116.487 386.208C117.747 386.208 118.515 385.632 118.515 384.732C118.515 384.048 118.071 383.616 117.027 383.364L115.671 383.04C114.111 382.668 113.331 381.912 113.331 380.796C113.331 379.416 114.495 378.432 116.355 378.432C117.843 378.432 118.983 379.056 119.403 379.968L118.575 380.472C118.179 379.788 117.375 379.392 116.331 379.392C115.131 379.392 114.411 379.908 114.411 380.784C114.411 381.456 114.831 381.852 115.923 382.104L117.279 382.428C118.899 382.812 119.607 383.544 119.607 384.696C119.607 386.16 118.443 387.168 116.475 387.168C114.783 387.168 113.559 386.448 113.079 385.212ZM126.479 384.276H121.619C121.727 385.488 122.543 386.232 123.731 386.232C124.511 386.232 125.159 385.92 125.663 385.284L126.347 385.86C125.759 386.688 124.823 387.168 123.707 387.168C121.871 387.168 120.587 385.86 120.587 383.976C120.587 382.116 121.835 380.76 123.623 380.76C125.315 380.76 126.515 381.972 126.515 383.736C126.515 383.916 126.503 384.096 126.479 384.276ZM121.643 383.46H125.483C125.387 382.344 124.679 381.696 123.623 381.696C122.555 381.696 121.823 382.368 121.643 383.46ZM134.118 383.964C134.118 385.836 132.894 387.168 131.238 387.168C130.218 387.168 129.354 386.664 128.982 385.884V389.4H127.974V380.928H128.982V382.044C129.354 381.264 130.218 380.76 131.238 380.76C132.894 380.76 134.118 382.092 134.118 383.964ZM133.062 383.964C133.062 383.304 132.87 382.752 132.486 382.332C132.114 381.912 131.61 381.696 130.998 381.696C130.386 381.696 129.882 381.912 129.498 382.332C129.126 382.752 128.934 383.304 128.934 383.964C128.934 384.624 129.126 385.176 129.498 385.596C129.882 386.016 130.386 386.232 130.998 386.232C131.61 386.232 132.114 386.016 132.486 385.596C132.87 385.176 133.062 384.624 133.062 383.964ZM135.936 385.44V381.792H134.724V380.928H135.936V379.128H136.944V380.928H138.852V381.792H136.944V385.368C136.944 385.956 137.244 386.208 137.928 386.208C138.204 386.208 138.528 386.172 138.876 386.1V386.94C138.528 387.048 138.168 387.096 137.784 387.096C136.584 387.096 135.936 386.532 135.936 385.44ZM142.28 383.976V383.04H145.76V383.976H142.28ZM150.738 386.04H155.094V387H149.25V386.112L152.322 383.244C152.91 382.692 153.318 382.248 153.534 381.9C153.762 381.552 153.87 381.192 153.87 380.832C153.87 379.92 153.282 379.38 152.31 379.38C151.362 379.38 150.57 379.872 150.006 380.916L149.214 380.376C149.898 379.092 150.954 378.432 152.286 378.432C153.906 378.432 154.938 379.404 154.938 380.808C154.938 381.708 154.494 382.524 153.33 383.616L150.738 386.04ZM161.766 384.588C161.766 386.136 160.602 387.168 158.742 387.168C157.542 387.168 156.498 386.736 155.766 385.92L156.402 385.236C157.038 385.896 157.806 386.22 158.73 386.22C159.99 386.22 160.71 385.584 160.71 384.564C160.71 383.508 159.954 382.992 158.142 382.992H157.65V382.272L160.23 379.536H156.198V378.6H161.466V379.464L158.898 382.188C160.686 382.272 161.766 383.1 161.766 384.588Z" fill="#9895B2"/>
<path d="M241.34 382.8C241.34 380.052 242.636 378.432 244.712 378.432C246.788 378.432 248.084 380.052 248.084 382.8C248.084 385.548 246.788 387.168 244.712 387.168C242.636 387.168 241.34 385.548 241.34 382.8ZM247.004 382.8C247.004 380.532 246.2 379.392 244.712 379.392C243.224 379.392 242.42 380.532 242.42 382.8C242.42 385.068 243.224 386.208 244.712 386.208C246.2 386.208 247.004 385.068 247.004 382.8ZM255.55 384.756C255.55 386.124 254.422 387.168 252.466 387.168C250.51 387.168 249.382 386.124 249.382 384.756C249.382 383.784 249.934 383.04 250.978 382.692C250.102 382.32 249.622 381.648 249.622 380.748C249.622 379.416 250.702 378.432 252.466 378.432C254.23 378.432 255.31 379.416 255.31 380.748C255.31 381.648 254.83 382.32 253.954 382.692C254.998 383.04 255.55 383.784 255.55 384.756ZM250.666 380.808C250.666 381.684 251.302 382.248 252.466 382.248C253.63 382.248 254.266 381.684 254.266 380.808C254.266 379.908 253.63 379.368 252.466 379.368C251.302 379.368 250.666 379.908 250.666 380.808ZM254.482 384.696C254.482 383.784 253.762 383.172 252.466 383.172C251.17 383.172 250.45 383.784 250.45 384.696C250.45 385.608 251.17 386.22 252.466 386.22C253.762 386.22 254.482 385.608 254.482 384.696ZM259.19 383.976V383.04H262.67V383.976H259.19ZM274.188 382.8C274.188 385.404 272.496 387 270.06 387H266.868V378.6H270.06C272.496 378.6 274.188 380.196 274.188 382.8ZM273.084 382.8C273.084 380.748 271.944 379.584 270.06 379.584H267.924V386.016H270.06C271.944 386.016 273.084 384.852 273.084 382.8ZM281.26 384.276H276.4C276.508 385.488 277.324 386.232 278.512 386.232C279.292 386.232 279.94 385.92 280.444 385.284L281.128 385.86C280.54 386.688 279.604 387.168 278.488 387.168C276.652 387.168 275.368 385.86 275.368 383.976C275.368 382.116 276.616 380.76 278.404 380.76C280.096 380.76 281.296 381.972 281.296 383.736C281.296 383.916 281.284 384.096 281.26 384.276ZM276.424 383.46H280.264C280.168 382.344 279.46 381.696 278.404 381.696C277.336 381.696 276.604 382.368 276.424 383.46ZM282.323 383.964C282.323 382.116 283.595 380.76 285.443 380.76C286.559 380.76 287.471 381.228 287.987 382.08L287.195 382.632C286.823 382.02 286.211 381.696 285.455 381.696C284.843 381.696 284.339 381.9 283.955 382.32C283.571 382.74 283.379 383.28 283.379 383.964C283.379 384.648 283.571 385.188 283.955 385.608C284.339 386.028 284.843 386.232 285.455 386.232C286.211 386.232 286.823 385.908 287.195 385.296L287.987 385.848C287.471 386.7 286.559 387.168 285.443 387.168C283.595 387.168 282.323 385.812 282.323 383.964ZM291.359 383.976V383.04H294.839V383.976H291.359ZM299.818 386.04H304.174V387H298.33V386.112L301.402 383.244C301.99 382.692 302.398 382.248 302.614 381.9C302.842 381.552 302.95 381.192 302.95 380.832C302.95 379.92 302.362 379.38 301.39 379.38C300.442 379.38 299.65 379.872 299.086 380.916L298.294 380.376C298.978 379.092 300.034 378.432 301.366 378.432C302.986 378.432 304.018 379.404 304.018 380.808C304.018 381.708 303.574 382.524 302.41 383.616L299.818 386.04ZM310.846 384.588C310.846 386.136 309.682 387.168 307.822 387.168C306.622 387.168 305.578 386.736 304.846 385.92L305.482 385.236C306.118 385.896 306.886 386.22 307.81 386.22C309.07 386.22 309.79 385.584 309.79 384.564C309.79 383.508 309.034 382.992 307.222 382.992H306.73V382.272L309.31 379.536H305.278V378.6H310.546V379.464L307.978 382.188C309.766 382.272 310.846 383.1 310.846 384.588Z" fill="#9895B2"/>
<path d="M389.84 382.8C389.84 380.052 391.136 378.432 393.212 378.432C395.288 378.432 396.584 380.052 396.584 382.8C396.584 385.548 395.288 387.168 393.212 387.168C391.136 387.168 389.84 385.548 389.84 382.8ZM395.504 382.8C395.504 380.532 394.7 379.392 393.212 379.392C391.724 379.392 390.92 380.532 390.92 382.8C390.92 385.068 391.724 386.208 393.212 386.208C394.7 386.208 395.504 385.068 395.504 382.8ZM397.135 378.6H402.799V379.5L399.187 387H398.083L401.695 379.548H397.135V378.6ZM402.575 383.976V383.04H406.055V383.976H402.575ZM407.379 378.96C407.379 378.564 407.679 378.264 408.075 378.264C408.471 378.264 408.771 378.564 408.771 378.96C408.771 379.356 408.471 379.656 408.075 379.656C407.679 379.656 407.379 379.356 407.379 378.96ZM406.083 389.508V388.596C406.275 388.644 406.467 388.668 406.647 388.668C407.307 388.668 407.571 388.368 407.571 387.708V380.928H408.579V387.828C408.579 388.944 407.979 389.58 406.767 389.58C406.551 389.58 406.323 389.556 406.083 389.508ZM415.211 380.928H416.219V387H415.211V385.884C414.863 386.664 413.987 387.168 412.967 387.168C411.299 387.168 410.075 385.836 410.075 383.964C410.075 382.092 411.299 380.76 412.967 380.76C413.987 380.76 414.863 381.264 415.211 382.044V380.928ZM415.259 383.964C415.259 383.304 415.067 382.752 414.683 382.332C414.311 381.912 413.807 381.696 413.195 381.696C412.583 381.696 412.079 381.912 411.695 382.332C411.323 382.752 411.131 383.304 411.131 383.964C411.131 384.624 411.323 385.176 411.695 385.596C412.079 386.016 412.583 386.232 413.195 386.232C413.807 386.232 414.311 386.016 414.683 385.596C415.067 385.176 415.259 384.624 415.259 383.964ZM423.422 383.112V387H422.414V383.352C422.414 382.2 421.982 381.696 421.022 381.696C419.93 381.696 419.15 382.368 419.15 383.388V387H418.142V380.928H419.15V381.96C419.486 381.192 420.266 380.76 421.262 380.76C422.642 380.76 423.422 381.612 423.422 383.112ZM424.876 383.976V383.04H428.356V383.976H424.876ZM430.328 386.04H434.684V387H428.84V386.112L431.912 383.244C432.5 382.692 432.908 382.248 433.124 381.9C433.352 381.552 433.46 381.192 433.46 380.832C433.46 379.92 432.872 379.38 431.9 379.38C430.952 379.38 430.16 379.872 429.596 380.916L428.804 380.376C429.488 379.092 430.544 378.432 431.876 378.432C433.496 378.432 434.528 379.404 434.528 380.808C434.528 381.708 434.084 382.524 432.92 383.616L430.328 386.04ZM441.356 384.588C441.356 386.136 440.192 387.168 438.332 387.168C437.132 387.168 436.088 386.736 435.356 385.92L435.992 385.236C436.628 385.896 437.396 386.22 438.32 386.22C439.58 386.22 440.3 385.584 440.3 384.564C440.3 383.508 439.544 382.992 437.732 382.992H437.24V382.272L439.82 379.536H435.788V378.6H441.056V379.464L438.488 382.188C440.276 382.272 441.356 383.1 441.356 384.588Z" fill="#9895B2"/>
<path d="M522.512 378.6H523.364V387H522.332V379.716L520.1 380.856V379.836L522.512 378.6ZM531.28 384.24C531.28 385.956 529.96 387.168 528.16 387.168C526.384 387.168 525.088 386.016 525.088 384.192C525.088 383.136 525.508 382.068 526.336 380.976L528.136 378.6H529.396L526.804 381.876C527.26 381.528 527.8 381.348 528.424 381.348C529.996 381.348 531.28 382.536 531.28 384.24ZM530.224 384.24C530.224 383.004 529.444 382.26 528.184 382.26C526.924 382.26 526.144 383.004 526.144 384.24C526.144 385.476 526.924 386.232 528.184 386.232C529.444 386.232 530.224 385.476 530.224 384.24ZM534.71 383.976V383.04H538.19V383.976H534.71ZM548.112 379.572H543.444V382.32H547.872V383.304H543.444V387H542.388V378.6H548.112V379.572ZM554.987 384.276H550.127C550.235 385.488 551.051 386.232 552.239 386.232C553.019 386.232 553.667 385.92 554.171 385.284L554.855 385.86C554.267 386.688 553.331 387.168 552.215 387.168C550.379 387.168 549.095 385.86 549.095 383.976C549.095 382.116 550.343 380.76 552.131 380.76C553.823 380.76 555.023 381.972 555.023 383.736C555.023 383.916 555.011 384.096 554.987 384.276ZM550.151 383.46H553.991C553.895 382.344 553.187 381.696 552.131 381.696C551.063 381.696 550.331 382.368 550.151 383.46ZM562.626 383.964C562.626 385.836 561.402 387.168 559.746 387.168C558.726 387.168 557.862 386.664 557.49 385.884V387H556.482V378.216H557.49V382.044C557.862 381.264 558.726 380.76 559.746 380.76C561.402 380.76 562.626 382.092 562.626 383.964ZM561.57 383.964C561.57 383.304 561.378 382.752 560.994 382.332C560.622 381.912 560.118 381.696 559.506 381.696C558.894 381.696 558.39 381.912 558.006 382.332C557.634 382.752 557.442 383.304 557.442 383.964C557.442 384.624 557.634 385.176 558.006 385.596C558.39 386.016 558.894 386.232 559.506 386.232C560.118 386.232 560.622 386.016 560.994 385.596C561.378 385.176 561.57 384.624 561.57 383.964ZM566.223 383.976V383.04H569.703V383.976H566.223ZM574.681 386.04H579.037V387H573.193V386.112L576.265 383.244C576.853 382.692 577.261 382.248 577.477 381.9C577.705 381.552 577.813 381.192 577.813 380.832C577.813 379.92 577.225 379.38 576.253 379.38C575.305 379.38 574.513 379.872 573.949 380.916L573.157 380.376C573.841 379.092 574.897 378.432 576.229 378.432C577.849 378.432 578.881 379.404 578.881 380.808C578.881 381.708 578.437 382.524 577.273 383.616L574.681 386.04ZM586.528 384.252V385.14H585.256V387H584.284V385.14H579.784V384.276L583.924 378.6H585.256V384.252H586.528ZM580.912 384.252H584.284V379.632L580.912 384.252Z" fill="#9895B2"/>
<path d="M667.028 386.04H671.384V387H665.54V386.112L668.612 383.244C669.2 382.692 669.608 382.248 669.824 381.9C670.052 381.552 670.16 381.192 670.16 380.832C670.16 379.92 669.572 379.38 668.6 379.38C667.652 379.38 666.86 379.872 666.296 380.916L665.504 380.376C666.188 379.092 667.244 378.432 668.576 378.432C670.196 378.432 671.228 379.404 671.228 380.808C671.228 381.708 670.784 382.524 669.62 383.616L667.028 386.04ZM672.08 378.6H677.744V379.5L674.132 387H673.028L676.64 379.548H672.08V378.6ZM677.52 383.976V383.04H681V383.976H677.52ZM690.305 378.6H691.421V387H690.401V380.22L687.485 384.816H686.609L683.693 380.22V387H682.673V378.6H683.789L687.053 383.724L690.305 378.6ZM698.207 380.928H699.215V387H698.207V385.884C697.859 386.664 696.983 387.168 695.963 387.168C694.295 387.168 693.071 385.836 693.071 383.964C693.071 382.092 694.295 380.76 695.963 380.76C696.983 380.76 697.859 381.264 698.207 382.044V380.928ZM698.255 383.964C698.255 383.304 698.063 382.752 697.679 382.332C697.307 381.912 696.803 381.696 696.191 381.696C695.579 381.696 695.075 381.912 694.691 382.332C694.319 382.752 694.127 383.304 694.127 383.964C694.127 384.624 694.319 385.176 694.691 385.596C695.075 386.016 695.579 386.232 696.191 386.232C696.803 386.232 697.307 386.016 697.679 385.596C698.063 385.176 698.255 384.624 698.255 383.964ZM704.546 380.916V381.804C704.366 381.78 704.198 381.768 704.018 381.768C702.83 381.768 702.146 382.464 702.146 383.892V387H701.138V380.928H702.146V382.068C702.422 381.288 703.094 380.832 703.994 380.832C704.198 380.832 704.39 380.856 704.546 380.916ZM704.849 383.976V383.04H708.329V383.976H704.849ZM710.301 386.04H714.657V387H708.813V386.112L711.885 383.244C712.473 382.692 712.881 382.248 713.097 381.9C713.325 381.552 713.433 381.192 713.433 380.832C713.433 379.92 712.845 379.38 711.873 379.38C710.925 379.38 710.133 379.872 709.569 380.916L708.777 380.376C709.461 379.092 710.517 378.432 711.849 378.432C713.469 378.432 714.501 379.404 714.501 380.808C714.501 381.708 714.057 382.524 712.893 383.616L710.301 386.04ZM722.148 384.252V385.14H720.876V387H719.904V385.14H715.404V384.276L719.544 378.6H720.876V384.252H722.148ZM716.532 384.252H719.904V379.632L716.532 384.252Z" fill="#9895B2"/>
<path d="M32.224 118.252V119.14H30.952V121H29.98V119.14H25.48V118.276L29.62 112.6H30.952V118.252H32.224ZM26.608 118.252H29.98V113.632L26.608 118.252ZM32.7648 122.788L33.3408 119.548H34.3968L33.5568 122.788H32.7648ZM41.3594 118.408C41.3594 120.04 40.1474 121.168 38.2754 121.168C37.1234 121.168 36.1754 120.76 35.4434 119.956L36.0794 119.296C36.7394 119.932 37.4354 120.22 38.2514 120.22C39.5474 120.22 40.3154 119.524 40.3154 118.408C40.3154 117.352 39.6434 116.728 38.4914 116.728C37.8434 116.728 37.2554 116.92 36.7274 117.304L35.8754 116.8V112.6H40.8794V113.548H36.8714V116.26C37.3514 115.96 37.9154 115.804 38.5514 115.804C40.1834 115.804 41.3594 116.788 41.3594 118.408ZM42.5106 116.8C42.5106 114.052 43.8066 112.432 45.8826 112.432C47.9586 112.432 49.2546 114.052 49.2546 116.8C49.2546 119.548 47.9586 121.168 45.8826 121.168C43.8066 121.168 42.5106 119.548 42.5106 116.8ZM48.1746 116.8C48.1746 114.532 47.3706 113.392 45.8826 113.392C44.3946 113.392 43.5906 114.532 43.5906 116.8C43.5906 119.068 44.3946 120.208 45.8826 120.208C47.3706 120.208 48.1746 119.068 48.1746 116.8ZM50.6964 116.8C50.6964 114.052 51.9924 112.432 54.0684 112.432C56.1444 112.432 57.4404 114.052 57.4404 116.8C57.4404 119.548 56.1444 121.168 54.0684 121.168C51.9924 121.168 50.6964 119.548 50.6964 116.8ZM56.3604 116.8C56.3604 114.532 55.5564 113.392 54.0684 113.392C52.5804 113.392 51.7764 114.532 51.7764 116.8C51.7764 119.068 52.5804 120.208 54.0684 120.208C55.5564 120.208 56.3604 119.068 56.3604 116.8Z" fill="#9895B2"/>
<path d="M32.224 158.252V159.14H30.952V161H29.98V159.14H25.48V158.276L29.62 152.6H30.952V158.252H32.224ZM26.608 158.252H29.98V153.632L26.608 158.252ZM32.7648 162.788L33.3408 159.548H34.3968L33.5568 162.788H32.7648ZM35.0045 156.8C35.0045 154.052 36.3005 152.432 38.3765 152.432C40.4525 152.432 41.7485 154.052 41.7485 156.8C41.7485 159.548 40.4525 161.168 38.3765 161.168C36.3005 161.168 35.0045 159.548 35.0045 156.8ZM40.6685 156.8C40.6685 154.532 39.8645 153.392 38.3765 153.392C36.8885 153.392 36.0845 154.532 36.0845 156.8C36.0845 159.068 36.8885 160.208 38.3765 160.208C39.8645 160.208 40.6685 159.068 40.6685 156.8ZM43.1903 156.8C43.1903 154.052 44.4863 152.432 46.5623 152.432C48.6383 152.432 49.9343 154.052 49.9343 156.8C49.9343 159.548 48.6383 161.168 46.5623 161.168C44.4863 161.168 43.1903 159.548 43.1903 156.8ZM48.8543 156.8C48.8543 154.532 48.0503 153.392 46.5623 153.392C45.0743 153.392 44.2703 154.532 44.2703 156.8C44.2703 159.068 45.0743 160.208 46.5623 160.208C48.0503 160.208 48.8543 159.068 48.8543 156.8ZM51.3761 156.8C51.3761 154.052 52.6721 152.432 54.7481 152.432C56.8241 152.432 58.1201 154.052 58.1201 156.8C58.1201 159.548 56.8241 161.168 54.7481 161.168C52.6721 161.168 51.3761 159.548 51.3761 156.8ZM57.0401 156.8C57.0401 154.532 56.2361 153.392 54.7481 153.392C53.2601 153.392 52.4561 154.532 52.4561 156.8C52.4561 159.068 53.2601 160.208 54.7481 160.208C56.2361 160.208 57.0401 159.068 57.0401 156.8Z" fill="#9895B2"/>
<path d="M31.288 198.588C31.288 200.136 30.124 201.168 28.264 201.168C27.064 201.168 26.02 200.736 25.288 199.92L25.924 199.236C26.56 199.896 27.328 200.22 28.252 200.22C29.512 200.22 30.232 199.584 30.232 198.564C30.232 197.508 29.476 196.992 27.664 196.992H27.172V196.272L29.752 193.536H25.72V192.6H30.988V193.464L28.42 196.188C30.208 196.272 31.288 197.1 31.288 198.588ZM32.2141 202.788L32.7901 199.548H33.8461L33.0061 202.788H32.2141ZM40.8086 198.408C40.8086 200.04 39.5966 201.168 37.7246 201.168C36.5726 201.168 35.6246 200.76 34.8926 199.956L35.5286 199.296C36.1886 199.932 36.8846 200.22 37.7006 200.22C38.9966 200.22 39.7646 199.524 39.7646 198.408C39.7646 197.352 39.0926 196.728 37.9406 196.728C37.2926 196.728 36.7046 196.92 36.1766 197.304L35.3246 196.8V192.6H40.3286V193.548H36.3206V196.26C36.8006 195.96 37.3646 195.804 38.0006 195.804C39.6326 195.804 40.8086 196.788 40.8086 198.408ZM41.9598 196.8C41.9598 194.052 43.2558 192.432 45.3318 192.432C47.4078 192.432 48.7038 194.052 48.7038 196.8C48.7038 199.548 47.4078 201.168 45.3318 201.168C43.2558 201.168 41.9598 199.548 41.9598 196.8ZM47.6238 196.8C47.6238 194.532 46.8198 193.392 45.3318 193.392C43.8438 193.392 43.0398 194.532 43.0398 196.8C43.0398 199.068 43.8438 200.208 45.3318 200.208C46.8198 200.208 47.6238 199.068 47.6238 196.8ZM50.1456 196.8C50.1456 194.052 51.4416 192.432 53.5176 192.432C55.5936 192.432 56.8896 194.052 56.8896 196.8C56.8896 199.548 55.5936 201.168 53.5176 201.168C51.4416 201.168 50.1456 199.548 50.1456 196.8ZM55.8096 196.8C55.8096 194.532 55.0056 193.392 53.5176 193.392C52.0296 193.392 51.2256 194.532 51.2256 196.8C51.2256 199.068 52.0296 200.208 53.5176 200.208C55.0056 200.208 55.8096 199.068 55.8096 196.8Z" fill="#9895B2"/>
<path d="M31.288 238.588C31.288 240.136 30.124 241.168 28.264 241.168C27.064 241.168 26.02 240.736 25.288 239.92L25.924 239.236C26.56 239.896 27.328 240.22 28.252 240.22C29.512 240.22 30.232 239.584 30.232 238.564C30.232 237.508 29.476 236.992 27.664 236.992H27.172V236.272L29.752 233.536H25.72V232.6H30.988V233.464L28.42 236.188C30.208 236.272 31.288 237.1 31.288 238.588ZM32.2141 242.788L32.7901 239.548H33.8461L33.0061 242.788H32.2141ZM34.4538 236.8C34.4538 234.052 35.7498 232.432 37.8258 232.432C39.9018 232.432 41.1978 234.052 41.1978 236.8C41.1978 239.548 39.9018 241.168 37.8258 241.168C35.7498 241.168 34.4538 239.548 34.4538 236.8ZM40.1178 236.8C40.1178 234.532 39.3138 233.392 37.8258 233.392C36.3378 233.392 35.5338 234.532 35.5338 236.8C35.5338 239.068 36.3378 240.208 37.8258 240.208C39.3138 240.208 40.1178 239.068 40.1178 236.8ZM42.6395 236.8C42.6395 234.052 43.9355 232.432 46.0115 232.432C48.0875 232.432 49.3835 234.052 49.3835 236.8C49.3835 239.548 48.0875 241.168 46.0115 241.168C43.9355 241.168 42.6395 239.548 42.6395 236.8ZM48.3035 236.8C48.3035 234.532 47.4995 233.392 46.0115 233.392C44.5235 233.392 43.7195 234.532 43.7195 236.8C43.7195 239.068 44.5235 240.208 46.0115 240.208C47.4995 240.208 48.3035 239.068 48.3035 236.8ZM50.8253 236.8C50.8253 234.052 52.1213 232.432 54.1973 232.432C56.2733 232.432 57.5693 234.052 57.5693 236.8C57.5693 239.548 56.2733 241.168 54.1973 241.168C52.1213 241.168 50.8253 239.548 50.8253 236.8ZM56.4893 236.8C56.4893 234.532 55.6853 233.392 54.1973 233.392C52.7093 233.392 51.9053 234.532 51.9053 236.8C51.9053 239.068 52.7093 240.208 54.1973 240.208C55.6853 240.208 56.4893 239.068 56.4893 236.8Z" fill="#9895B2"/>
<path d="M27.028 280.04H31.384V281H25.54V280.112L28.612 277.244C29.2 276.692 29.608 276.248 29.824 275.9C30.052 275.552 30.16 275.192 30.16 274.832C30.16 273.92 29.572 273.38 28.6 273.38C27.652 273.38 26.86 273.872 26.296 274.916L25.504 274.376C26.188 273.092 27.244 272.432 28.576 272.432C30.196 272.432 31.228 273.404 31.228 274.808C31.228 275.708 30.784 276.524 29.62 277.616L27.028 280.04ZM32.3078 282.788L32.8838 279.548H33.9398L33.0998 282.788H32.3078ZM40.9023 278.408C40.9023 280.04 39.6903 281.168 37.8183 281.168C36.6663 281.168 35.7183 280.76 34.9863 279.956L35.6223 279.296C36.2823 279.932 36.9783 280.22 37.7943 280.22C39.0903 280.22 39.8583 279.524 39.8583 278.408C39.8583 277.352 39.1863 276.728 38.0343 276.728C37.3863 276.728 36.7983 276.92 36.2703 277.304L35.4183 276.8V272.6H40.4223V273.548H36.4143V276.26C36.8943 275.96 37.4583 275.804 38.0943 275.804C39.7263 275.804 40.9023 276.788 40.9023 278.408ZM42.0536 276.8C42.0536 274.052 43.3496 272.432 45.4256 272.432C47.5016 272.432 48.7976 274.052 48.7976 276.8C48.7976 279.548 47.5016 281.168 45.4256 281.168C43.3496 281.168 42.0536 279.548 42.0536 276.8ZM47.7176 276.8C47.7176 274.532 46.9136 273.392 45.4256 273.392C43.9376 273.392 43.1336 274.532 43.1336 276.8C43.1336 279.068 43.9376 280.208 45.4256 280.208C46.9136 280.208 47.7176 279.068 47.7176 276.8ZM50.2394 276.8C50.2394 274.052 51.5354 272.432 53.6114 272.432C55.6874 272.432 56.9834 274.052 56.9834 276.8C56.9834 279.548 55.6874 281.168 53.6114 281.168C51.5354 281.168 50.2394 279.548 50.2394 276.8ZM55.9034 276.8C55.9034 274.532 55.0994 273.392 53.6114 273.392C52.1234 273.392 51.3194 274.532 51.3194 276.8C51.3194 279.068 52.1234 280.208 53.6114 280.208C55.0994 280.208 55.9034 279.068 55.9034 276.8Z" fill="#9895B2"/>
<path d="M27.028 320.04H31.384V321H25.54V320.112L28.612 317.244C29.2 316.692 29.608 316.248 29.824 315.9C30.052 315.552 30.16 315.192 30.16 314.832C30.16 313.92 29.572 313.38 28.6 313.38C27.652 313.38 26.86 313.872 26.296 314.916L25.504 314.376C26.188 313.092 27.244 312.432 28.576 312.432C30.196 312.432 31.228 313.404 31.228 314.808C31.228 315.708 30.784 316.524 29.62 317.616L27.028 320.04ZM32.3078 322.788L32.8838 319.548H33.9398L33.0998 322.788H32.3078ZM34.5475 316.8C34.5475 314.052 35.8435 312.432 37.9195 312.432C39.9955 312.432 41.2915 314.052 41.2915 316.8C41.2915 319.548 39.9955 321.168 37.9195 321.168C35.8435 321.168 34.5475 319.548 34.5475 316.8ZM40.2115 316.8C40.2115 314.532 39.4075 313.392 37.9195 313.392C36.4315 313.392 35.6275 314.532 35.6275 316.8C35.6275 319.068 36.4315 320.208 37.9195 320.208C39.4075 320.208 40.2115 319.068 40.2115 316.8ZM42.7333 316.8C42.7333 314.052 44.0293 312.432 46.1053 312.432C48.1813 312.432 49.4773 314.052 49.4773 316.8C49.4773 319.548 48.1813 321.168 46.1053 321.168C44.0293 321.168 42.7333 319.548 42.7333 316.8ZM48.3973 316.8C48.3973 314.532 47.5933 313.392 46.1053 313.392C44.6173 313.392 43.8133 314.532 43.8133 316.8C43.8133 319.068 44.6173 320.208 46.1053 320.208C47.5933 320.208 48.3973 319.068 48.3973 316.8ZM50.9191 316.8C50.9191 314.052 52.2151 312.432 54.2911 312.432C56.3671 312.432 57.6631 314.052 57.6631 316.8C57.6631 319.548 56.3671 321.168 54.2911 321.168C52.2151 321.168 50.9191 319.548 50.9191 316.8ZM56.5831 316.8C56.5831 314.532 55.7791 313.392 54.2911 313.392C52.8031 313.392 51.9991 314.532 51.9991 316.8C51.9991 319.068 52.8031 320.208 54.2911 320.208C55.7791 320.208 56.5831 319.068 56.5831 316.8Z" fill="#9895B2"/>
<path d="M28.012 352.6H28.864V361H27.832V353.716L25.6 354.856V353.836L28.012 352.6ZM30.4797 362.788L31.0557 359.548H32.1117L31.2717 362.788H30.4797ZM39.0742 358.408C39.0742 360.04 37.8622 361.168 35.9902 361.168C34.8382 361.168 33.8902 360.76 33.1582 359.956L33.7942 359.296C34.4542 359.932 35.1502 360.22 35.9662 360.22C37.2622 360.22 38.0302 359.524 38.0302 358.408C38.0302 357.352 37.3582 356.728 36.2062 356.728C35.5582 356.728 34.9702 356.92 34.4422 357.304L33.5902 356.8V352.6H38.5942V353.548H34.5862V356.26C35.0662 355.96 35.6302 355.804 36.2662 355.804C37.8982 355.804 39.0742 356.788 39.0742 358.408ZM40.2255 356.8C40.2255 354.052 41.5215 352.432 43.5975 352.432C45.6735 352.432 46.9695 354.052 46.9695 356.8C46.9695 359.548 45.6735 361.168 43.5975 361.168C41.5215 361.168 40.2255 359.548 40.2255 356.8ZM45.8895 356.8C45.8895 354.532 45.0855 353.392 43.5975 353.392C42.1095 353.392 41.3055 354.532 41.3055 356.8C41.3055 359.068 42.1095 360.208 43.5975 360.208C45.0855 360.208 45.8895 359.068 45.8895 356.8ZM48.4113 356.8C48.4113 354.052 49.7073 352.432 51.7833 352.432C53.8593 352.432 55.1553 354.052 55.1553 356.8C55.1553 359.548 53.8593 361.168 51.7833 361.168C49.7073 361.168 48.4113 359.548 48.4113 356.8ZM54.0753 356.8C54.0753 354.532 53.2713 353.392 51.7833 353.392C50.2953 353.392 49.4913 354.532 49.4913 356.8C49.4913 359.068 50.2953 360.208 51.7833 360.208C53.2713 360.208 54.0753 359.068 54.0753 356.8Z" fill="#9895B2"/>
<rect x="155" y="15" width="38" height="25" rx="4" fill="url(#paint1_linear_2_2)"/>
<path d="M215.272 30.976C215.272 32.816 213.912 34 211.72 34H206.664V22.8H211.336C213.496 22.8 214.856 23.952 214.856 25.696C214.856 26.912 214.184 27.792 212.984 28.224C214.44 28.56 215.272 29.552 215.272 30.976ZM211.336 24.08H208.072V27.632H211.336C212.696 27.632 213.416 26.992 213.416 25.856C213.416 24.72 212.696 24.08 211.336 24.08ZM213.8 30.816C213.8 29.616 213.08 28.912 211.72 28.912H208.072V32.72H211.72C213.08 32.72 213.8 32.016 213.8 30.816ZM223.658 25.904H225.002V34H223.658V32.512C223.194 33.552 222.026 34.224 220.666 34.224C218.442 34.224 216.81 32.448 216.81 29.952C216.81 27.456 218.442 25.68 220.666 25.68C222.026 25.68 223.194 26.352 223.658 27.392V25.904ZM223.722 29.952C223.722 29.072 223.466 28.336 222.954 27.776C222.458 27.216 221.786 26.928 220.97 26.928C220.154 26.928 219.482 27.216 218.97 27.776C218.474 28.336 218.218 29.072 218.218 29.952C218.218 30.832 218.474 31.568 218.97 32.128C219.482 32.688 220.154 32.976 220.97 32.976C221.786 32.976 222.458 32.688 222.954 32.128C223.466 31.568 223.722 30.832 223.722 29.952ZM226.798 32.464L227.774 31.744C228.35 32.576 229.294 33.008 230.398 33.008C231.55 33.008 232.254 32.528 232.254 31.776C232.254 31.2 231.854 30.864 230.83 30.624L229.55 30.336C227.886 29.952 227.086 29.216 227.086 28.08C227.086 26.656 228.302 25.68 230.27 25.68C231.678 25.68 232.814 26.176 233.47 27.056L232.542 27.856C232.014 27.232 231.198 26.896 230.19 26.896C229.038 26.896 228.43 27.328 228.43 28.048C228.43 28.576 228.798 28.88 229.886 29.136L231.31 29.456C232.91 29.824 233.598 30.544 233.598 31.68C233.598 33.216 232.398 34.224 230.414 34.224C228.766 34.224 227.438 33.552 226.798 32.464ZM235.209 23.28C235.209 22.752 235.609 22.352 236.137 22.352C236.665 22.352 237.065 22.752 237.065 23.28C237.065 23.808 236.665 24.208 236.137 24.208C235.609 24.208 235.209 23.808 235.209 23.28ZM235.465 34V25.904H236.809V34H235.465ZM238.611 32.464L239.587 31.744C240.163 32.576 241.107 33.008 242.211 33.008C243.363 33.008 244.067 32.528 244.067 31.776C244.067 31.2 243.667 30.864 242.643 30.624L241.363 30.336C239.699 29.952 238.899 29.216 238.899 28.08C238.899 26.656 240.115 25.68 242.083 25.68C243.491 25.68 244.627 26.176 245.283 27.056L244.355 27.856C243.827 27.232 243.011 26.896 242.003 26.896C240.851 26.896 240.243 27.328 240.243 28.048C240.243 28.576 240.611 28.88 241.699 29.136L243.123 29.456C244.723 29.824 245.411 30.544 245.411 31.68C245.411 33.216 244.211 34.224 242.227 34.224C240.579 34.224 239.251 33.552 238.611 32.464Z" fill="white"/>
<rect x="285" y="15" width="38" height="25" rx="4" fill="#FF5B5B"/>
<path d="M338.072 32.704H344.488V34H336.664V22.8H344.328V24.096H338.072V27.712H344.008V28.992H338.072V32.704ZM349.434 34V24.112H345.69V22.8H354.586V24.112H350.842V34H349.434ZM364.16 22.8H365.568V34H364.16V28.912H357.76V34H356.352V22.8H357.76V27.6H364.16V22.8ZM373.899 36.032C372.299 34.128 371.403 31.568 371.403 29.008C371.403 26.448 372.299 23.888 373.899 21.984L374.955 22.752C374.331 23.504 373.819 24.448 373.419 25.584C373.019 26.72 372.811 27.872 372.811 29.008C372.811 30.144 373.019 31.296 373.419 32.432C373.819 33.568 374.331 34.512 374.955 35.264L373.899 36.032ZM386.959 22.8H388.447V34H387.087V24.96L383.199 31.088H382.031L378.143 24.96V34H376.783V22.8H378.271L382.623 29.632L386.959 22.8ZM397.495 25.904H398.839V34H397.495V32.512C397.031 33.552 395.863 34.224 394.503 34.224C392.279 34.224 390.647 32.448 390.647 29.952C390.647 27.456 392.279 25.68 394.503 25.68C395.863 25.68 397.031 26.352 397.495 27.392V25.904ZM397.559 29.952C397.559 29.072 397.303 28.336 396.791 27.776C396.295 27.216 395.623 26.928 394.807 26.928C393.991 26.928 393.319 27.216 392.807 27.776C392.311 28.336 392.055 29.072 392.055 29.952C392.055 30.832 392.311 31.568 392.807 32.128C393.319 32.688 393.991 32.976 394.807 32.976C395.623 32.976 396.295 32.688 396.791 32.128C397.303 31.568 397.559 30.832 397.559 29.952ZM405.947 25.888V27.072C405.707 27.04 405.483 27.024 405.243 27.024C403.659 27.024 402.747 27.952 402.747 29.856V34H401.403V25.904H402.747V27.424C403.115 26.384 404.011 25.776 405.211 25.776C405.483 25.776 405.739 25.808 405.947 25.888ZM405.707 36.384L406.475 32.064H407.883L406.763 36.384H405.707ZM414.598 32.72H420.406V34H412.614V32.816L416.71 28.992C417.494 28.256 418.038 27.664 418.326 27.2C418.63 26.736 418.774 26.256 418.774 25.776C418.774 24.56 417.99 23.84 416.694 23.84C415.43 23.84 414.374 24.496 413.622 25.888L412.566 25.168C413.478 23.456 414.886 22.576 416.662 22.576C418.822 22.576 420.198 23.872 420.198 25.744C420.198 26.944 419.606 28.032 418.054 29.488L414.598 32.72ZM430.393 30.336V31.52H428.697V34H427.401V31.52H421.401V30.368L426.921 22.8H428.697V30.336H430.393ZM422.905 30.336H427.401V24.176L422.905 30.336ZM431.93 21.984C433.53 23.888 434.426 26.448 434.426 29.008C434.426 31.568 433.53 34.128 431.93 36.032L430.874 35.264C431.498 34.512 432.01 33.568 432.41 32.432C432.81 31.296 433.018 30.144 433.018 29.008C433.018 27.872 432.81 26.72 432.41 25.584C432.01 24.448 431.498 23.504 430.874 22.752L431.93 21.984Z" fill="white"/>
<rect x="474" y="15" width="38" height="25" rx="4" fill="#5BA6FF"/>
<path d="M527.072 32.704H533.488V34H525.664V22.8H533.328V24.096H527.072V27.712H533.008V28.992H527.072V32.704ZM538.434 34V24.112H534.69V22.8H543.586V24.112H539.842V34H538.434ZM553.16 22.8H554.568V34H553.16V28.912H546.76V34H545.352V22.8H546.76V27.6H553.16V22.8ZM562.899 36.032C561.299 34.128 560.403 31.568 560.403 29.008C560.403 26.448 561.299 23.888 562.899 21.984L563.955 22.752C563.331 23.504 562.819 24.448 562.419 25.584C562.019 26.72 561.811 27.872 561.811 29.008C561.811 30.144 562.019 31.296 562.419 32.432C562.819 33.568 563.331 34.512 563.955 35.264L562.899 36.032ZM564.855 31.616L565.991 30.96C566.583 32.24 567.799 32.944 569.399 32.944C571.079 32.944 572.103 32.176 572.103 30.976C572.103 30.064 571.511 29.488 570.119 29.152L568.311 28.72C566.231 28.224 565.191 27.216 565.191 25.728C565.191 23.888 566.743 22.576 569.223 22.576C571.207 22.576 572.727 23.408 573.287 24.624L572.183 25.296C571.655 24.384 570.583 23.856 569.191 23.856C567.591 23.856 566.631 24.544 566.631 25.712C566.631 26.608 567.191 27.136 568.647 27.472L570.455 27.904C572.615 28.416 573.559 29.392 573.559 30.928C573.559 32.88 572.007 34.224 569.383 34.224C567.127 34.224 565.495 33.264 564.855 31.616ZM583.634 29.952C583.634 32.448 582.002 34.224 579.794 34.224C578.434 34.224 577.282 33.552 576.786 32.512V37.2H575.442V25.904H576.786V27.392C577.282 26.352 578.434 25.68 579.794 25.68C582.002 25.68 583.634 27.456 583.634 29.952ZM582.226 29.952C582.226 29.072 581.97 28.336 581.458 27.776C580.962 27.216 580.29 26.928 579.474 26.928C578.658 26.928 577.986 27.216 577.474 27.776C576.978 28.336 576.722 29.072 576.722 29.952C576.722 30.832 576.978 31.568 577.474 32.128C577.986 32.688 578.658 32.976 579.474 32.976C580.29 32.976 580.962 32.688 581.458 32.128C581.97 31.568 582.226 30.832 582.226 29.952ZM585.046 29.952C585.014 27.664 586.758 25.632 589.206 25.68C591.654 25.632 593.398 27.664 593.366 29.952C593.398 32.24 591.654 34.272 589.206 34.224C586.758 34.272 585.014 32.24 585.046 29.952ZM591.958 29.952C591.958 29.072 591.702 28.336 591.19 27.776C590.694 27.216 590.022 26.928 589.206 26.928C588.39 26.928 587.718 27.216 587.206 27.776C586.71 28.336 586.454 29.072 586.454 29.952C586.454 30.832 586.71 31.568 587.206 32.128C587.718 32.688 588.39 32.976 589.206 32.976C590.022 32.976 590.694 32.688 591.19 32.128C591.702 31.568 591.958 30.832 591.958 29.952ZM595.785 31.92V27.056H594.169V25.904H595.785V23.504H597.129V25.904H599.673V27.056H597.129V31.824C597.129 32.608 597.529 32.944 598.441 32.944C598.809 32.944 599.241 32.896 599.705 32.8V33.92C599.241 34.064 598.761 34.128 598.249 34.128C596.649 34.128 595.785 33.376 595.785 31.92ZM601.531 21.984C603.131 23.888 604.027 26.448 604.027 29.008C604.027 31.568 603.131 34.128 601.531 36.032L600.475 35.264C601.099 34.512 601.611 33.568 602.011 32.432C602.411 31.296 602.619 30.144 602.619 29.008C602.619 27.872 602.411 26.72 602.011 25.584C601.611 24.448 601.099 23.504 600.475 22.752L601.531 21.984Z" fill="white"/>
<defs>
<linearGradient id="paint0_linear_2_2" x1="401.253" y1="99.6138" x2="401.253" y2="357.031" gradientUnits="userSpaceOnUse">
<stop stop-color="#FFD885"/>
<stop offset="1" stop-color="#FBD483" stop-opacity="0"/>
</linearGradient>
<linearGradient id="paint1_linear_2_2" x1="174" y1="15" x2="174" y2="40" gradientUnits="userSpaceOnUse">
<stop stop-color="#745E4E"/>
<stop offset="1" stop-color="#E3BE79"/>
</linearGradient>
</defs>
</svg>
