<svg width="39" height="39" viewBox="0 0 39 39" fill="none" xmlns="http://www.w3.org/2000/svg">
<g clip-path="url(#clip0_183_196)">
<path d="M38.4024 19.4999C38.4024 23.2973 37.2764 27.0095 35.1667 30.1669C33.0569 33.3243 30.0583 35.7852 26.55 37.2384C23.0416 38.6916 19.1811 39.0718 15.4567 38.331C11.7323 37.5902 8.31117 35.7615 5.626 33.0764C2.94083 30.3912 1.11221 26.9701 0.371373 23.2457C-0.369464 19.5212 0.0107604 15.6607 1.46396 12.1524C2.91717 8.64406 5.37808 5.64543 8.5355 3.53571C11.6929 1.42599 15.405 0.299927 19.2024 0.299927C24.2946 0.299927 29.1782 2.32278 32.7789 5.92348C36.3796 9.52418 38.4024 14.4078 38.4024 19.4999Z" fill="#F7931A"/>
<path fill-rule="evenodd" clip-rule="evenodd" d="M13.6452 9.06728L18.0577 10.249L19.0439 6.57303L21.2502 7.17172L20.3024 10.6958L22.102 11.1793L23.0515 7.61681L25.2961 8.21725L24.3292 11.7989C24.3292 11.7989 27.9946 12.6106 28.8569 15.5918C29.7191 18.573 26.9613 20.1387 26.1095 20.198C26.1095 20.198 29.3212 21.9592 28.218 25.4239C27.1149 28.8887 23.7287 29.5083 20.1662 28.7141L19.1993 32.4284L16.9546 31.828L17.9408 28.1713L16.1604 27.686L15.1742 31.369L12.947 30.7703L13.935 27.1048L9.40552 25.883L10.547 23.3486C10.547 23.3486 11.8247 23.6977 12.3082 23.8129C12.7917 23.9281 13.1024 23.4254 13.2385 22.9227C13.3747 22.42 15.4256 14.089 15.6193 13.403C15.8131 12.717 15.7345 12.1812 14.9212 11.97C14.1078 11.7588 13.0012 11.4289 13.0012 11.4289L13.6452 9.06728ZM18.0961 20.1003L16.8743 24.9579C16.8743 24.9579 22.9328 27.145 23.7078 24.0677C24.4828 20.9905 18.0961 20.1003 18.0961 20.1003ZM18.6582 17.7963L19.8573 13.3454C19.8573 13.3454 25.0448 14.274 24.406 16.7508C23.7671 19.2276 20.7091 18.278 18.6582 17.7963Z" fill="white"/>
</g>
<defs>
<clipPath id="clip0_183_196">
<rect width="38.4" height="38.4" fill="white" transform="translate(0 0.300003)"/>
</clipPath>
</defs>
</svg>
