<svg xmlns="http://www.w3.org/2000/svg" width="17" height="16" viewBox="0 0 17 16" fill="none">
  <path d="M13.3467 3.55345C12.46 3.14011 11.5 2.84011 10.5 2.66678C10.4912 2.6665 10.4825 2.66814 10.4744 2.6716C10.4664 2.67505 10.4592 2.68024 10.4533 2.68678C10.3333 2.90678 10.1933 3.19345 10.1 3.41345C9.03933 3.25345 7.96067 3.25345 6.9 3.41345C6.80667 3.18678 6.66667 2.90678 6.54 2.68678C6.53333 2.67345 6.51333 2.66678 6.49333 2.66678C5.49333 2.84011 4.54 3.14011 3.64667 3.55345C3.64 3.55345 3.63333 3.56011 3.62667 3.56678C1.81333 6.28011 1.31333 8.92011 1.56 11.5334C1.56 11.5468 1.56667 11.5601 1.58 11.5668C2.78 12.4468 3.93333 12.9801 5.07333 13.3334C5.09333 13.3401 5.11333 13.3334 5.12 13.3201C5.38667 12.9534 5.62667 12.5668 5.83333 12.1601C5.84667 12.1334 5.83333 12.1068 5.80667 12.1001C5.42667 11.9534 5.06667 11.7801 4.71333 11.5801C4.68667 11.5668 4.68667 11.5268 4.70667 11.5068C4.78 11.4534 4.85333 11.3934 4.92667 11.3401C4.94 11.3268 4.96 11.3268 4.97333 11.3334C7.26667 12.3801 9.74 12.3801 12.0067 11.3334C12.02 11.3268 12.04 11.3268 12.0533 11.3401C12.1267 11.4001 12.2 11.4534 12.2733 11.5134C12.3 11.5334 12.3 11.5734 12.2667 11.5868C11.92 11.7934 11.5533 11.9601 11.1733 12.1068C11.1467 12.1134 11.14 12.1468 11.1467 12.1668C11.36 12.5734 11.6 12.9601 11.86 13.3268C11.88 13.3334 11.9 13.3401 11.92 13.3334C13.0667 12.9801 14.22 12.4468 15.42 11.5668C15.4333 11.5601 15.44 11.5468 15.44 11.5334C15.7333 8.51344 14.9533 5.89345 13.3733 3.56678C13.3667 3.56011 13.36 3.55345 13.3467 3.55345ZM6.18 9.94011C5.49333 9.94011 4.92 9.30678 4.92 8.52678C4.92 7.74678 5.48 7.11345 6.18 7.11345C6.88667 7.11345 7.44667 7.75345 7.44 8.52678C7.44 9.30678 6.88 9.94011 6.18 9.94011ZM10.8267 9.94011C10.14 9.94011 9.56667 9.30678 9.56667 8.52678C9.56667 7.74678 10.1267 7.11345 10.8267 7.11345C11.5333 7.11345 12.0933 7.75345 12.0867 8.52678C12.0867 9.30678 11.5333 9.94011 10.8267 9.94011Z" fill="white"/>
</svg>