<svg width="39" height="39" viewBox="0 0 39 39" fill="none" xmlns="http://www.w3.org/2000/svg">
<rect y="0.299999" width="38.4" height="38.4" rx="19.2" fill="white"/>
<circle cx="19.2" cy="19.5" r="19.2" fill="#EEEEEE"/>
<path d="M19.1476 7.97999L18.9949 8.4988V23.5521L19.1476 23.7045L26.1351 19.5742L19.1476 7.97999Z" fill="#343434"/>
<path d="M19.1478 7.97999L12.1602 19.5742L19.1478 23.7045V16.398V7.97999Z" fill="#8C8C8C"/>
<path d="M19.1478 25.0275L19.0618 25.1325V30.4947L19.1478 30.746L26.1396 20.8993L19.1478 25.0275Z" fill="#3C3C3B"/>
<path d="M19.1478 30.746V25.0275L12.1602 20.8993L19.1478 30.746Z" fill="#8C8C8C"/>
<path d="M19.1477 23.7045L26.1352 19.5742L19.1477 16.3981V23.7045Z" fill="#141414"/>
<path d="M12.1602 19.5742L19.1478 23.7045V16.3981L12.1602 19.5742Z" fill="#393939"/>
</svg>
