<svg xmlns="http://www.w3.org/2000/svg" width="16" height="16" viewBox="0 0 16 16" fill="none">
  <path fill-rule="evenodd" clip-rule="evenodd" d="M13.3067 1.16675C12.7247 1.16675 12.216 1.48608 11.948 1.95875L9.548 1.46608C9.4349 1.44291 9.31726 1.4596 9.21506 1.51332C9.11286 1.56703 9.0324 1.65445 8.98733 1.76075C8.71333 2.40475 8.30267 3.38142 7.95933 4.21742C7.80867 4.58541 7.67 4.92808 7.562 5.20408C6.28333 5.26541 5.10067 5.59741 4.124 6.12675C3.94046 5.87694 3.70251 5.67215 3.42815 5.52787C3.15378 5.38359 2.8502 5.30361 2.54036 5.29397C2.23053 5.28433 1.92256 5.34529 1.63976 5.47223C1.35696 5.59917 1.10673 5.78877 0.908018 6.02669C0.709304 6.2646 0.567306 6.5446 0.492769 6.84549C0.418231 7.14638 0.413107 7.46028 0.477783 7.76345C0.542459 8.06661 0.675242 8.35109 0.866084 8.59536C1.05693 8.83964 1.30083 9.03731 1.57933 9.17341C1.52067 9.4331 1.49116 9.69852 1.49133 9.96475C1.49133 11.3247 2.25867 12.5261 3.43867 13.3741C4.61867 14.2227 6.23267 14.7367 8 14.7367C9.76667 14.7367 11.3807 14.2227 12.5613 13.3741C13.7413 12.5261 14.5087 11.3254 14.5087 9.96475C14.5087 9.69475 14.4787 9.43008 14.4207 9.17408C14.6987 9.03775 14.9421 8.84001 15.1325 8.59581C15.3229 8.3516 15.4553 8.06732 15.5197 7.76444C15.5841 7.46156 15.5788 7.14799 15.5043 6.84745C15.4297 6.54691 15.2878 6.26724 15.0893 6.02958C14.8908 5.79191 14.6409 5.60248 14.3584 5.47557C14.076 5.34867 13.7684 5.28763 13.4589 5.29705C13.1494 5.30648 12.846 5.38612 12.5718 5.52997C12.2976 5.67382 12.0597 5.87812 11.876 6.12741C10.9493 5.62408 9.83667 5.30008 8.63333 5.21541L8.88467 4.59675C9.164 3.91608 9.48933 3.14008 9.748 2.52808L11.76 2.94141C11.8008 3.23851 11.9263 3.51757 12.1215 3.74527C12.3166 3.97297 12.5732 4.13967 12.8606 4.22546C13.1479 4.31126 13.4539 4.31252 13.742 4.22909C14.03 4.14567 14.288 3.98109 14.485 3.75501C14.682 3.52893 14.8098 3.25092 14.8531 2.95416C14.8964 2.65741 14.8533 2.35448 14.7291 2.08154C14.6048 1.80861 14.4046 1.57721 14.1524 1.41499C13.9002 1.25278 13.6066 1.1666 13.3067 1.16675ZM12.7453 2.72808C12.7453 2.57912 12.8045 2.43626 12.9098 2.33092C13.0152 2.22559 13.158 2.16641 13.307 2.16641C13.456 2.16641 13.5988 2.22559 13.7042 2.33092C13.8095 2.43626 13.8687 2.57912 13.8687 2.72808C13.8687 2.87704 13.8095 3.01991 13.7042 3.12524C13.5988 3.23057 13.456 3.28975 13.307 3.28975C13.158 3.28975 13.0152 3.23057 12.9098 3.12524C12.8045 3.01991 12.7453 2.87704 12.7453 2.72808ZM14.0673 8.22808C13.754 7.63941 13.29 7.11275 12.718 6.67208C12.8147 6.55526 12.9356 6.46089 13.0724 6.39554C13.2092 6.33019 13.3587 6.29543 13.5103 6.29367C13.6619 6.29191 13.8121 6.3232 13.9504 6.38536C14.0887 6.44753 14.2118 6.53907 14.3111 6.65362C14.4105 6.76817 14.4837 6.90299 14.5256 7.0487C14.5676 7.1944 14.5773 7.3475 14.5541 7.49734C14.5309 7.64719 14.4753 7.79017 14.3913 7.91637C14.3072 8.04256 14.1967 8.14893 14.0673 8.22808ZM3.282 6.67208C3.18539 6.55507 3.06444 6.46053 2.92756 6.39503C2.79068 6.32954 2.64118 6.29467 2.48945 6.29285C2.33772 6.29103 2.18742 6.32231 2.04901 6.38451C1.91061 6.44671 1.78742 6.53833 1.68804 6.65299C1.58865 6.76765 1.51546 6.9026 1.47355 7.04844C1.43164 7.19428 1.42203 7.3475 1.44538 7.49743C1.46873 7.64736 1.52448 7.7904 1.60875 7.91658C1.69302 8.04277 1.80379 8.14907 1.93333 8.22808C2.24667 7.63941 2.71 7.11275 3.282 6.67208ZM10.3587 9.96541C10.6146 9.96541 10.8601 9.86374 11.041 9.68277C11.222 9.5018 11.3237 9.25635 11.3237 9.00041C11.3237 8.74448 11.222 8.49903 11.041 8.31806C10.8601 8.13708 10.6146 8.03541 10.3587 8.03541C10.1028 8.03541 9.85746 8.13705 9.67655 8.31796C9.49564 8.49887 9.394 8.74424 9.394 9.00008C9.394 9.25593 9.49564 9.50129 9.67655 9.6822C9.85746 9.86311 10.1028 9.96475 10.3587 9.96475M6.60333 9.00008C6.60333 9.25601 6.50166 9.50147 6.32069 9.68244C6.13972 9.86341 5.89427 9.96508 5.63833 9.96508C5.3824 9.96508 5.13695 9.86341 4.95598 9.68244C4.775 9.50147 4.67333 9.25601 4.67333 9.00008C4.67333 8.74415 4.775 8.4987 4.95598 8.31772C5.13695 8.13675 5.3824 8.03508 5.63833 8.03508C5.89427 8.03508 6.13972 8.13675 6.32069 8.31772C6.50166 8.4987 6.60333 8.74415 6.60333 9.00008ZM5.9 11.0861C5.78802 11.0202 5.6548 11.0005 5.52855 11.0312C5.4023 11.0618 5.29294 11.1404 5.22361 11.2502C5.15429 11.3601 5.13046 11.4927 5.15716 11.6198C5.18386 11.747 5.259 11.8587 5.36667 11.9314L5.59667 12.0767C6.31534 12.53 7.14765 12.7706 7.99733 12.7706C8.84701 12.7706 9.67933 12.53 10.398 12.0767L10.628 11.9321C10.6836 11.8971 10.7317 11.8514 10.7697 11.7978C10.8077 11.7442 10.8347 11.6836 10.8492 11.6195C10.8638 11.5555 10.8656 11.4891 10.8545 11.4244C10.8434 11.3596 10.8197 11.2977 10.7847 11.2421C10.7496 11.1865 10.704 11.1383 10.6504 11.1004C10.5968 11.0624 10.5362 11.0354 10.4721 11.0208C10.408 11.0063 10.3417 11.0045 10.277 11.0156C10.2122 11.0267 10.1503 11.0504 10.0947 11.0854L9.86467 11.2307C9.30567 11.5834 8.65826 11.7705 7.99733 11.7705C7.33641 11.7705 6.689 11.5834 6.13 11.2307L5.9 11.0861Z" fill="white"/>
</svg>