<svg xmlns="http://www.w3.org/2000/svg" width="18" height="15" viewBox="0 0 18 15" fill="none">
  <path d="M17.3225 0.803753C17.309 0.742264 17.2795 0.685438 17.237 0.639024C17.1945 0.592604 17.1405 0.558246 17.0804 0.539415C16.8616 0.496091 16.6353 0.512144 16.4248 0.585902C16.4248 0.585902 1.83512 5.83026 1.00188 6.41096C0.822886 6.53584 0.762527 6.60869 0.732694 6.69403C0.588386 7.1103 1.03727 7.2893 1.03727 7.2893L4.79759 8.51449C4.86117 8.52588 4.92655 8.52209 4.98838 8.50341C5.84313 7.96293 13.5913 3.06827 14.0416 2.90385C14.111 2.88303 14.1644 2.90385 14.1505 2.95588C13.9715 3.58375 7.27579 9.5316 7.239 9.56766C7.2211 9.58233 7.20716 9.60127 7.19842 9.62271C7.18973 9.64415 7.1865 9.66746 7.18905 9.69046L6.83803 13.362C6.83803 13.362 6.69093 14.5046 7.83359 13.362C8.64392 12.551 9.42167 11.8794 9.81021 11.5526C11.1034 12.4455 12.4944 13.4327 13.0946 13.9496C13.1955 14.0473 13.3151 14.1237 13.4463 14.1741C13.5774 14.2245 13.7173 14.248 13.8577 14.2431C14.0306 14.222 14.193 14.1488 14.3233 14.0332C14.4536 13.9175 14.5455 13.765 14.5869 13.5958C14.5869 13.5958 17.2441 2.89552 17.3329 1.46216C17.3419 1.3234 17.3537 1.23182 17.3551 1.13538C17.3595 1.02387 17.3485 0.912285 17.3225 0.803753Z" fill="white"/>
</svg>