<svg xmlns="http://www.w3.org/2000/svg" width="27" height="27" viewBox="0 0 27 27" fill="none">
  <g clip-path="url(#clip0_183_987)">
    <path d="M13.4136 26.5191C15.9679 26.5191 18.4649 25.7555 20.5888 24.3249C22.7126 22.8944 24.368 20.8611 25.3455 18.4821C26.323 16.1032 26.5787 13.4855 26.0804 10.9601C25.5821 8.4346 24.3521 6.11481 22.5459 4.29406C20.7397 2.4733 18.4384 1.23336 15.9332 0.731011C13.4279 0.228666 10.8311 0.486487 8.47122 1.47187C6.11131 2.45726 4.09426 4.12595 2.67514 6.26693C1.25603 8.40791 0.498574 10.925 0.498574 13.5C0.494393 15.2108 0.825595 16.9057 1.47315 18.4871C2.12071 20.0686 3.07186 21.5055 4.27197 22.7152C5.47207 23.925 6.89747 24.8838 8.46628 25.5366C10.0351 26.1894 11.7164 26.5233 13.4136 26.5191Z" fill="#2775CA"/>
    <path d="M16.9643 15.5618C16.9643 13.6681 15.8349 13.0112 13.5747 12.7402C11.9592 12.5236 11.6375 12.0892 11.6375 11.3306C11.6375 10.5719 12.1752 10.0819 13.2507 10.0819C14.2205 10.0819 14.7582 10.4074 15.0271 11.2217C15.056 11.3002 15.1081 11.3678 15.1763 11.4154C15.2446 11.463 15.3257 11.4884 15.4087 11.488H16.2693C16.3191 11.4893 16.3687 11.4804 16.415 11.4617C16.4613 11.4431 16.5034 11.4152 16.5387 11.3796C16.5739 11.3441 16.6016 11.3017 16.6201 11.255C16.6386 11.2083 16.6475 11.1583 16.6462 11.1081V11.0548C16.5422 10.4669 16.2485 9.93001 15.8107 9.52764C15.3729 9.12527 14.8155 8.87993 14.2252 8.82974V7.52783C14.2252 7.31124 14.0632 7.14909 13.7943 7.09465H12.9865C12.7717 7.09465 12.6108 7.25679 12.5568 7.52783V8.78003C10.9377 9.00254 9.91511 10.0819 9.91511 11.4383C9.91511 13.229 10.9917 13.9344 13.2519 14.2054C14.7582 14.4765 15.2478 14.7972 15.2478 15.6695C15.2478 16.5418 14.4952 17.1347 13.4726 17.1347C12.0731 17.1347 11.5941 16.543 11.4273 15.7239C11.412 15.6324 11.3652 15.5493 11.2953 15.489C11.2253 15.4286 11.1366 15.3949 11.0446 15.3937H10.1253C10.0755 15.3926 10.026 15.4017 9.97972 15.4203C9.93349 15.439 9.89149 15.467 9.85627 15.5025C9.82105 15.538 9.79333 15.5803 9.77478 15.6269C9.75624 15.6735 9.74726 15.7235 9.74838 15.7737V15.8281C9.96442 17.1844 10.825 18.1609 12.6014 18.4319V19.7338C12.6014 19.9504 12.7623 20.1137 13.0311 20.1682H13.8389C14.0538 20.1682 14.2158 20.0049 14.2686 19.7338V18.4319C15.883 18.1609 16.9597 17.0211 16.9597 15.5571L16.9643 15.5618Z" fill="white"/>
    <path d="M10.671 21.2571C9.1226 20.6846 7.78593 19.6467 6.84165 18.2836C5.89737 16.9206 5.391 15.2981 5.391 13.6356C5.391 11.9731 5.89737 10.3506 6.84165 8.98758C7.78593 7.62453 9.1226 6.58661 10.671 6.01411C10.7743 5.96906 10.8611 5.8926 10.9192 5.79542C10.9773 5.69823 11.0038 5.58517 10.995 5.47204V4.7122C11.0023 4.61253 10.9734 4.51359 10.9138 4.43372C10.8543 4.35385 10.768 4.29847 10.671 4.27783C10.5952 4.26987 10.5191 4.28915 10.4561 4.33228C8.49703 4.95998 6.78693 6.19983 5.57332 7.87238C4.35971 9.54492 3.70557 11.5634 3.70557 13.6356C3.70557 15.7078 4.35971 17.7263 5.57332 19.3988C6.78693 21.0714 8.49703 22.3112 10.4561 22.9389C10.5009 22.9651 10.5511 22.9803 10.6028 22.9831C10.6544 22.986 10.7061 22.9764 10.7534 22.9553C10.8007 22.9342 10.8423 22.9021 10.875 22.8616C10.9076 22.8211 10.9302 22.7734 10.941 22.7224C10.995 22.6679 10.995 22.6135 10.995 22.5046V21.7459C10.995 21.5826 10.833 21.366 10.671 21.2571ZM16.3759 4.33228C16.3311 4.30608 16.2807 4.29097 16.229 4.28819C16.1772 4.28541 16.1256 4.29505 16.0782 4.3163C16.0309 4.33756 15.9893 4.36983 15.9567 4.41046C15.9242 4.4511 15.9016 4.49894 15.891 4.55005C15.8381 4.60331 15.8381 4.65775 15.8381 4.76664V5.5253C15.8472 5.6347 15.881 5.74055 15.937 5.83473C15.993 5.9289 16.0696 6.00889 16.161 6.06855C17.7094 6.64105 19.0461 7.67898 19.9903 9.04203C20.9346 10.4051 21.441 12.0275 21.441 13.6901C21.441 15.3526 20.9346 16.975 19.9903 18.3381C19.0461 19.7011 17.7094 20.7391 16.161 21.3116C16.0578 21.3566 15.9712 21.4331 15.9133 21.5304C15.8554 21.6276 15.8291 21.7406 15.8381 21.8536V22.6135C15.8308 22.713 15.8595 22.8118 15.9189 22.8916C15.9782 22.9715 16.0642 23.0269 16.161 23.0478C16.2368 23.0558 16.3129 23.0365 16.3759 22.9934C18.3342 22.357 20.0418 21.1109 21.2532 19.4343C22.4645 17.7577 23.1171 15.737 23.1171 13.6628C23.1171 11.5887 22.4645 9.56799 21.2532 7.89138C20.0418 6.21477 18.3342 4.96866 16.3759 4.33228Z" fill="white"/>
  </g>
  <defs>
    <clipPath id="clip0_183_987">
      <rect width="25.83" height="26.0382" fill="white" transform="translate(0.5 0.480896)"/>
    </clipPath>
  </defs>
</svg>