<svg width="146" height="53" viewBox="0 0 146 53" fill="none" xmlns="http://www.w3.org/2000/svg">
<path d="M29.3521 10.6C31.4206 10.6 33.4226 11.0165 35.3166 11.8325C36.3218 12.2661 37.2854 12.8186 38.1825 13.4646L37.9915 13.5666L35.5326 14.8502C33.6552 13.7791 31.5203 13.2181 29.3521 13.2181C29.3189 13.2181 29.2857 13.2181 29.2524 13.2181C27.5827 13.2351 25.9545 13.5751 24.4177 14.2296C22.8809 14.8927 21.5019 15.8362 20.3223 17.0433C17.9133 19.5169 16.5841 22.7981 16.5841 26.2832C16.5841 26.8527 16.6174 27.4223 16.6921 27.9918L16.7171 28.1703L16.8749 28.0853L38.0995 17.0093L42.4939 14.7142L47.4698 12.113V15.0542L42.3444 17.7318L39.8273 19.0409L17.4564 30.7289L17.3567 30.7884L16.2103 31.3835L15.0473 31.987V31.9785L14.9393 32.0295L11.2178 33.9761V31.0349L12.4804 30.3804C13.5354 29.8279 14.1668 28.6888 14.0754 27.4733C14.0505 27.0738 14.0339 26.6742 14.0339 26.2747C14.0339 24.1581 14.4409 22.101 15.2384 20.1629C16.011 18.2928 17.1158 16.6183 18.5197 15.1732C19.9236 13.7366 21.5601 12.5976 23.3876 11.807C25.2733 11.0165 27.2837 10.6 29.3521 10.6Z" fill="#8E8AA9"/>
<path d="M47.4782 18.9899V21.931L46.2155 22.5855C45.1605 23.1381 44.5291 24.2771 44.6205 25.4927C44.6538 25.8922 44.6621 26.3002 44.6621 26.6997C44.6621 28.8163 44.255 30.8734 43.4575 32.8115C42.685 34.6816 41.5801 36.3562 40.1762 37.8013C38.7723 39.2463 37.1275 40.3769 35.3083 41.1674C33.4226 41.9835 31.4123 42.4 29.3438 42.4C27.2753 42.4 25.2733 41.9835 23.3793 41.1674C22.3659 40.7254 21.4022 40.1729 20.5051 39.5268L23.047 38.2008L23.1467 38.1498C25.0241 39.2208 27.1674 39.7904 29.3438 39.7904C29.377 39.7904 29.402 39.7904 29.4352 39.7904C31.1049 39.7819 32.7331 39.4418 34.2699 38.7788C35.8067 38.1158 37.1857 37.1722 38.3653 35.9652C40.7743 33.5001 42.1035 30.2104 42.1035 26.7252C42.1035 26.1557 42.0702 25.5777 41.9955 25.0082L41.9706 24.8296L41.8127 24.9146L20.5715 35.9737L16.1771 38.2688L11.2178 40.8529V37.9118L16.3266 35.2426L18.8437 33.9336L47.4782 18.9899Z" fill="#8E8AA9"/>
<path d="M73.1053 21.3785H70.2975C69.5914 18.9389 67.2654 18.1228 65.1887 18.1228C63.602 18.1228 60.8192 18.8454 60.8192 21.2C60.8192 23.0616 62.2646 23.9881 64.1669 24.4216L66.551 24.9742C69.6994 25.6712 73.4708 26.8868 73.4708 31.1285C73.4708 35.2511 69.7243 37.4272 65.6373 37.4272C60.7859 37.4272 57.7206 34.7241 57.1807 30.5164H60.0217C60.5616 33.4236 62.547 34.9281 65.6954 34.9281C68.7275 34.9281 70.4886 33.4491 70.4886 31.3835C70.4886 29.1734 68.6444 28.2468 66.0609 27.6688L63.5107 27.1163C60.7029 26.4787 57.8618 24.8807 57.8618 21.37C57.8618 17.3663 61.9738 15.6237 65.2967 15.6237C68.9933 15.6322 72.3078 17.3153 73.1053 21.3785Z" fill="#8E8AA9"/>
<path d="M79.8588 17.5193V21.438H82.7496V23.5546H79.8588V32.8115C79.8588 34.4351 79.9751 34.8431 81.4454 34.8431H82.7496V37.0532H80.8805C77.9564 37.0532 77.2753 36.3817 77.2753 33.1345V23.5546H74.8662V21.438H77.2753V17.5193H79.8588Z" fill="#8E8AA9"/>
<path d="M91.4891 35.1152C93.7569 35.1152 95.003 34.0696 95.6592 32.531H98.3258C97.6197 35.2342 95.2023 37.4358 91.4891 37.4358C86.6627 37.4358 83.9961 33.8911 83.9961 29.2754C83.9961 24.3366 87.2275 21.1745 91.3977 21.1745C96.0497 21.1745 98.8575 25.1782 98.5169 30.1169H86.7707C86.8953 33.4831 89.2212 35.1152 91.4891 35.1152ZM95.8005 27.8558C95.7423 25.6457 94.1307 23.4441 91.406 23.4441C89.1049 23.4441 87.0365 24.7192 86.8122 27.8558H95.8005Z" fill="#8E8AA9"/>
<path d="M100.967 37.0532V16.0062H103.55V37.0532H100.967Z" fill="#8E8AA9"/>
<path d="M106.724 37.0532V16.0062H109.307V37.0532H106.724Z" fill="#8E8AA9"/>
<path d="M122.018 27.4478V27.0738C122.018 24.2261 120.456 23.2741 118.554 23.2741C116.427 23.2741 115.181 24.4641 115.065 26.3767H112.398C112.656 23.0106 115.546 21.1235 118.529 21.1235C122.724 21.1235 124.626 23.1806 124.601 27.5668L124.576 31.1624C124.551 33.7721 124.692 35.5742 124.975 37.0532H122.366C122.283 36.4752 122.2 35.8377 122.167 34.9026C121.228 36.5007 119.642 37.4272 116.95 37.4272C114.084 37.4272 111.7 35.8037 111.7 32.9305C111.692 29.2499 115.746 28.1703 122.018 27.4478ZM114.558 32.8795C114.558 34.3586 115.663 35.3446 117.507 35.3446C119.916 35.3446 122.217 34.2141 122.217 30.5249V29.5389C117.532 30.0319 114.558 30.7289 114.558 32.8795Z" fill="#8E8AA9"/>
<path d="M133.988 24.0816C131.603 24.0816 130.416 25.4502 130.416 28.8758V37.0617H127.832V21.438H130.357V24.1666C131.122 22.3985 132.683 21.4125 134.669 21.353C134.926 21.353 135.151 21.353 135.433 21.3785V24.1921C134.893 24.1411 134.411 24.0816 133.988 24.0816Z" fill="#8E8AA9"/>
</svg>
