<svg xmlns="http://www.w3.org/2000/svg" width="79" height="30" viewBox="0 0 79 30" fill="none">
  <path d="M15.5195 6.55005C16.6465 6.55005 17.7372 6.77796 18.7691 7.22447C19.3167 7.46168 19.8418 7.764 20.3306 8.11749L20.2265 8.17331L18.8868 8.87563C17.8639 8.28958 16.7008 7.98261 15.5195 7.98261C15.5014 7.98261 15.4833 7.98261 15.4652 7.98261C14.5555 7.99191 13.6684 8.17796 12.8311 8.5361C11.9938 8.89889 11.2425 9.41517 10.5998 10.0756C9.2873 11.4291 8.56315 13.2245 8.56315 15.1314C8.56315 15.4431 8.58125 15.7547 8.62199 16.0663L8.63557 16.164L8.72156 16.1175L20.2853 10.057L22.6795 8.80121L25.3905 7.37796V8.98726L22.598 10.4524L21.2267 11.1687L9.03837 17.564L8.98406 17.5966L8.35948 17.9221L7.72586 18.2524V18.2477L7.66702 18.2756L5.6394 19.3407V17.7314L6.32734 17.3733C6.90214 17.071 7.24611 16.4477 7.19632 15.7826C7.18274 15.564 7.17369 15.3454 7.17369 15.1268C7.17369 13.9687 7.39546 12.8431 7.82995 11.7826C8.25086 10.7594 8.85281 9.84307 9.61769 9.05237C10.3826 8.26633 11.2742 7.64307 12.2699 7.21051C13.2973 6.77796 14.3925 6.55005 15.5195 6.55005Z" fill="#F6F7F8"/>
  <path d="M25.3951 11.1407V12.75L24.7071 13.1082C24.1323 13.4105 23.7884 14.0338 23.8381 14.6989C23.8562 14.9175 23.8608 15.1407 23.8608 15.3594C23.8608 16.5175 23.639 17.6431 23.2045 18.7035C22.7836 19.7268 22.1817 20.6431 21.4168 21.4338C20.6519 22.2245 19.7558 22.8431 18.7646 23.2756C17.7372 23.7221 16.6419 23.95 15.515 23.95C14.388 23.95 13.2973 23.7221 12.2654 23.2756C11.7132 23.0338 11.1882 22.7314 10.6994 22.378L12.0843 21.6524L12.1386 21.6245C13.1615 22.2105 14.3292 22.5221 15.515 22.5221C15.5331 22.5221 15.5467 22.5221 15.5648 22.5221C16.4745 22.5175 17.3615 22.3314 18.1988 21.9687C19.0361 21.6059 19.7874 21.0896 20.4301 20.4291C21.7426 19.0803 22.4668 17.2803 22.4668 15.3733C22.4668 15.0617 22.4487 14.7454 22.408 14.4338L22.3944 14.3361L22.3084 14.3826L10.7356 20.4338L8.34138 21.6896L5.6394 23.1035V21.4942L8.42285 20.0338L9.7942 19.3175L25.3951 11.1407Z" fill="#F6F7F8"/>
  <path d="M39.3576 12.4477H37.8278C37.4431 11.1128 36.1759 10.6663 35.0444 10.6663C34.1799 10.6663 32.6638 11.0616 32.6638 12.35C32.6638 13.3686 33.4513 13.8756 34.4877 14.1128L35.7866 14.4151C37.502 14.7965 39.5567 15.4616 39.5567 17.7825C39.5567 20.0384 37.5155 21.2291 35.2888 21.2291C32.6456 21.2291 30.9756 19.75 30.6814 17.4477H32.2293C32.5234 19.0384 33.6051 19.8616 35.3205 19.8616C36.9724 19.8616 37.9319 19.0523 37.9319 17.9221C37.9319 16.7128 36.9272 16.2058 35.5196 15.8895L34.1301 15.5872C32.6004 15.2384 31.0525 14.3639 31.0525 12.443C31.0525 10.2523 33.2929 9.29883 35.1032 9.29883C37.1173 9.30348 38.9231 10.2244 39.3576 12.4477Z" fill="#F6F7F8"/>
  <path d="M43.0372 10.3361V12.4802H44.6122V13.6384H43.0372V18.7035C43.0372 19.5919 43.1006 19.8151 43.9017 19.8151H44.6122V21.0244H43.5939C42.0008 21.0244 41.6297 20.657 41.6297 18.8802V13.6384H40.3171V12.4802H41.6297V10.3361H43.0372Z" fill="#F6F7F8"/>
  <path d="M49.3734 19.964C50.609 19.964 51.2879 19.3919 51.6454 18.55H53.0982C52.7135 20.0291 51.3965 21.2337 49.3734 21.2337C46.7438 21.2337 45.291 19.2942 45.291 16.7686C45.291 14.0663 47.0516 12.3361 49.3236 12.3361C51.8581 12.3361 53.3879 14.5268 53.2023 17.2291H46.8027C46.8706 19.0709 48.1378 19.964 49.3734 19.964ZM51.7224 15.9919C51.6907 14.7826 50.8126 13.5779 49.3281 13.5779C48.0745 13.5779 46.9475 14.2756 46.8253 15.9919H51.7224Z" fill="#F6F7F8"/>
  <path d="M54.5376 21.0245V9.50818H55.9452V21.0245H54.5376Z" fill="#F6F7F8"/>
  <path d="M57.6741 21.0245V9.50818H59.0816V21.0245H57.6741Z" fill="#F6F7F8"/>
  <path d="M66.0062 15.7686V15.5639C66.0062 14.0058 65.1553 13.4848 64.1189 13.4848C62.9603 13.4848 62.2814 14.136 62.218 15.1825H60.7652C60.9055 13.3407 62.4805 12.3081 64.1053 12.3081C66.3909 12.3081 67.4274 13.4337 67.4138 15.8337L67.4002 17.8011C67.3866 19.229 67.4636 20.2151 67.6174 21.0244H66.1963C66.151 20.7081 66.1058 20.3593 66.0877 19.8476C65.5763 20.7221 64.7118 21.229 63.2454 21.229C61.684 21.229 60.385 20.3407 60.385 18.7686C60.3805 16.7546 62.5891 16.1639 66.0062 15.7686ZM61.9419 18.7407C61.9419 19.55 62.5439 20.0895 63.5486 20.0895C64.8612 20.0895 66.1148 19.4709 66.1148 17.4523V16.9128C63.5622 17.1825 61.9419 17.5639 61.9419 18.7407Z" fill="#F6F7F8"/>
  <path d="M72.528 13.9267C71.2291 13.9267 70.5819 14.6756 70.5819 16.55V21.0291H69.1743V12.4802H70.5502V13.9733C70.9666 13.0058 71.8175 12.4663 72.8991 12.4337C73.0395 12.4337 73.1617 12.4337 73.3155 12.4477V13.9872C73.0214 13.9593 72.7588 13.9267 72.528 13.9267Z" fill="#F6F7F8"/>
</svg>