<svg width="14" height="15" viewBox="0 0 14 15" fill="none" xmlns="http://www.w3.org/2000/svg">
<path d="M11.5909 3.62012H3.40909C3.18316 3.62012 3 3.78292 3 3.98375V12.1201C3 12.3209 3.18316 12.4838 3.40909 12.4838H11.5909C11.8168 12.4838 12 12.3209 12 12.1201V3.98375C12 3.78292 11.8168 3.62012 11.5909 3.62012Z" stroke="#A586FE" stroke-width="0.8" stroke-linecap="round" stroke-linejoin="round"/>
<path d="M10 2.62012V3.62012" stroke="#A586FE" stroke-width="0.8" stroke-linecap="round" stroke-linejoin="round"/>
<path d="M5 2.62012V3.62012" stroke="#A586FE" stroke-width="0.8" stroke-linecap="round" stroke-linejoin="round"/>
<path d="M3 5.62012H12" stroke="#A586FE" stroke-width="0.8" stroke-linecap="round" stroke-linejoin="round"/>
<path d="M7.5 8.62012C7.77614 8.62012 8 8.39626 8 8.12012C8 7.84397 7.77614 7.62012 7.5 7.62012C7.22386 7.62012 7 7.84397 7 8.12012C7 8.39626 7.22386 8.62012 7.5 8.62012Z" fill="#A586FE"/>
<path d="M9.5 8.62012C9.77614 8.62012 10 8.39626 10 8.12012C10 7.84397 9.77614 7.62012 9.5 7.62012C9.22386 7.62012 9 7.84397 9 8.12012C9 8.39626 9.22386 8.62012 9.5 8.62012Z" fill="#A586FE"/>
<path d="M5.5 10.6201C5.77614 10.6201 6 10.3963 6 10.1201C6 9.84397 5.77614 9.62012 5.5 9.62012C5.22386 9.62012 5 9.84397 5 10.1201C5 10.3963 5.22386 10.6201 5.5 10.6201Z" fill="#A586FE"/>
<path d="M7.5 10.6201C7.77614 10.6201 8 10.3963 8 10.1201C8 9.84397 7.77614 9.62012 7.5 9.62012C7.22386 9.62012 7 9.84397 7 10.1201C7 10.3963 7.22386 10.6201 7.5 10.6201Z" fill="#A586FE"/>
<path d="M9.5 10.6201C9.77614 10.6201 10 10.3963 10 10.1201C10 9.84397 9.77614 9.62012 9.5 9.62012C9.22386 9.62012 9 9.84397 9 10.1201C9 10.3963 9.22386 10.6201 9.5 10.6201Z" fill="#A586FE"/>
</svg>
