<svg width="30" height="29" viewBox="0 0 30 29" fill="none" xmlns="http://www.w3.org/2000/svg">
<g clip-path="url(#clip0_40_2181)">
<path fill-rule="evenodd" clip-rule="evenodd" d="M15.485 18.9933C15.2592 19.219 14.953 19.3458 14.6337 19.3458C14.3144 19.3458 14.0082 19.219 13.7825 18.9933L6.9711 12.1819C6.8561 12.0709 6.76437 11.938 6.70127 11.7911C6.63817 11.6442 6.60495 11.4862 6.60356 11.3263C6.60217 11.1665 6.63264 11.0079 6.69318 10.8599C6.75372 10.712 6.84312 10.5775 6.95618 10.4645C7.06923 10.3514 7.20366 10.262 7.35164 10.2015C7.49961 10.1409 7.65816 10.1105 7.81804 10.1119C7.97791 10.1133 8.13591 10.1465 8.28281 10.2096C8.42971 10.2727 8.56257 10.3644 8.67364 10.4794L14.6337 16.4395L20.5938 10.4794C20.8209 10.2601 21.125 10.1387 21.4407 10.1415C21.7564 10.1442 22.0584 10.2708 22.2817 10.4941C22.5049 10.7173 22.6315 11.0193 22.6343 11.335C22.637 11.6507 22.5157 11.9549 22.2963 12.1819L15.485 18.9933Z" fill="#CCD7FF"/>
</g>
<defs>
<clipPath id="clip0_40_2181">
<rect width="28.8974" height="28.8974" fill="white" transform="translate(0.185547 0.0810547)"/>
</clipPath>
</defs>
</svg>
