<svg xmlns="http://www.w3.org/2000/svg" width="20" height="20" viewBox="0 0 20 20" fill="none">
  <g clip-path="url(#clip0_154_3414)">
    <path opacity="0.2" d="M13.7499 7.55624V9.68749C13.7499 11.0937 11.4656 12.2539 8.47885 12.4656C9.56557 12.8773 10.9687 13.125 12.4999 13.125C15.9515 13.125 18.7499 11.8656 18.7499 10.3125C18.7499 8.95156 16.6031 7.81718 13.7499 7.55624Z" fill="#CECEFB" fill-opacity="0.25"/>
    <path opacity="0.2" d="M7.5 9.375C10.9518 9.375 13.75 8.1158 13.75 6.5625C13.75 5.0092 10.9518 3.75 7.5 3.75C4.04822 3.75 1.25 5.0092 1.25 6.5625C1.25 8.1158 4.04822 9.375 7.5 9.375Z" fill="#CECEFB" fill-opacity="0.25"/>
    <path d="M7.5 9.375C10.9518 9.375 13.75 8.1158 13.75 6.5625C13.75 5.0092 10.9518 3.75 7.5 3.75C4.04822 3.75 1.25 5.0092 1.25 6.5625C1.25 8.1158 4.04822 9.375 7.5 9.375Z" stroke="#CECEFB" stroke-opacity="0.25" stroke-width="1.25" stroke-linecap="round" stroke-linejoin="round"/>
    <path d="M1.25 6.5625V9.6875C1.25 11.2406 4.04844 12.5 7.5 12.5C10.9516 12.5 13.75 11.2406 13.75 9.6875V6.5625" stroke="#CECEFB" stroke-opacity="0.25" stroke-width="1.25" stroke-linecap="round" stroke-linejoin="round"/>
    <path d="M5 9.14062V12.2656" stroke="#CECEFB" stroke-opacity="0.25" stroke-width="1.25" stroke-linecap="round" stroke-linejoin="round"/>
    <path d="M13.7499 7.55624C16.6031 7.81718 18.7499 8.95156 18.7499 10.3125C18.7499 11.8656 15.9515 13.125 12.4999 13.125C10.9687 13.125 9.56557 12.8773 8.47885 12.4656" stroke="#CECEFB" stroke-opacity="0.25" stroke-width="1.25" stroke-linecap="round" stroke-linejoin="round"/>
    <path d="M6.25 12.4437V13.4375C6.25 14.9906 9.04844 16.25 12.5 16.25C15.9516 16.25 18.75 14.9906 18.75 13.4375V10.3125" stroke="#CECEFB" stroke-opacity="0.25" stroke-width="1.25" stroke-linecap="round" stroke-linejoin="round"/>
    <path d="M15 12.8906V16.0156" stroke="#CECEFB" stroke-opacity="0.25" stroke-width="1.25" stroke-linecap="round" stroke-linejoin="round"/>
    <path d="M10 9.14062V16.0156" stroke="#CECEFB" stroke-opacity="0.25" stroke-width="1.25" stroke-linecap="round" stroke-linejoin="round"/>
  </g>
  <defs>
    <clipPath id="clip0_154_3414">
      <rect width="20" height="20" fill="white"/>
    </clipPath>
  </defs>
</svg>