<svg width="20" height="20" viewBox="0 0 20 20" fill="none" xmlns="http://www.w3.org/2000/svg">
<g clip-path="url(#clip0_154_3406)">
<path opacity="0.2" d="M8.75 10.9156C8.2734 10.6404 7.90091 10.2157 7.6903 9.70726C7.4797 9.19881 7.44275 8.63508 7.58519 8.1035C7.72762 7.57192 8.04149 7.10219 8.4781 6.76717C8.91471 6.43214 9.44967 6.25055 10 6.25055C10.5503 6.25055 11.0853 6.43214 11.5219 6.76717C11.9585 7.10219 12.2724 7.57192 12.4148 8.1035C12.5573 8.63508 12.5203 9.19881 12.3097 9.70726C12.0991 10.2157 11.7266 10.6404 11.25 10.9156L12.5 13.75H7.5L8.75 10.9156Z" fill="#937ED6"/>
<path d="M10 17.5C14.1421 17.5 17.5 14.1421 17.5 10C17.5 5.85786 14.1421 2.5 10 2.5C5.85786 2.5 2.5 5.85786 2.5 10C2.5 14.1421 5.85786 17.5 10 17.5Z" stroke="#937ED6" stroke-width="1.25" stroke-linecap="round" stroke-linejoin="round"/>
<path d="M8.75 10.9156C8.2734 10.6404 7.90091 10.2157 7.6903 9.70726C7.4797 9.19881 7.44275 8.63508 7.58519 8.1035C7.72762 7.57192 8.04149 7.10219 8.4781 6.76717C8.91471 6.43214 9.44967 6.25055 10 6.25055C10.5503 6.25055 11.0853 6.43214 11.5219 6.76717C11.9585 7.10219 12.2724 7.57192 12.4148 8.1035C12.5573 8.63508 12.5203 9.19881 12.3097 9.70726C12.0991 10.2157 11.7266 10.6404 11.25 10.9156L12.5 13.75H7.5L8.75 10.9156Z" stroke="#937ED6" stroke-width="1.25" stroke-linecap="round" stroke-linejoin="round"/>
</g>
<defs>
<clipPath id="clip0_154_3406">
<rect width="20" height="20" fill="white"/>
</clipPath>
</defs>
</svg>
