<svg width="24" height="24" viewBox="0 0 24 24" fill="none" xmlns="http://www.w3.org/2000/svg">
<path fill-rule="evenodd" clip-rule="evenodd" d="M16.4698 4.46974C17.4531 3.48649 19.0472 3.48649 20.0305 4.46974C21.0137 5.45299 21.0137 7.04715 20.0305 8.0304L6.53052 21.5304C5.54727 22.5136 3.9531 22.5136 2.96985 21.5304C1.98661 20.5471 1.98661 18.9529 2.96986 17.9697L16.4698 4.46974ZM18.9698 5.5304C18.5724 5.13294 17.9279 5.13294 17.5305 5.5304L14.8108 8.25007L16.2501 9.68941L18.9698 6.96974C19.3673 6.57228 19.3673 5.92786 18.9698 5.5304ZM15.1895 10.7501L13.7501 9.31073L4.03052 19.0304C3.63305 19.4278 3.63305 20.0722 4.03051 20.4697C4.42798 20.8672 5.07239 20.8672 5.46986 20.4697L15.1895 10.7501Z" fill="#E5E5F9"/>
<path d="M9.35009 3.07467C9.44685 3.02628 9.52531 2.94782 9.57369 2.85106L10.0519 1.89456C10.2362 1.52603 10.7621 1.52603 10.9464 1.89456L11.4246 2.85106C11.473 2.94782 11.5515 3.02628 11.6483 3.07467L12.6048 3.55292C12.9733 3.73718 12.9733 4.26308 12.6048 4.44734L11.6483 4.92559C11.5515 4.97398 11.473 5.05244 11.4246 5.1492L10.9464 6.1057C10.7621 6.47423 10.2362 6.47423 10.0519 6.1057L9.57369 5.1492C9.52531 5.05244 9.44685 4.97398 9.35009 4.92559L8.39358 4.44734C8.02505 4.26308 8.02505 3.73718 8.39358 3.55292L9.35009 3.07467Z" fill="#E5E5F9"/>
<path d="M18.3501 14.0747C18.4469 14.0263 18.5254 13.9478 18.5737 13.8511L19.052 12.8946C19.2362 12.526 19.7622 12.526 19.9464 12.8946L20.4247 13.8511C20.473 13.9478 20.5515 14.0263 20.6483 14.0747L21.6048 14.5529C21.9733 14.7372 21.9733 15.2631 21.6048 15.4473L20.6483 15.9256C20.5515 15.974 20.473 16.0524 20.4247 16.1492L19.9464 17.1057C19.7622 17.4742 19.2362 17.4742 19.052 17.1057L18.5737 16.1492C18.5254 16.0524 18.4469 15.974 18.3501 15.9256L17.3936 15.4473C17.0251 15.2631 17.0251 14.7372 17.3936 14.5529L18.3501 14.0747Z" fill="#E5E5F9"/>
<path d="M4.35008 8.07467C4.44684 8.02628 4.52531 7.94782 4.57369 7.85106L5.05193 6.89456C5.2362 6.52603 5.76211 6.52603 5.94637 6.89456L6.42462 7.85106C6.473 7.94782 6.55147 8.02628 6.64823 8.07467L7.60472 8.55292C7.97325 8.73718 7.97325 9.26308 7.60472 9.44734L6.64823 9.92559C6.55147 9.97398 6.473 10.0524 6.42462 10.1492L5.94637 11.1057C5.76211 11.4742 5.2362 11.4742 5.05193 11.1057L4.57369 10.1492C4.52531 10.0524 4.44684 9.97398 4.35008 9.92559L3.39358 9.44734C3.02505 9.26308 3.02505 8.73718 3.39358 8.55292L4.35008 8.07467Z" fill="#E5E5F9"/>
</svg>
