<svg xmlns="http://www.w3.org/2000/svg" width="17" height="17" viewBox="0 0 17 17" fill="none">
  <path d="M14.3438 4.78125H3.71875C3.57785 4.78125 3.44273 4.72528 3.3431 4.62565C3.24347 4.52602 3.1875 4.3909 3.1875 4.25C3.1875 4.1091 3.24347 3.97398 3.3431 3.87435C3.44273 3.77472 3.57785 3.71875 3.71875 3.71875H12.75C12.8909 3.71875 13.026 3.66278 13.1257 3.56315C13.2253 3.46352 13.2812 3.3284 13.2812 3.1875C13.2812 3.0466 13.2253 2.91148 13.1257 2.81185C13.026 2.71222 12.8909 2.65625 12.75 2.65625H3.71875C3.29606 2.65625 2.89068 2.82416 2.5918 3.12305C2.29291 3.42193 2.125 3.82731 2.125 4.25V12.75C2.125 13.1727 2.29291 13.5781 2.5918 13.877C2.89068 14.1758 3.29606 14.3438 3.71875 14.3438H14.3438C14.6255 14.3438 14.8958 14.2318 15.0951 14.0326C15.2943 13.8333 15.4062 13.563 15.4062 13.2812V5.84375C15.4062 5.56196 15.2943 5.29171 15.0951 5.09245C14.8958 4.89319 14.6255 4.78125 14.3438 4.78125ZM11.9531 10.0938C11.7955 10.0938 11.6415 10.047 11.5104 9.95945C11.3794 9.87189 11.2772 9.74744 11.2169 9.60183C11.1566 9.45622 11.1408 9.29599 11.1716 9.14141C11.2023 8.98683 11.2782 8.84484 11.3896 8.7334C11.5011 8.62195 11.6431 8.54606 11.7977 8.51531C11.9522 8.48456 12.1125 8.50035 12.2581 8.56066C12.4037 8.62097 12.5281 8.72311 12.6157 8.85416C12.7033 8.9852 12.75 9.13927 12.75 9.29688C12.75 9.50822 12.666 9.71091 12.5166 9.86035C12.3672 10.0098 12.1645 10.0938 11.9531 10.0938Z" fill="#CECEFB"/>
</svg>