<svg width="256" height="177" viewBox="0 0 256 177" fill="none" xmlns="http://www.w3.org/2000/svg">
<g clip-path="url(#clip0_16_196)">
<path d="M108 96.8H100C97.7909 96.8 96 95.0092 96 92.8V84.8C96 82.5909 97.7909 80.8 100 80.8H108C110.209 80.8 112 82.5909 112 84.8V92.8C112 95.0092 110.209 96.8 108 96.8Z" fill="url(#paint0_linear_16_196)" fill-opacity="0.06"/>
<path d="M108 96.3H100C98.067 96.3 96.5 94.733 96.5 92.8V84.8C96.5 82.8671 98.067 81.3 100 81.3H108C109.933 81.3 111.5 82.8671 111.5 84.8V92.8C111.5 94.733 109.933 96.3 108 96.3Z" stroke="url(#paint1_linear_16_196)" stroke-opacity="0.08"/>
<path d="M140 80.8H132C129.791 80.8 128 79.0092 128 76.8V68.8C128 66.5909 129.791 64.8 132 64.8H140C142.209 64.8 144 66.5909 144 68.8V76.8C144 79.0092 142.209 80.8 140 80.8Z" fill="#CECEFB" fill-opacity="0.04"/>
<path d="M140 80.3H132C130.067 80.3 128.5 78.733 128.5 76.8V68.8C128.5 66.8671 130.067 65.3 132 65.3H140C141.933 65.3 143.5 66.8671 143.5 68.8V76.8C143.5 78.733 141.933 80.3 140 80.3Z" stroke="#CECEFB" stroke-opacity="0.06"/>
<path d="M156 96.3H148C146.067 96.3 144.5 94.733 144.5 92.8V84.8C144.5 82.8671 146.067 81.3 148 81.3H156C157.933 81.3 159.5 82.8671 159.5 84.8V92.8C159.5 94.733 157.933 96.3 156 96.3Z" stroke="#CECEFB" stroke-opacity="0.06"/>
<path d="M172 112.3H164C162.067 112.3 160.5 110.733 160.5 108.8V100.8C160.5 98.8671 162.067 97.3 164 97.3H172C173.933 97.3 175.5 98.8671 175.5 100.8V108.8C175.5 110.733 173.933 112.3 172 112.3Z" stroke="#CECEFB" stroke-opacity="0.06"/>
<path d="M204 112.8H196C193.791 112.8 192 111.009 192 108.8V100.8C192 98.5909 193.791 96.8 196 96.8H204C206.209 96.8 208 98.5909 208 100.8V108.8C208 111.009 206.209 112.8 204 112.8Z" fill="#CECEFB" fill-opacity="0.04"/>
<path d="M204 112.3H196C194.067 112.3 192.5 110.733 192.5 108.8V100.8C192.5 98.8671 194.067 97.3 196 97.3H204C205.933 97.3 207.5 98.8671 207.5 100.8V108.8C207.5 110.733 205.933 112.3 204 112.3Z" stroke="#CECEFB" stroke-opacity="0.06"/>
<path d="M124 128.3H116C114.067 128.3 112.5 126.733 112.5 124.8V116.8C112.5 114.867 114.067 113.3 116 113.3H124C125.933 113.3 127.5 114.867 127.5 116.8V124.8C127.5 126.733 125.933 128.3 124 128.3Z" stroke="#CECEFB" stroke-opacity="0.06"/>
<path d="M140 144.8H132C129.791 144.8 128 143.009 128 140.8V132.8C128 130.591 129.791 128.8 132 128.8H140C142.209 128.8 144 130.591 144 132.8V140.8C144 143.009 142.209 144.8 140 144.8Z" fill="url(#paint2_linear_16_196)" fill-opacity="0.06"/>
<path d="M140 144.3H132C130.067 144.3 128.5 142.733 128.5 140.8V132.8C128.5 130.867 130.067 129.3 132 129.3H140C141.933 129.3 143.5 130.867 143.5 132.8V140.8C143.5 142.733 141.933 144.3 140 144.3Z" stroke="url(#paint3_linear_16_196)" stroke-opacity="0.08"/>
<path d="M156 160.3H148C146.067 160.3 144.5 158.733 144.5 156.8V148.8C144.5 146.867 146.067 145.3 148 145.3H156C157.933 145.3 159.5 146.867 159.5 148.8V156.8C159.5 158.733 157.933 160.3 156 160.3Z" stroke="#CECEFB" stroke-opacity="0.06"/>
<path d="M140 176.3H132C130.067 176.3 128.5 174.733 128.5 172.8V164.8C128.5 162.867 130.067 161.3 132 161.3H140C141.933 161.3 143.5 162.867 143.5 164.8V172.8C143.5 174.733 141.933 176.3 140 176.3Z" stroke="#CECEFB" stroke-opacity="0.06"/>
<path d="M108 144.3H100C98.067 144.3 96.5 142.733 96.5 140.8V132.8C96.5 130.867 98.067 129.3 100 129.3H108C109.933 129.3 111.5 130.867 111.5 132.8V140.8C111.5 142.733 109.933 144.3 108 144.3Z" stroke="#CECEFB" stroke-opacity="0.06"/>
<path d="M124 160.3H116C114.067 160.3 112.5 158.733 112.5 156.8V148.8C112.5 146.867 114.067 145.3 116 145.3H124C125.933 145.3 127.5 146.867 127.5 148.8V156.8C127.5 158.733 125.933 160.3 124 160.3Z" stroke="#CECEFB" stroke-opacity="0.06"/>
<path d="M156 64.3H148C146.067 64.3 144.5 62.733 144.5 60.8V52.8C144.5 50.8671 146.067 49.3 148 49.3H156C157.933 49.3 159.5 50.8671 159.5 52.8V60.8C159.5 62.733 157.933 64.3 156 64.3Z" stroke="#CECEFB" stroke-opacity="0.06"/>
<path d="M108 64.3H100C98.067 64.3 96.5 62.733 96.5 60.8V52.8C96.5 50.8671 98.067 49.3 100 49.3H108C109.933 49.3 111.5 50.8671 111.5 52.8V60.8C111.5 62.733 109.933 64.3 108 64.3Z" stroke="#CECEFB" stroke-opacity="0.06"/>
<path d="M76 64.3H68C66.067 64.3 64.5 62.733 64.5 60.8V52.8C64.5 50.8671 66.067 49.3 68 49.3H76C77.933 49.3 79.5 50.8671 79.5 52.8V60.8C79.5 62.733 77.933 64.3 76 64.3Z" stroke="#CECEFB" stroke-opacity="0.06"/>
<path d="M60 48.3H52C50.067 48.3 48.5 46.733 48.5 44.8V36.8C48.5 34.8671 50.067 33.3 52 33.3H60C61.933 33.3 63.5 34.8671 63.5 36.8V44.8C63.5 46.733 61.933 48.3 60 48.3Z" stroke="#CECEFB" stroke-opacity="0.06"/>
<path d="M44 96.3H36C34.067 96.3 32.5 94.733 32.5 92.8V84.8C32.5 82.8671 34.067 81.3 36 81.3H44C45.933 81.3 47.5 82.8671 47.5 84.8V92.8C47.5 94.733 45.933 96.3 44 96.3Z" stroke="#CECEFB" stroke-opacity="0.06"/>
<path d="M60 112.8H52C49.7909 112.8 48 111.009 48 108.8V100.8C48 98.5909 49.7909 96.8 52 96.8H60C62.2091 96.8 64 98.5909 64 100.8V108.8C64 111.009 62.2091 112.8 60 112.8Z" fill="#CECEFB" fill-opacity="0.04"/>
<path d="M60 112.3H52C50.067 112.3 48.5 110.733 48.5 108.8V100.8C48.5 98.8671 50.067 97.3 52 97.3H60C61.933 97.3 63.5 98.8671 63.5 100.8V108.8C63.5 110.733 61.933 112.3 60 112.3Z" stroke="#CECEFB" stroke-opacity="0.06"/>
<path d="M76 128.3H68C66.067 128.3 64.5 126.733 64.5 124.8V116.8C64.5 114.867 66.067 113.3 68 113.3H76C77.933 113.3 79.5 114.867 79.5 116.8V124.8C79.5 126.733 77.933 128.3 76 128.3Z" stroke="#CECEFB" stroke-opacity="0.06"/>
<path d="M12 96.3H4C2.067 96.3 0.5 94.733 0.5 92.8V84.8C0.5 82.8671 2.067 81.3 4 81.3H12C13.933 81.3 15.5 82.8671 15.5 84.8V92.8C15.5 94.733 13.933 96.3 12 96.3Z" stroke="#CECEFB" stroke-opacity="0.06"/>
<path d="M188 64.3H180C178.067 64.3 176.5 62.733 176.5 60.8V52.8C176.5 50.8671 178.067 49.3 180 49.3H188C189.933 49.3 191.5 50.8671 191.5 52.8V60.8C191.5 62.733 189.933 64.3 188 64.3Z" stroke="#CECEFB" stroke-opacity="0.06"/>
<path d="M220 64.8H212C209.791 64.8 208 63.0092 208 60.8V52.8C208 50.5909 209.791 48.8 212 48.8H220C222.209 48.8 224 50.5909 224 52.8V60.8C224 63.0092 222.209 64.8 220 64.8Z" fill="url(#paint4_linear_16_196)" fill-opacity="0.06"/>
<path d="M220 64.3H212C210.067 64.3 208.5 62.733 208.5 60.8V52.8C208.5 50.8671 210.067 49.3 212 49.3H220C221.933 49.3 223.5 50.8671 223.5 52.8V60.8C223.5 62.733 221.933 64.3 220 64.3Z" stroke="url(#paint5_linear_16_196)" stroke-opacity="0.08"/>
<path d="M204 48.3H196C194.067 48.3 192.5 46.733 192.5 44.8V36.8C192.5 34.8671 194.067 33.3 196 33.3H204C205.933 33.3 207.5 34.8671 207.5 36.8V44.8C207.5 46.733 205.933 48.3 204 48.3Z" stroke="#CECEFB" stroke-opacity="0.06"/>
<path d="M188 32.8H180C177.791 32.8 176 31.0092 176 28.8V20.8C176 18.5909 177.791 16.8 180 16.8H188C190.209 16.8 192 18.5909 192 20.8V28.8C192 31.0092 190.209 32.8 188 32.8Z" fill="#CECEFB" fill-opacity="0.04"/>
<path d="M188 32.3H180C178.067 32.3 176.5 30.733 176.5 28.8V20.8C176.5 18.8671 178.067 17.3 180 17.3H188C189.933 17.3 191.5 18.8671 191.5 20.8V28.8C191.5 30.733 189.933 32.3 188 32.3Z" stroke="#CECEFB" stroke-opacity="0.06"/>
<path d="M172 16.3H164C162.067 16.3 160.5 14.733 160.5 12.8V4.80005C160.5 2.86705 162.067 1.30005 164 1.30005H172C173.933 1.30005 175.5 2.86705 175.5 4.80005V12.8C175.5 14.733 173.933 16.3 172 16.3Z" stroke="#CECEFB" stroke-opacity="0.06"/>
<path d="M252 64.3H244C242.067 64.3 240.5 62.733 240.5 60.8V52.8C240.5 50.8671 242.067 49.3 244 49.3H252C253.933 49.3 255.5 50.8671 255.5 52.8V60.8C255.5 62.733 253.933 64.3 252 64.3Z" stroke="#CECEFB" stroke-opacity="0.06"/>
<path d="M140 48.3H132C130.067 48.3 128.5 46.733 128.5 44.8V36.8C128.5 34.8671 130.067 33.3 132 33.3H140C141.933 33.3 143.5 34.8671 143.5 36.8V44.8C143.5 46.733 141.933 48.3 140 48.3Z" stroke="#CECEFB" stroke-opacity="0.06"/>
<path d="M124 32.3H116C114.067 32.3 112.5 30.733 112.5 28.8V20.8C112.5 18.8671 114.067 17.3 116 17.3H124C125.933 17.3 127.5 18.8671 127.5 20.8V28.8C127.5 30.733 125.933 32.3 124 32.3Z" stroke="#CECEFB" stroke-opacity="0.06"/>
<path d="M108 16.8H100C97.7909 16.8 96 15.0092 96 12.8V4.80005C96 2.59091 97.7909 0.800049 100 0.800049H108C110.209 0.800049 112 2.59091 112 4.80005V12.8C112 15.0092 110.209 16.8 108 16.8Z" fill="url(#paint6_linear_16_196)" fill-opacity="0.06"/>
<path d="M108 16.3H100C98.067 16.3 96.5 14.733 96.5 12.8V4.80005C96.5 2.86705 98.067 1.30005 100 1.30005H108C109.933 1.30005 111.5 2.86705 111.5 4.80005V12.8C111.5 14.733 109.933 16.3 108 16.3Z" stroke="url(#paint7_linear_16_196)" stroke-opacity="0.08"/>
</g>
<defs>
<linearGradient id="paint0_linear_16_196" x1="96" y1="96.8" x2="112" y2="80.8" gradientUnits="userSpaceOnUse">
<stop offset="0.005" stop-color="#8A43FF"/>
<stop offset="1" stop-color="#FFA2F6"/>
</linearGradient>
<linearGradient id="paint1_linear_16_196" x1="96" y1="95.8" x2="112" y2="79.8" gradientUnits="userSpaceOnUse">
<stop offset="0.005" stop-color="#8A43FF"/>
<stop offset="1" stop-color="#FFA2F6"/>
</linearGradient>
<linearGradient id="paint2_linear_16_196" x1="128" y1="144.8" x2="144" y2="128.8" gradientUnits="userSpaceOnUse">
<stop offset="0.005" stop-color="#8A43FF"/>
<stop offset="1" stop-color="#FFA2F6"/>
</linearGradient>
<linearGradient id="paint3_linear_16_196" x1="128" y1="143.8" x2="144" y2="127.8" gradientUnits="userSpaceOnUse">
<stop offset="0.005" stop-color="#8A43FF"/>
<stop offset="1" stop-color="#FFA2F6"/>
</linearGradient>
<linearGradient id="paint4_linear_16_196" x1="208" y1="64.8" x2="224" y2="48.8" gradientUnits="userSpaceOnUse">
<stop offset="0.005" stop-color="#8A43FF"/>
<stop offset="1" stop-color="#FFA2F6"/>
</linearGradient>
<linearGradient id="paint5_linear_16_196" x1="208" y1="63.8" x2="224" y2="47.8" gradientUnits="userSpaceOnUse">
<stop offset="0.005" stop-color="#8A43FF"/>
<stop offset="1" stop-color="#FFA2F6"/>
</linearGradient>
<linearGradient id="paint6_linear_16_196" x1="96" y1="16.8" x2="112" y2="0.800049" gradientUnits="userSpaceOnUse">
<stop offset="0.005" stop-color="#8A43FF"/>
<stop offset="1" stop-color="#FFA2F6"/>
</linearGradient>
<linearGradient id="paint7_linear_16_196" x1="96" y1="15.8" x2="112" y2="-0.199951" gradientUnits="userSpaceOnUse">
<stop offset="0.005" stop-color="#8A43FF"/>
<stop offset="1" stop-color="#FFA2F6"/>
</linearGradient>
<clipPath id="clip0_16_196">
<rect width="256" height="176" fill="white" transform="translate(0 0.800049)"/>
</clipPath>
</defs>
</svg>
