<svg width="288" height="256" viewBox="0 0 288 256" fill="none" xmlns="http://www.w3.org/2000/svg">
<g clip-path="url(#clip0_16_235)">
<path d="M140 145.5H132C130.067 145.5 128.5 147.067 128.5 149V157C128.5 158.933 130.067 160.5 132 160.5H140C141.933 160.5 143.5 158.933 143.5 157V149C143.5 147.067 141.933 145.5 140 145.5Z" stroke="#CECEFB" stroke-opacity="0.08"/>
<path d="M156 129H148C145.791 129 144 130.791 144 133V141C144 143.209 145.791 145 148 145H156C158.209 145 160 143.209 160 141V133C160 130.791 158.209 129 156 129Z" fill="url(#paint0_linear_16_235)" fill-opacity="0.08"/>
<path d="M156 129.5H148C146.067 129.5 144.5 131.067 144.5 133V141C144.5 142.933 146.067 144.5 148 144.5H156C157.933 144.5 159.5 142.933 159.5 141V133C159.5 131.067 157.933 129.5 156 129.5Z" stroke="url(#paint1_linear_16_235)" stroke-opacity="0.12"/>
<path d="M188 160.5H180C178.067 160.5 176.5 162.067 176.5 164V172C176.5 173.933 178.067 175.5 180 175.5H188C189.933 175.5 191.5 173.933 191.5 172V164C191.5 162.067 189.933 160.5 188 160.5Z" stroke="#CECEFB" stroke-opacity="0.08"/>
<path d="M204 144.5H196C194.067 144.5 192.5 146.067 192.5 148V156C192.5 157.933 194.067 159.5 196 159.5H204C205.933 159.5 207.5 157.933 207.5 156V148C207.5 146.067 205.933 144.5 204 144.5Z" stroke="#CECEFB" stroke-opacity="0.08"/>
<path d="M236 144H228C225.791 144 224 145.791 224 148V156C224 158.209 225.791 160 228 160H236C238.209 160 240 158.209 240 156V148C240 145.791 238.209 144 236 144Z" fill="#CECEFB" fill-opacity="0.04"/>
<path d="M236 144.5H228C226.067 144.5 224.5 146.067 224.5 148V156C224.5 157.933 226.067 159.5 228 159.5H236C237.933 159.5 239.5 157.933 239.5 156V148C239.5 146.067 237.933 144.5 236 144.5Z" stroke="#CECEFB" stroke-opacity="0.08"/>
<path d="M220 128.5H212C210.067 128.5 208.5 130.067 208.5 132V140C208.5 141.933 210.067 143.5 212 143.5H220C221.933 143.5 223.5 141.933 223.5 140V132C223.5 130.067 221.933 128.5 220 128.5Z" stroke="#CECEFB" stroke-opacity="0.08"/>
<path d="M204 112H196C193.791 112 192 113.791 192 116V124C192 126.209 193.791 128 196 128H204C206.209 128 208 126.209 208 124V116C208 113.791 206.209 112 204 112Z" fill="url(#paint2_linear_16_235)" fill-opacity="0.08"/>
<path d="M204 112.5H196C194.067 112.5 192.5 114.067 192.5 116V124C192.5 125.933 194.067 127.5 196 127.5H204C205.933 127.5 207.5 125.933 207.5 124V116C207.5 114.067 205.933 112.5 204 112.5Z" stroke="url(#paint3_linear_16_235)" stroke-opacity="0.12"/>
<path d="M188 96.5H180C178.067 96.5 176.5 98.067 176.5 100V108C176.5 109.933 178.067 111.5 180 111.5H188C189.933 111.5 191.5 109.933 191.5 108V100C191.5 98.067 189.933 96.5 188 96.5Z" stroke="#CECEFB" stroke-opacity="0.08"/>
<path d="M172 80.5H164C162.067 80.5 160.5 82.067 160.5 84V92C160.5 93.933 162.067 95.5 164 95.5H172C173.933 95.5 175.5 93.933 175.5 92V84C175.5 82.067 173.933 80.5 172 80.5Z" stroke="#CECEFB" stroke-opacity="0.08"/>
<path d="M108 80.5H100C98.067 80.5 96.5 82.067 96.5 84V92C96.5 93.933 98.067 95.5 100 95.5H108C109.933 95.5 111.5 93.933 111.5 92V84C111.5 82.067 109.933 80.5 108 80.5Z" stroke="#CECEFB" stroke-opacity="0.08"/>
<path d="M124 64.5H116C114.067 64.5 112.5 66.067 112.5 68V76C112.5 77.933 114.067 79.5 116 79.5H124C125.933 79.5 127.5 77.933 127.5 76V68C127.5 66.067 125.933 64.5 124 64.5Z" stroke="#CECEFB" stroke-opacity="0.08"/>
<path d="M60 96.5H52C50.067 96.5 48.5 98.067 48.5 100V108C48.5 109.933 50.067 111.5 52 111.5H60C61.933 111.5 63.5 109.933 63.5 108V100C63.5 98.067 61.933 96.5 60 96.5Z" stroke="#CECEFB" stroke-opacity="0.08"/>
<path d="M76 48H68C65.7909 48 64 49.7909 64 52V60C64 62.2091 65.7909 64 68 64H76C78.2091 64 80 62.2091 80 60V52C80 49.7909 78.2091 48 76 48Z" fill="url(#paint4_linear_16_235)" fill-opacity="0.08"/>
<path d="M76 48.5H68C66.067 48.5 64.5 50.067 64.5 52V60C64.5 61.933 66.067 63.5 68 63.5H76C77.933 63.5 79.5 61.933 79.5 60V52C79.5 50.067 77.933 48.5 76 48.5Z" stroke="url(#paint5_linear_16_235)" stroke-opacity="0.12"/>
<path d="M60 32.5H52C50.067 32.5 48.5 34.067 48.5 36V44C48.5 45.933 50.067 47.5 52 47.5H60C61.933 47.5 63.5 45.933 63.5 44V36C63.5 34.067 61.933 32.5 60 32.5Z" stroke="#CECEFB" stroke-opacity="0.08"/>
<path d="M12 48.5H4C2.067 48.5 0.5 50.067 0.5 52V60C0.5 61.933 2.067 63.5 4 63.5H12C13.933 63.5 15.5 61.933 15.5 60V52C15.5 50.067 13.933 48.5 12 48.5Z" stroke="#CECEFB" stroke-opacity="0.08"/>
<path d="M28 0.5H20C18.067 0.5 16.5 2.067 16.5 4V12C16.5 13.933 18.067 15.5 20 15.5H28C29.933 15.5 31.5 13.933 31.5 12V4C31.5 2.067 29.933 0.5 28 0.5Z" stroke="#CECEFB" stroke-opacity="0.08"/>
<path d="M236 112.5H228C226.067 112.5 224.5 114.067 224.5 116V124C224.5 125.933 226.067 127.5 228 127.5H236C237.933 127.5 239.5 125.933 239.5 124V116C239.5 114.067 237.933 112.5 236 112.5Z" stroke="#CECEFB" stroke-opacity="0.08"/>
<path d="M252 96.5H244C242.067 96.5 240.5 98.067 240.5 100V108C240.5 109.933 242.067 111.5 244 111.5H252C253.933 111.5 255.5 109.933 255.5 108V100C255.5 98.067 253.933 96.5 252 96.5Z" stroke="#CECEFB" stroke-opacity="0.08"/>
<path d="M204 176.5H196C194.067 176.5 192.5 178.067 192.5 180V188C192.5 189.933 194.067 191.5 196 191.5H204C205.933 191.5 207.5 189.933 207.5 188V180C207.5 178.067 205.933 176.5 204 176.5Z" stroke="#CECEFB" stroke-opacity="0.08"/>
<path d="M140 192.5H132C130.067 192.5 128.5 194.067 128.5 196V204C128.5 205.933 130.067 207.5 132 207.5H140C141.933 207.5 143.5 205.933 143.5 204V196C143.5 194.067 141.933 192.5 140 192.5Z" stroke="#CECEFB" stroke-opacity="0.08"/>
<path d="M108 176.5H100C98.067 176.5 96.5 178.067 96.5 180V188C96.5 189.933 98.067 191.5 100 191.5H108C109.933 191.5 111.5 189.933 111.5 188V180C111.5 178.067 109.933 176.5 108 176.5Z" stroke="#CECEFB" stroke-opacity="0.08"/>
<path d="M28 160.5H20C18.067 160.5 16.5 162.067 16.5 164V172C16.5 173.933 18.067 175.5 20 175.5H28C29.933 175.5 31.5 173.933 31.5 172V164C31.5 162.067 29.933 160.5 28 160.5Z" stroke="#CECEFB" stroke-opacity="0.08"/>
<path d="M76 176.5H68C66.067 176.5 64.5 178.067 64.5 180V188C64.5 189.933 66.067 191.5 68 191.5H76C77.933 191.5 79.5 189.933 79.5 188V180C79.5 178.067 77.933 176.5 76 176.5Z" stroke="#CECEFB" stroke-opacity="0.08"/>
<path d="M60 160.5H52C50.067 160.5 48.5 162.067 48.5 164V172C48.5 173.933 50.067 175.5 52 175.5H60C61.933 175.5 63.5 173.933 63.5 172V164C63.5 162.067 61.933 160.5 60 160.5Z" stroke="#CECEFB" stroke-opacity="0.08"/>
<path d="M76 128.5H68C66.067 128.5 64.5 130.067 64.5 132V140C64.5 141.933 66.067 143.5 68 143.5H76C77.933 143.5 79.5 141.933 79.5 140V132C79.5 130.067 77.933 128.5 76 128.5Z" stroke="#CECEFB" stroke-opacity="0.08"/>
<path d="M92 144H84C81.7909 144 80 145.791 80 148V156C80 158.209 81.7909 160 84 160H92C94.2091 160 96 158.209 96 156V148C96 145.791 94.2091 144 92 144Z" fill="url(#paint6_linear_16_235)" fill-opacity="0.08"/>
<path d="M92 144.5H84C82.067 144.5 80.5 146.067 80.5 148V156C80.5 157.933 82.067 159.5 84 159.5H92C93.933 159.5 95.5 157.933 95.5 156V148C95.5 146.067 93.933 144.5 92 144.5Z" stroke="url(#paint7_linear_16_235)" stroke-opacity="0.12"/>
<path d="M108 128.5H100C98.067 128.5 96.5 130.067 96.5 132V140C96.5 141.933 98.067 143.5 100 143.5H108C109.933 143.5 111.5 141.933 111.5 140V132C111.5 130.067 109.933 128.5 108 128.5Z" stroke="#CECEFB" stroke-opacity="0.08"/>
<path d="M44 112.5H36C34.067 112.5 32.5 114.067 32.5 116V124C32.5 125.933 34.067 127.5 36 127.5H44C45.933 127.5 47.5 125.933 47.5 124V116C47.5 114.067 45.933 112.5 44 112.5Z" stroke="#CECEFB" stroke-opacity="0.08"/>
<path d="M220 192.5H212C210.067 192.5 208.5 194.067 208.5 196V204C208.5 205.933 210.067 207.5 212 207.5H220C221.933 207.5 223.5 205.933 223.5 204V196C223.5 194.067 221.933 192.5 220 192.5Z" stroke="#CECEFB" stroke-opacity="0.08"/>
<path d="M252 192H244C241.791 192 240 193.791 240 196V204C240 206.209 241.791 208 244 208H252C254.209 208 256 206.209 256 204V196C256 193.791 254.209 192 252 192Z" fill="#CECEFB" fill-opacity="0.04"/>
<path d="M252 192.5H244C242.067 192.5 240.5 194.067 240.5 196V204C240.5 205.933 242.067 207.5 244 207.5H252C253.933 207.5 255.5 205.933 255.5 204V196C255.5 194.067 253.933 192.5 252 192.5Z" stroke="#CECEFB" stroke-opacity="0.08"/>
<path d="M236 208.5H228C226.067 208.5 224.5 210.067 224.5 212V220C224.5 221.933 226.067 223.5 228 223.5H236C237.933 223.5 239.5 221.933 239.5 220V212C239.5 210.067 237.933 208.5 236 208.5Z" stroke="#CECEFB" stroke-opacity="0.08"/>
<path d="M220 224H212C209.791 224 208 225.791 208 228V236C208 238.209 209.791 240 212 240H220C222.209 240 224 238.209 224 236V228C224 225.791 222.209 224 220 224Z" fill="url(#paint8_linear_16_235)" fill-opacity="0.08"/>
<path d="M220 224.5H212C210.067 224.5 208.5 226.067 208.5 228V236C208.5 237.933 210.067 239.5 212 239.5H220C221.933 239.5 223.5 237.933 223.5 236V228C223.5 226.067 221.933 224.5 220 224.5Z" stroke="url(#paint9_linear_16_235)" stroke-opacity="0.12"/>
<path d="M204 240.5H196C194.067 240.5 192.5 242.067 192.5 244V252C192.5 253.933 194.067 255.5 196 255.5H204C205.933 255.5 207.5 253.933 207.5 252V244C207.5 242.067 205.933 240.5 204 240.5Z" stroke="#CECEFB" stroke-opacity="0.08"/>
<path d="M284 192.5H276C274.067 192.5 272.5 194.067 272.5 196V204C272.5 205.933 274.067 207.5 276 207.5H284C285.933 207.5 287.5 205.933 287.5 204V196C287.5 194.067 285.933 192.5 284 192.5Z" stroke="#CECEFB" stroke-opacity="0.08"/>
<path d="M172 208.5H164C162.067 208.5 160.5 210.067 160.5 212V220C160.5 221.933 162.067 223.5 164 223.5H172C173.933 223.5 175.5 221.933 175.5 220V212C175.5 210.067 173.933 208.5 172 208.5Z" stroke="#CECEFB" stroke-opacity="0.08"/>
<path d="M156 224.5H148C146.067 224.5 144.5 226.067 144.5 228V236C144.5 237.933 146.067 239.5 148 239.5H156C157.933 239.5 159.5 237.933 159.5 236V228C159.5 226.067 157.933 224.5 156 224.5Z" stroke="#CECEFB" stroke-opacity="0.08"/>
<path d="M140 240H132C129.791 240 128 241.791 128 244V252C128 254.209 129.791 256 132 256H140C142.209 256 144 254.209 144 252V244C144 241.791 142.209 240 140 240Z" fill="#CECEFB" fill-opacity="0.04"/>
<path d="M140 240.5H132C130.067 240.5 128.5 242.067 128.5 244V252C128.5 253.933 130.067 255.5 132 255.5H140C141.933 255.5 143.5 253.933 143.5 252V244C143.5 242.067 141.933 240.5 140 240.5Z" stroke="#CECEFB" stroke-opacity="0.08"/>
</g>
<defs>
<linearGradient id="paint0_linear_16_235" x1="144" y1="129" x2="160" y2="145" gradientUnits="userSpaceOnUse">
<stop offset="0.005" stop-color="#8A43FF"/>
<stop offset="1" stop-color="#FFA2F6"/>
</linearGradient>
<linearGradient id="paint1_linear_16_235" x1="144" y1="129" x2="160" y2="145" gradientUnits="userSpaceOnUse">
<stop offset="0.005" stop-color="#8A43FF"/>
<stop offset="1" stop-color="#FFA2F6"/>
</linearGradient>
<linearGradient id="paint2_linear_16_235" x1="192" y1="112" x2="208" y2="128" gradientUnits="userSpaceOnUse">
<stop offset="0.005" stop-color="#8A43FF"/>
<stop offset="1" stop-color="#FFA2F6"/>
</linearGradient>
<linearGradient id="paint3_linear_16_235" x1="192" y1="112" x2="208" y2="128" gradientUnits="userSpaceOnUse">
<stop offset="0.005" stop-color="#8A43FF"/>
<stop offset="1" stop-color="#FFA2F6"/>
</linearGradient>
<linearGradient id="paint4_linear_16_235" x1="64" y1="48" x2="80" y2="64" gradientUnits="userSpaceOnUse">
<stop offset="0.005" stop-color="#8A43FF"/>
<stop offset="1" stop-color="#FFA2F6"/>
</linearGradient>
<linearGradient id="paint5_linear_16_235" x1="64" y1="48" x2="80" y2="64" gradientUnits="userSpaceOnUse">
<stop offset="0.005" stop-color="#8A43FF"/>
<stop offset="1" stop-color="#FFA2F6"/>
</linearGradient>
<linearGradient id="paint6_linear_16_235" x1="80" y1="144" x2="96" y2="160" gradientUnits="userSpaceOnUse">
<stop offset="0.005" stop-color="#8A43FF"/>
<stop offset="1" stop-color="#FFA2F6"/>
</linearGradient>
<linearGradient id="paint7_linear_16_235" x1="80" y1="144" x2="96" y2="160" gradientUnits="userSpaceOnUse">
<stop offset="0.005" stop-color="#8A43FF"/>
<stop offset="1" stop-color="#FFA2F6"/>
</linearGradient>
<linearGradient id="paint8_linear_16_235" x1="208" y1="224" x2="224" y2="240" gradientUnits="userSpaceOnUse">
<stop offset="0.005" stop-color="#8A43FF"/>
<stop offset="1" stop-color="#FFA2F6"/>
</linearGradient>
<linearGradient id="paint9_linear_16_235" x1="208" y1="224" x2="224" y2="240" gradientUnits="userSpaceOnUse">
<stop offset="0.005" stop-color="#8A43FF"/>
<stop offset="1" stop-color="#FFA2F6"/>
</linearGradient>
<clipPath id="clip0_16_235">
<rect width="288" height="256" fill="white"/>
</clipPath>
</defs>
</svg>
