<svg width="246" height="257" viewBox="0 0 246 257" fill="none" xmlns="http://www.w3.org/2000/svg">
<g clip-path="url(#clip0_28_5863)">
<path d="M106 145.52H114C115.933 145.52 117.5 147.087 117.5 149.02V157.02C117.5 158.953 115.933 160.52 114 160.52H106C104.067 160.52 102.5 158.953 102.5 157.02V149.02C102.5 147.087 104.067 145.52 106 145.52Z" stroke="#CECEFB" stroke-opacity="0.08"/>
<path d="M90 129.02H98C100.209 129.02 102 130.811 102 133.02V141.02C102 143.229 100.209 145.02 98 145.02H90C87.7909 145.02 86 143.229 86 141.02V133.02C86 130.811 87.7909 129.02 90 129.02Z" fill="url(#paint0_linear_28_5863)" fill-opacity="0.08"/>
<path d="M90 129.52H98C99.933 129.52 101.5 131.087 101.5 133.02V141.02C101.5 142.953 99.933 144.52 98 144.52H90C88.067 144.52 86.5 142.953 86.5 141.02V133.02C86.5 131.087 88.067 129.52 90 129.52Z" stroke="url(#paint1_linear_28_5863)" stroke-opacity="0.12"/>
<path d="M58 160.52H66C67.933 160.52 69.5 162.087 69.5 164.02V172.02C69.5 173.953 67.933 175.52 66 175.52H58C56.067 175.52 54.5 173.953 54.5 172.02V164.02C54.5 162.087 56.067 160.52 58 160.52Z" stroke="#CECEFB" stroke-opacity="0.08"/>
<path d="M42 144.52H50C51.933 144.52 53.5 146.087 53.5 148.02V156.02C53.5 157.953 51.933 159.52 50 159.52H42C40.067 159.52 38.5 157.953 38.5 156.02V148.02C38.5 146.087 40.067 144.52 42 144.52Z" stroke="#CECEFB" stroke-opacity="0.08"/>
<path d="M10 144.02H18C20.2091 144.02 22 145.811 22 148.02V156.02C22 158.229 20.2091 160.02 18 160.02H10C7.79086 160.02 6 158.229 6 156.02V148.02C6 145.811 7.79086 144.02 10 144.02Z" fill="#CECEFB" fill-opacity="0.04"/>
<path d="M10 144.52H18C19.933 144.52 21.5 146.087 21.5 148.02V156.02C21.5 157.953 19.933 159.52 18 159.52H10C8.067 159.52 6.5 157.953 6.5 156.02V148.02C6.5 146.087 8.067 144.52 10 144.52Z" stroke="#CECEFB" stroke-opacity="0.08"/>
<path d="M26 128.52H34C35.933 128.52 37.5 130.087 37.5 132.02V140.02C37.5 141.953 35.933 143.52 34 143.52H26C24.067 143.52 22.5 141.953 22.5 140.02V132.02C22.5 130.087 24.067 128.52 26 128.52Z" stroke="#CECEFB" stroke-opacity="0.08"/>
<path d="M42 112.02H50C52.2091 112.02 54 113.811 54 116.02V124.02C54 126.229 52.2091 128.02 50 128.02H42C39.7909 128.02 38 126.229 38 124.02V116.02C38 113.811 39.7909 112.02 42 112.02Z" fill="url(#paint2_linear_28_5863)" fill-opacity="0.08"/>
<path d="M42 112.52H50C51.933 112.52 53.5 114.087 53.5 116.02V124.02C53.5 125.953 51.933 127.52 50 127.52H42C40.067 127.52 38.5 125.953 38.5 124.02V116.02C38.5 114.087 40.067 112.52 42 112.52Z" stroke="url(#paint3_linear_28_5863)" stroke-opacity="0.12"/>
<path d="M58 96.52H66C67.933 96.52 69.5 98.087 69.5 100.02V108.02C69.5 109.953 67.933 111.52 66 111.52H58C56.067 111.52 54.5 109.953 54.5 108.02V100.02C54.5 98.087 56.067 96.52 58 96.52Z" stroke="#CECEFB" stroke-opacity="0.08"/>
<path d="M74 80.52H82C83.933 80.52 85.5 82.087 85.5 84.02V92.02C85.5 93.953 83.933 95.52 82 95.52H74C72.067 95.52 70.5 93.953 70.5 92.02V84.02C70.5 82.087 72.067 80.52 74 80.52Z" stroke="#CECEFB" stroke-opacity="0.08"/>
<path d="M138 80.52H146C147.933 80.52 149.5 82.087 149.5 84.02V92.02C149.5 93.953 147.933 95.52 146 95.52H138C136.067 95.52 134.5 93.953 134.5 92.02V84.02C134.5 82.087 136.067 80.52 138 80.52Z" stroke="#CECEFB" stroke-opacity="0.08"/>
<path d="M122 64.52H130C131.933 64.52 133.5 66.087 133.5 68.02V76.02C133.5 77.953 131.933 79.52 130 79.52H122C120.067 79.52 118.5 77.953 118.5 76.02V68.02C118.5 66.087 120.067 64.52 122 64.52Z" stroke="#CECEFB" stroke-opacity="0.08"/>
<path d="M186 96.52H194C195.933 96.52 197.5 98.087 197.5 100.02V108.02C197.5 109.953 195.933 111.52 194 111.52H186C184.067 111.52 182.5 109.953 182.5 108.02V100.02C182.5 98.087 184.067 96.52 186 96.52Z" stroke="#CECEFB" stroke-opacity="0.08"/>
<path d="M170 48.02H178C180.209 48.02 182 49.8109 182 52.02V60.02C182 62.2292 180.209 64.02 178 64.02H170C167.791 64.02 166 62.2292 166 60.02V52.02C166 49.8109 167.791 48.02 170 48.02Z" fill="url(#paint4_linear_28_5863)" fill-opacity="0.08"/>
<path d="M170 48.52H178C179.933 48.52 181.5 50.087 181.5 52.02V60.02C181.5 61.953 179.933 63.52 178 63.52H170C168.067 63.52 166.5 61.953 166.5 60.02V52.02C166.5 50.087 168.067 48.52 170 48.52Z" stroke="url(#paint5_linear_28_5863)" stroke-opacity="0.12"/>
<path d="M186 32.52H194C195.933 32.52 197.5 34.087 197.5 36.02V44.02C197.5 45.953 195.933 47.52 194 47.52H186C184.067 47.52 182.5 45.953 182.5 44.02V36.02C182.5 34.087 184.067 32.52 186 32.52Z" stroke="#CECEFB" stroke-opacity="0.08"/>
<path d="M234 48.52H242C243.933 48.52 245.5 50.087 245.5 52.02V60.02C245.5 61.953 243.933 63.52 242 63.52H234C232.067 63.52 230.5 61.953 230.5 60.02V52.02C230.5 50.087 232.067 48.52 234 48.52Z" stroke="#CECEFB" stroke-opacity="0.08"/>
<path d="M218 0.52002H226C227.933 0.52002 229.5 2.08702 229.5 4.02002V12.02C229.5 13.953 227.933 15.52 226 15.52H218C216.067 15.52 214.5 13.953 214.5 12.02V4.02002C214.5 2.08702 216.067 0.52002 218 0.52002Z" stroke="#CECEFB" stroke-opacity="0.08"/>
<path d="M10 112.52H18C19.933 112.52 21.5 114.087 21.5 116.02V124.02C21.5 125.953 19.933 127.52 18 127.52H10C8.067 127.52 6.5 125.953 6.5 124.02V116.02C6.5 114.087 8.067 112.52 10 112.52Z" stroke="#CECEFB" stroke-opacity="0.08"/>
<path d="M-6 96.52H2C3.933 96.52 5.5 98.087 5.5 100.02V108.02C5.5 109.953 3.933 111.52 2 111.52H-6C-7.933 111.52 -9.5 109.953 -9.5 108.02V100.02C-9.5 98.087 -7.933 96.52 -6 96.52Z" stroke="#CECEFB" stroke-opacity="0.08"/>
<path d="M42 176.52H50C51.933 176.52 53.5 178.087 53.5 180.02V188.02C53.5 189.953 51.933 191.52 50 191.52H42C40.067 191.52 38.5 189.953 38.5 188.02V180.02C38.5 178.087 40.067 176.52 42 176.52Z" stroke="#CECEFB" stroke-opacity="0.08"/>
<path d="M106 192.52H114C115.933 192.52 117.5 194.087 117.5 196.02V204.02C117.5 205.953 115.933 207.52 114 207.52H106C104.067 207.52 102.5 205.953 102.5 204.02V196.02C102.5 194.087 104.067 192.52 106 192.52Z" stroke="#CECEFB" stroke-opacity="0.08"/>
<path d="M138 176.52H146C147.933 176.52 149.5 178.087 149.5 180.02V188.02C149.5 189.953 147.933 191.52 146 191.52H138C136.067 191.52 134.5 189.953 134.5 188.02V180.02C134.5 178.087 136.067 176.52 138 176.52Z" stroke="#CECEFB" stroke-opacity="0.08"/>
<path d="M218 160.52H226C227.933 160.52 229.5 162.087 229.5 164.02V172.02C229.5 173.953 227.933 175.52 226 175.52H218C216.067 175.52 214.5 173.953 214.5 172.02V164.02C214.5 162.087 216.067 160.52 218 160.52Z" stroke="#CECEFB" stroke-opacity="0.08"/>
<path d="M170 176.52H178C179.933 176.52 181.5 178.087 181.5 180.02V188.02C181.5 189.953 179.933 191.52 178 191.52H170C168.067 191.52 166.5 189.953 166.5 188.02V180.02C166.5 178.087 168.067 176.52 170 176.52Z" stroke="#CECEFB" stroke-opacity="0.08"/>
<path d="M186 160.52H194C195.933 160.52 197.5 162.087 197.5 164.02V172.02C197.5 173.953 195.933 175.52 194 175.52H186C184.067 175.52 182.5 173.953 182.5 172.02V164.02C182.5 162.087 184.067 160.52 186 160.52Z" stroke="#CECEFB" stroke-opacity="0.08"/>
<path d="M170 128.52H178C179.933 128.52 181.5 130.087 181.5 132.02V140.02C181.5 141.953 179.933 143.52 178 143.52H170C168.067 143.52 166.5 141.953 166.5 140.02V132.02C166.5 130.087 168.067 128.52 170 128.52Z" stroke="#CECEFB" stroke-opacity="0.08"/>
<path d="M154 144.02H162C164.209 144.02 166 145.811 166 148.02V156.02C166 158.229 164.209 160.02 162 160.02H154C151.791 160.02 150 158.229 150 156.02V148.02C150 145.811 151.791 144.02 154 144.02Z" fill="url(#paint6_linear_28_5863)" fill-opacity="0.08"/>
<path d="M154 144.52H162C163.933 144.52 165.5 146.087 165.5 148.02V156.02C165.5 157.953 163.933 159.52 162 159.52H154C152.067 159.52 150.5 157.953 150.5 156.02V148.02C150.5 146.087 152.067 144.52 154 144.52Z" stroke="url(#paint7_linear_28_5863)" stroke-opacity="0.12"/>
<path d="M138 128.52H146C147.933 128.52 149.5 130.087 149.5 132.02V140.02C149.5 141.953 147.933 143.52 146 143.52H138C136.067 143.52 134.5 141.953 134.5 140.02V132.02C134.5 130.087 136.067 128.52 138 128.52Z" stroke="#CECEFB" stroke-opacity="0.08"/>
<path d="M202 112.52H210C211.933 112.52 213.5 114.087 213.5 116.02V124.02C213.5 125.953 211.933 127.52 210 127.52H202C200.067 127.52 198.5 125.953 198.5 124.02V116.02C198.5 114.087 200.067 112.52 202 112.52Z" stroke="#CECEFB" stroke-opacity="0.08"/>
<path d="M26 192.52H34C35.933 192.52 37.5 194.087 37.5 196.02V204.02C37.5 205.953 35.933 207.52 34 207.52H26C24.067 207.52 22.5 205.953 22.5 204.02V196.02C22.5 194.087 24.067 192.52 26 192.52Z" stroke="#CECEFB" stroke-opacity="0.08"/>
<path d="M-6 192.02H2C4.20914 192.02 6 193.811 6 196.02V204.02C6 206.229 4.20914 208.02 2 208.02H-6C-8.20914 208.02 -10 206.229 -10 204.02V196.02C-10 193.811 -8.20914 192.02 -6 192.02Z" fill="#CECEFB" fill-opacity="0.04"/>
<path d="M-6 192.52H2C3.933 192.52 5.5 194.087 5.5 196.02V204.02C5.5 205.953 3.933 207.52 2 207.52H-6C-7.933 207.52 -9.5 205.953 -9.5 204.02V196.02C-9.5 194.087 -7.933 192.52 -6 192.52Z" stroke="#CECEFB" stroke-opacity="0.08"/>
<path d="M10 208.52H18C19.933 208.52 21.5 210.087 21.5 212.02V220.02C21.5 221.953 19.933 223.52 18 223.52H10C8.067 223.52 6.5 221.953 6.5 220.02V212.02C6.5 210.087 8.067 208.52 10 208.52Z" stroke="#CECEFB" stroke-opacity="0.08"/>
<path d="M26 224.02H34C36.2091 224.02 38 225.811 38 228.02V236.02C38 238.229 36.2091 240.02 34 240.02H26C23.7909 240.02 22 238.229 22 236.02V228.02C22 225.811 23.7909 224.02 26 224.02Z" fill="url(#paint8_linear_28_5863)" fill-opacity="0.08"/>
<path d="M26 224.52H34C35.933 224.52 37.5 226.087 37.5 228.02V236.02C37.5 237.953 35.933 239.52 34 239.52H26C24.067 239.52 22.5 237.953 22.5 236.02V228.02C22.5 226.087 24.067 224.52 26 224.52Z" stroke="url(#paint9_linear_28_5863)" stroke-opacity="0.12"/>
<path d="M42 240.52H50C51.933 240.52 53.5 242.087 53.5 244.02V252.02C53.5 253.953 51.933 255.52 50 255.52H42C40.067 255.52 38.5 253.953 38.5 252.02V244.02C38.5 242.087 40.067 240.52 42 240.52Z" stroke="#CECEFB" stroke-opacity="0.08"/>
<path d="M74 208.52H82C83.933 208.52 85.5 210.087 85.5 212.02V220.02C85.5 221.953 83.933 223.52 82 223.52H74C72.067 223.52 70.5 221.953 70.5 220.02V212.02C70.5 210.087 72.067 208.52 74 208.52Z" stroke="#CECEFB" stroke-opacity="0.08"/>
<path d="M90 224.52H98C99.933 224.52 101.5 226.087 101.5 228.02V236.02C101.5 237.953 99.933 239.52 98 239.52H90C88.067 239.52 86.5 237.953 86.5 236.02V228.02C86.5 226.087 88.067 224.52 90 224.52Z" stroke="#CECEFB" stroke-opacity="0.08"/>
<path d="M106 240.02H114C116.209 240.02 118 241.811 118 244.02V252.02C118 254.229 116.209 256.02 114 256.02H106C103.791 256.02 102 254.229 102 252.02V244.02C102 241.811 103.791 240.02 106 240.02Z" fill="#CECEFB" fill-opacity="0.04"/>
<path d="M106 240.52H114C115.933 240.52 117.5 242.087 117.5 244.02V252.02C117.5 253.953 115.933 255.52 114 255.52H106C104.067 255.52 102.5 253.953 102.5 252.02V244.02C102.5 242.087 104.067 240.52 106 240.52Z" stroke="#CECEFB" stroke-opacity="0.08"/>
</g>
<defs>
<linearGradient id="paint0_linear_28_5863" x1="102" y1="129.02" x2="86" y2="145.02" gradientUnits="userSpaceOnUse">
<stop offset="0.005" stop-color="#8A43FF"/>
<stop offset="1" stop-color="#FFA2F6"/>
</linearGradient>
<linearGradient id="paint1_linear_28_5863" x1="102" y1="129.02" x2="86" y2="145.02" gradientUnits="userSpaceOnUse">
<stop offset="0.005" stop-color="#8A43FF"/>
<stop offset="1" stop-color="#FFA2F6"/>
</linearGradient>
<linearGradient id="paint2_linear_28_5863" x1="54" y1="112.02" x2="38" y2="128.02" gradientUnits="userSpaceOnUse">
<stop offset="0.005" stop-color="#8A43FF"/>
<stop offset="1" stop-color="#FFA2F6"/>
</linearGradient>
<linearGradient id="paint3_linear_28_5863" x1="54" y1="112.02" x2="38" y2="128.02" gradientUnits="userSpaceOnUse">
<stop offset="0.005" stop-color="#8A43FF"/>
<stop offset="1" stop-color="#FFA2F6"/>
</linearGradient>
<linearGradient id="paint4_linear_28_5863" x1="182" y1="48.02" x2="166" y2="64.02" gradientUnits="userSpaceOnUse">
<stop offset="0.005" stop-color="#8A43FF"/>
<stop offset="1" stop-color="#FFA2F6"/>
</linearGradient>
<linearGradient id="paint5_linear_28_5863" x1="182" y1="48.02" x2="166" y2="64.02" gradientUnits="userSpaceOnUse">
<stop offset="0.005" stop-color="#8A43FF"/>
<stop offset="1" stop-color="#FFA2F6"/>
</linearGradient>
<linearGradient id="paint6_linear_28_5863" x1="166" y1="144.02" x2="150" y2="160.02" gradientUnits="userSpaceOnUse">
<stop offset="0.005" stop-color="#8A43FF"/>
<stop offset="1" stop-color="#FFA2F6"/>
</linearGradient>
<linearGradient id="paint7_linear_28_5863" x1="166" y1="144.02" x2="150" y2="160.02" gradientUnits="userSpaceOnUse">
<stop offset="0.005" stop-color="#8A43FF"/>
<stop offset="1" stop-color="#FFA2F6"/>
</linearGradient>
<linearGradient id="paint8_linear_28_5863" x1="38" y1="224.02" x2="22" y2="240.02" gradientUnits="userSpaceOnUse">
<stop offset="0.005" stop-color="#8A43FF"/>
<stop offset="1" stop-color="#FFA2F6"/>
</linearGradient>
<linearGradient id="paint9_linear_28_5863" x1="38" y1="224.02" x2="22" y2="240.02" gradientUnits="userSpaceOnUse">
<stop offset="0.005" stop-color="#8A43FF"/>
<stop offset="1" stop-color="#FFA2F6"/>
</linearGradient>
<clipPath id="clip0_28_5863">
<rect width="288" height="256" fill="white" transform="matrix(-1 0 0 1 246 0.0200195)"/>
</clipPath>
</defs>
</svg>
