<svg width="260" height="257" viewBox="0 0 260 257" fill="none" xmlns="http://www.w3.org/2000/svg">
<g clip-path="url(#clip0_28_5815)">
<path d="M140 145.52H132C130.067 145.52 128.5 147.087 128.5 149.02V157.02C128.5 158.953 130.067 160.52 132 160.52H140C141.933 160.52 143.5 158.953 143.5 157.02V149.02C143.5 147.087 141.933 145.52 140 145.52Z" stroke="#CECEFB" stroke-opacity="0.08"/>
<path d="M156 129.02H148C145.791 129.02 144 130.811 144 133.02V141.02C144 143.229 145.791 145.02 148 145.02H156C158.209 145.02 160 143.229 160 141.02V133.02C160 130.811 158.209 129.02 156 129.02Z" fill="url(#paint0_linear_28_5815)" fill-opacity="0.08"/>
<path d="M156 129.52H148C146.067 129.52 144.5 131.087 144.5 133.02V141.02C144.5 142.953 146.067 144.52 148 144.52H156C157.933 144.52 159.5 142.953 159.5 141.02V133.02C159.5 131.087 157.933 129.52 156 129.52Z" stroke="url(#paint1_linear_28_5815)" stroke-opacity="0.12"/>
<path d="M188 160.52H180C178.067 160.52 176.5 162.087 176.5 164.02V172.02C176.5 173.953 178.067 175.52 180 175.52H188C189.933 175.52 191.5 173.953 191.5 172.02V164.02C191.5 162.087 189.933 160.52 188 160.52Z" stroke="#CECEFB" stroke-opacity="0.08"/>
<path d="M204 144.52H196C194.067 144.52 192.5 146.087 192.5 148.02V156.02C192.5 157.953 194.067 159.52 196 159.52H204C205.933 159.52 207.5 157.953 207.5 156.02V148.02C207.5 146.087 205.933 144.52 204 144.52Z" stroke="#CECEFB" stroke-opacity="0.08"/>
<path d="M236 144.02H228C225.791 144.02 224 145.811 224 148.02V156.02C224 158.229 225.791 160.02 228 160.02H236C238.209 160.02 240 158.229 240 156.02V148.02C240 145.811 238.209 144.02 236 144.02Z" fill="#CECEFB" fill-opacity="0.04"/>
<path d="M236 144.52H228C226.067 144.52 224.5 146.087 224.5 148.02V156.02C224.5 157.953 226.067 159.52 228 159.52H236C237.933 159.52 239.5 157.953 239.5 156.02V148.02C239.5 146.087 237.933 144.52 236 144.52Z" stroke="#CECEFB" stroke-opacity="0.08"/>
<path d="M220 128.52H212C210.067 128.52 208.5 130.087 208.5 132.02V140.02C208.5 141.953 210.067 143.52 212 143.52H220C221.933 143.52 223.5 141.953 223.5 140.02V132.02C223.5 130.087 221.933 128.52 220 128.52Z" stroke="#CECEFB" stroke-opacity="0.08"/>
<path d="M204 112.02H196C193.791 112.02 192 113.811 192 116.02V124.02C192 126.229 193.791 128.02 196 128.02H204C206.209 128.02 208 126.229 208 124.02V116.02C208 113.811 206.209 112.02 204 112.02Z" fill="url(#paint2_linear_28_5815)" fill-opacity="0.08"/>
<path d="M204 112.52H196C194.067 112.52 192.5 114.087 192.5 116.02V124.02C192.5 125.953 194.067 127.52 196 127.52H204C205.933 127.52 207.5 125.953 207.5 124.02V116.02C207.5 114.087 205.933 112.52 204 112.52Z" stroke="url(#paint3_linear_28_5815)" stroke-opacity="0.12"/>
<path d="M188 96.52H180C178.067 96.52 176.5 98.087 176.5 100.02V108.02C176.5 109.953 178.067 111.52 180 111.52H188C189.933 111.52 191.5 109.953 191.5 108.02V100.02C191.5 98.087 189.933 96.52 188 96.52Z" stroke="#CECEFB" stroke-opacity="0.08"/>
<path d="M172 80.52H164C162.067 80.52 160.5 82.087 160.5 84.02V92.02C160.5 93.953 162.067 95.52 164 95.52H172C173.933 95.52 175.5 93.953 175.5 92.02V84.02C175.5 82.087 173.933 80.52 172 80.52Z" stroke="#CECEFB" stroke-opacity="0.08"/>
<path d="M108 80.52H100C98.067 80.52 96.5 82.087 96.5 84.02V92.02C96.5 93.953 98.067 95.52 100 95.52H108C109.933 95.52 111.5 93.953 111.5 92.02V84.02C111.5 82.087 109.933 80.52 108 80.52Z" stroke="#CECEFB" stroke-opacity="0.08"/>
<path d="M124 64.52H116C114.067 64.52 112.5 66.087 112.5 68.02V76.02C112.5 77.953 114.067 79.52 116 79.52H124C125.933 79.52 127.5 77.953 127.5 76.02V68.02C127.5 66.087 125.933 64.52 124 64.52Z" stroke="#CECEFB" stroke-opacity="0.08"/>
<path d="M60 96.52H52C50.067 96.52 48.5 98.087 48.5 100.02V108.02C48.5 109.953 50.067 111.52 52 111.52H60C61.933 111.52 63.5 109.953 63.5 108.02V100.02C63.5 98.087 61.933 96.52 60 96.52Z" stroke="#CECEFB" stroke-opacity="0.08"/>
<path d="M76 48.02H68C65.7909 48.02 64 49.8109 64 52.02V60.02C64 62.2292 65.7909 64.02 68 64.02H76C78.2091 64.02 80 62.2292 80 60.02V52.02C80 49.8109 78.2091 48.02 76 48.02Z" fill="url(#paint4_linear_28_5815)" fill-opacity="0.08"/>
<path d="M76 48.52H68C66.067 48.52 64.5 50.087 64.5 52.02V60.02C64.5 61.953 66.067 63.52 68 63.52H76C77.933 63.52 79.5 61.953 79.5 60.02V52.02C79.5 50.087 77.933 48.52 76 48.52Z" stroke="url(#paint5_linear_28_5815)" stroke-opacity="0.12"/>
<path d="M60 32.52H52C50.067 32.52 48.5 34.087 48.5 36.02V44.02C48.5 45.953 50.067 47.52 52 47.52H60C61.933 47.52 63.5 45.953 63.5 44.02V36.02C63.5 34.087 61.933 32.52 60 32.52Z" stroke="#CECEFB" stroke-opacity="0.08"/>
<path d="M12 48.52H4C2.067 48.52 0.5 50.087 0.5 52.02V60.02C0.5 61.953 2.067 63.52 4 63.52H12C13.933 63.52 15.5 61.953 15.5 60.02V52.02C15.5 50.087 13.933 48.52 12 48.52Z" stroke="#CECEFB" stroke-opacity="0.08"/>
<path d="M28 0.52002H20C18.067 0.52002 16.5 2.08702 16.5 4.02002V12.02C16.5 13.953 18.067 15.52 20 15.52H28C29.933 15.52 31.5 13.953 31.5 12.02V4.02002C31.5 2.08702 29.933 0.52002 28 0.52002Z" stroke="#CECEFB" stroke-opacity="0.08"/>
<path d="M236 112.52H228C226.067 112.52 224.5 114.087 224.5 116.02V124.02C224.5 125.953 226.067 127.52 228 127.52H236C237.933 127.52 239.5 125.953 239.5 124.02V116.02C239.5 114.087 237.933 112.52 236 112.52Z" stroke="#CECEFB" stroke-opacity="0.08"/>
<path d="M252 96.52H244C242.067 96.52 240.5 98.087 240.5 100.02V108.02C240.5 109.953 242.067 111.52 244 111.52H252C253.933 111.52 255.5 109.953 255.5 108.02V100.02C255.5 98.087 253.933 96.52 252 96.52Z" stroke="#CECEFB" stroke-opacity="0.08"/>
<path d="M204 176.52H196C194.067 176.52 192.5 178.087 192.5 180.02V188.02C192.5 189.953 194.067 191.52 196 191.52H204C205.933 191.52 207.5 189.953 207.5 188.02V180.02C207.5 178.087 205.933 176.52 204 176.52Z" stroke="#CECEFB" stroke-opacity="0.08"/>
<path d="M140 192.52H132C130.067 192.52 128.5 194.087 128.5 196.02V204.02C128.5 205.953 130.067 207.52 132 207.52H140C141.933 207.52 143.5 205.953 143.5 204.02V196.02C143.5 194.087 141.933 192.52 140 192.52Z" stroke="#CECEFB" stroke-opacity="0.08"/>
<path d="M108 176.52H100C98.067 176.52 96.5 178.087 96.5 180.02V188.02C96.5 189.953 98.067 191.52 100 191.52H108C109.933 191.52 111.5 189.953 111.5 188.02V180.02C111.5 178.087 109.933 176.52 108 176.52Z" stroke="#CECEFB" stroke-opacity="0.08"/>
<path d="M28 160.52H20C18.067 160.52 16.5 162.087 16.5 164.02V172.02C16.5 173.953 18.067 175.52 20 175.52H28C29.933 175.52 31.5 173.953 31.5 172.02V164.02C31.5 162.087 29.933 160.52 28 160.52Z" stroke="#CECEFB" stroke-opacity="0.08"/>
<path d="M76 176.52H68C66.067 176.52 64.5 178.087 64.5 180.02V188.02C64.5 189.953 66.067 191.52 68 191.52H76C77.933 191.52 79.5 189.953 79.5 188.02V180.02C79.5 178.087 77.933 176.52 76 176.52Z" stroke="#CECEFB" stroke-opacity="0.08"/>
<path d="M60 160.52H52C50.067 160.52 48.5 162.087 48.5 164.02V172.02C48.5 173.953 50.067 175.52 52 175.52H60C61.933 175.52 63.5 173.953 63.5 172.02V164.02C63.5 162.087 61.933 160.52 60 160.52Z" stroke="#CECEFB" stroke-opacity="0.08"/>
<path d="M76 128.52H68C66.067 128.52 64.5 130.087 64.5 132.02V140.02C64.5 141.953 66.067 143.52 68 143.52H76C77.933 143.52 79.5 141.953 79.5 140.02V132.02C79.5 130.087 77.933 128.52 76 128.52Z" stroke="#CECEFB" stroke-opacity="0.08"/>
<path d="M92 144.02H84C81.7909 144.02 80 145.811 80 148.02V156.02C80 158.229 81.7909 160.02 84 160.02H92C94.2091 160.02 96 158.229 96 156.02V148.02C96 145.811 94.2091 144.02 92 144.02Z" fill="url(#paint6_linear_28_5815)" fill-opacity="0.08"/>
<path d="M92 144.52H84C82.067 144.52 80.5 146.087 80.5 148.02V156.02C80.5 157.953 82.067 159.52 84 159.52H92C93.933 159.52 95.5 157.953 95.5 156.02V148.02C95.5 146.087 93.933 144.52 92 144.52Z" stroke="url(#paint7_linear_28_5815)" stroke-opacity="0.12"/>
<path d="M108 128.52H100C98.067 128.52 96.5 130.087 96.5 132.02V140.02C96.5 141.953 98.067 143.52 100 143.52H108C109.933 143.52 111.5 141.953 111.5 140.02V132.02C111.5 130.087 109.933 128.52 108 128.52Z" stroke="#CECEFB" stroke-opacity="0.08"/>
<path d="M44 112.52H36C34.067 112.52 32.5 114.087 32.5 116.02V124.02C32.5 125.953 34.067 127.52 36 127.52H44C45.933 127.52 47.5 125.953 47.5 124.02V116.02C47.5 114.087 45.933 112.52 44 112.52Z" stroke="#CECEFB" stroke-opacity="0.08"/>
<path d="M220 192.52H212C210.067 192.52 208.5 194.087 208.5 196.02V204.02C208.5 205.953 210.067 207.52 212 207.52H220C221.933 207.52 223.5 205.953 223.5 204.02V196.02C223.5 194.087 221.933 192.52 220 192.52Z" stroke="#CECEFB" stroke-opacity="0.08"/>
<path d="M252 192.02H244C241.791 192.02 240 193.811 240 196.02V204.02C240 206.229 241.791 208.02 244 208.02H252C254.209 208.02 256 206.229 256 204.02V196.02C256 193.811 254.209 192.02 252 192.02Z" fill="#CECEFB" fill-opacity="0.04"/>
<path d="M252 192.52H244C242.067 192.52 240.5 194.087 240.5 196.02V204.02C240.5 205.953 242.067 207.52 244 207.52H252C253.933 207.52 255.5 205.953 255.5 204.02V196.02C255.5 194.087 253.933 192.52 252 192.52Z" stroke="#CECEFB" stroke-opacity="0.08"/>
<path d="M236 208.52H228C226.067 208.52 224.5 210.087 224.5 212.02V220.02C224.5 221.953 226.067 223.52 228 223.52H236C237.933 223.52 239.5 221.953 239.5 220.02V212.02C239.5 210.087 237.933 208.52 236 208.52Z" stroke="#CECEFB" stroke-opacity="0.08"/>
<path d="M220 224.02H212C209.791 224.02 208 225.811 208 228.02V236.02C208 238.229 209.791 240.02 212 240.02H220C222.209 240.02 224 238.229 224 236.02V228.02C224 225.811 222.209 224.02 220 224.02Z" fill="url(#paint8_linear_28_5815)" fill-opacity="0.08"/>
<path d="M220 224.52H212C210.067 224.52 208.5 226.087 208.5 228.02V236.02C208.5 237.953 210.067 239.52 212 239.52H220C221.933 239.52 223.5 237.953 223.5 236.02V228.02C223.5 226.087 221.933 224.52 220 224.52Z" stroke="url(#paint9_linear_28_5815)" stroke-opacity="0.12"/>
<path d="M204 240.52H196C194.067 240.52 192.5 242.087 192.5 244.02V252.02C192.5 253.953 194.067 255.52 196 255.52H204C205.933 255.52 207.5 253.953 207.5 252.02V244.02C207.5 242.087 205.933 240.52 204 240.52Z" stroke="#CECEFB" stroke-opacity="0.08"/>
<path d="M172 208.52H164C162.067 208.52 160.5 210.087 160.5 212.02V220.02C160.5 221.953 162.067 223.52 164 223.52H172C173.933 223.52 175.5 221.953 175.5 220.02V212.02C175.5 210.087 173.933 208.52 172 208.52Z" stroke="#CECEFB" stroke-opacity="0.08"/>
<path d="M156 224.52H148C146.067 224.52 144.5 226.087 144.5 228.02V236.02C144.5 237.953 146.067 239.52 148 239.52H156C157.933 239.52 159.5 237.953 159.5 236.02V228.02C159.5 226.087 157.933 224.52 156 224.52Z" stroke="#CECEFB" stroke-opacity="0.08"/>
<path d="M140 240.02H132C129.791 240.02 128 241.811 128 244.02V252.02C128 254.229 129.791 256.02 132 256.02H140C142.209 256.02 144 254.229 144 252.02V244.02C144 241.811 142.209 240.02 140 240.02Z" fill="#CECEFB" fill-opacity="0.04"/>
<path d="M140 240.52H132C130.067 240.52 128.5 242.087 128.5 244.02V252.02C128.5 253.953 130.067 255.52 132 255.52H140C141.933 255.52 143.5 253.953 143.5 252.02V244.02C143.5 242.087 141.933 240.52 140 240.52Z" stroke="#CECEFB" stroke-opacity="0.08"/>
</g>
<defs>
<linearGradient id="paint0_linear_28_5815" x1="144" y1="129.02" x2="160" y2="145.02" gradientUnits="userSpaceOnUse">
<stop offset="0.005" stop-color="#8A43FF"/>
<stop offset="1" stop-color="#FFA2F6"/>
</linearGradient>
<linearGradient id="paint1_linear_28_5815" x1="144" y1="129.02" x2="160" y2="145.02" gradientUnits="userSpaceOnUse">
<stop offset="0.005" stop-color="#8A43FF"/>
<stop offset="1" stop-color="#FFA2F6"/>
</linearGradient>
<linearGradient id="paint2_linear_28_5815" x1="192" y1="112.02" x2="208" y2="128.02" gradientUnits="userSpaceOnUse">
<stop offset="0.005" stop-color="#8A43FF"/>
<stop offset="1" stop-color="#FFA2F6"/>
</linearGradient>
<linearGradient id="paint3_linear_28_5815" x1="192" y1="112.02" x2="208" y2="128.02" gradientUnits="userSpaceOnUse">
<stop offset="0.005" stop-color="#8A43FF"/>
<stop offset="1" stop-color="#FFA2F6"/>
</linearGradient>
<linearGradient id="paint4_linear_28_5815" x1="64" y1="48.02" x2="80" y2="64.02" gradientUnits="userSpaceOnUse">
<stop offset="0.005" stop-color="#8A43FF"/>
<stop offset="1" stop-color="#FFA2F6"/>
</linearGradient>
<linearGradient id="paint5_linear_28_5815" x1="64" y1="48.02" x2="80" y2="64.02" gradientUnits="userSpaceOnUse">
<stop offset="0.005" stop-color="#8A43FF"/>
<stop offset="1" stop-color="#FFA2F6"/>
</linearGradient>
<linearGradient id="paint6_linear_28_5815" x1="80" y1="144.02" x2="96" y2="160.02" gradientUnits="userSpaceOnUse">
<stop offset="0.005" stop-color="#8A43FF"/>
<stop offset="1" stop-color="#FFA2F6"/>
</linearGradient>
<linearGradient id="paint7_linear_28_5815" x1="80" y1="144.02" x2="96" y2="160.02" gradientUnits="userSpaceOnUse">
<stop offset="0.005" stop-color="#8A43FF"/>
<stop offset="1" stop-color="#FFA2F6"/>
</linearGradient>
<linearGradient id="paint8_linear_28_5815" x1="208" y1="224.02" x2="224" y2="240.02" gradientUnits="userSpaceOnUse">
<stop offset="0.005" stop-color="#8A43FF"/>
<stop offset="1" stop-color="#FFA2F6"/>
</linearGradient>
<linearGradient id="paint9_linear_28_5815" x1="208" y1="224.02" x2="224" y2="240.02" gradientUnits="userSpaceOnUse">
<stop offset="0.005" stop-color="#8A43FF"/>
<stop offset="1" stop-color="#FFA2F6"/>
</linearGradient>
<clipPath id="clip0_28_5815">
<rect width="288" height="256" fill="white" transform="translate(0 0.0200195)"/>
</clipPath>
</defs>
</svg>
