<svg width="265" height="107" viewBox="0 0 265 107" fill="none" xmlns="http://www.w3.org/2000/svg">
<path d="M-1.90619 75.7295L-3 78.5495V144.951H271V17.6849L268.265 28.2598V19.3299L265.531 26.1448C264.893 24.5782 263.562 21.2569 263.343 20.5049C263.125 19.7529 261.429 28.9648 260.609 33.6648C259.242 28.1815 256.507 17.0269 256.507 16.2749C256.507 15.5229 254.866 19.4082 254.046 21.4449V13.4549L252.132 15.3349L245.295 1L243.108 8.98995L240.92 6.40497L237.092 11.8099L234.084 11.1049L228.888 28.2598L227.248 24.7349L196.894 55.5197L191.972 51.7597L177.206 59.2796C176.203 60.3763 174.143 62.5696 173.924 62.5696H166.267L164.353 64.4496L159.705 63.5096L155.603 65.8596L141.657 50.8197L138.649 55.5197L132.086 51.7597L127.984 60.2196L126.617 64.4496L116.226 62.5696L114.038 65.1546L104.194 57.1647L102.006 65.8596L95.1697 60.2196L91.0679 67.0346L88.3333 62.5696L86.9661 67.7396L82.5908 65.1546L80.6767 67.0346L79.3094 63.5096L76.8483 67.0346L69.7385 60.2196L56.8862 71.9696L48.1357 68.6796L39.1118 74.3195L35.8303 69.6196L28.4471 73.1446L27.6267 69.6196L23.525 71.9696L20.7904 69.6196L16.9621 70.5596L13.4072 68.6796L11.493 75.7295L9.03194 76.9045L6.02395 74.3195L-0.265469 78.5495L-1.90619 75.7295Z" stroke="#916CFF" stroke-width="0.585165"/>
<path d="M-1.90619 75.7295L-3 78.5495V144.951H271V17.6849L268.265 28.2598V19.3299L265.531 26.1448C264.893 24.5782 263.562 21.2569 263.343 20.5049C263.125 19.7529 261.429 28.9648 260.609 33.6648C259.242 28.1815 256.507 17.0269 256.507 16.2749C256.507 15.5229 254.866 19.4082 254.046 21.4449V13.4549L252.132 15.3349L245.295 1L243.108 8.98995L240.92 6.40497L237.092 11.8099L234.084 11.1049L228.888 28.2598L227.248 24.7349L196.894 55.5197L191.972 51.7597L177.206 59.2796C176.203 60.3763 174.143 62.5696 173.924 62.5696H166.267L164.353 64.4496L159.705 63.5096L155.603 65.8596L141.657 50.8197L138.649 55.5197L132.086 51.7597L127.984 60.2196L126.617 64.4496L116.226 62.5696L114.038 65.1546L104.194 57.1647L102.006 65.8596L95.1697 60.2196L91.0679 67.0346L88.3333 62.5696L86.9661 67.7396L82.5908 65.1546L80.6767 67.0346L79.3094 63.5096L76.8483 67.0346L69.7385 60.2196L56.8862 71.9696L48.1357 68.6796L39.1118 74.3195L35.8303 69.6196L28.4471 73.1446L27.6267 69.6196L23.525 71.9696L20.7904 69.6196L16.9621 70.5596L13.4072 68.6796L11.493 75.7295L9.03194 76.9045L6.02395 74.3195L-0.265469 78.5495L-1.90619 75.7295Z" fill="url(#paint0_linear_154_3511)" fill-opacity="0.69"/>
<defs>
<linearGradient id="paint0_linear_154_3511" x1="131.218" y1="-7.19231" x2="128.756" y2="192.361" gradientUnits="userSpaceOnUse">
<stop stop-color="#654AC2" stop-opacity="0.36"/>
<stop offset="1" stop-color="#7B56F8" stop-opacity="0"/>
</linearGradient>
</defs>
</svg>
