<svg width="426" height="170" viewBox="0 0 426 170" fill="none" xmlns="http://www.w3.org/2000/svg">
<g clip-path="url(#clip0_54_2873)">
<g clip-path="url(#clip1_54_2873)">
<g clip-path="url(#clip2_54_2873)">
<mask id="mask0_54_2873" style="mask-type:luminance" maskUnits="userSpaceOnUse" x="0" y="0" width="505" height="170">
<path d="M0 0H504.632V170H0V0Z" fill="white"/>
</mask>
<g mask="url(#mask0_54_2873)">
<mask id="mask1_54_2873" style="mask-type:luminance" maskUnits="userSpaceOnUse" x="0" y="0" width="505" height="170">
<path d="M0 0H504.632V170H0V0Z" fill="white"/>
</mask>
<g mask="url(#mask1_54_2873)">
<mask id="mask2_54_2873" style="mask-type:alpha" maskUnits="userSpaceOnUse" x="-55" y="-209" width="506" height="359">
<path d="M-54.1318 -208.474H450.5V149.421H-54.1318V-208.474Z" fill="url(#paint0_radial_54_2873)"/>
</mask>
<g mask="url(#mask2_54_2873)">
<path d="M-11.1846 -208.474H21.026V149.421H-11.1846V-208.474Z" fill="url(#paint1_linear_54_2873)" fill-opacity="0.2"/>
<path d="M-10.9609 -208.25H20.8022V149.197H-10.9609V-208.25Z" stroke="url(#paint2_linear_54_2873)" stroke-opacity="0.2" stroke-width="0.447368"/>
<path d="M31.7632 -208.474H63.9737V149.421H31.7632V-208.474Z" fill="url(#paint3_linear_54_2873)" fill-opacity="0.2"/>
<path d="M31.9868 -208.25H63.75V149.197H31.9868V-208.25Z" stroke="url(#paint4_linear_54_2873)" stroke-opacity="0.2" stroke-width="0.447368"/>
<path d="M74.7104 -208.474H106.921V149.421H74.7104V-208.474Z" fill="url(#paint5_linear_54_2873)" fill-opacity="0.2"/>
<path d="M74.9346 -208.25H106.698V149.197H74.9346V-208.25Z" stroke="url(#paint6_linear_54_2873)" stroke-opacity="0.2" stroke-width="0.447368"/>
<path d="M117.658 -208.474H149.868V149.421H117.658V-208.474Z" fill="url(#paint7_linear_54_2873)" fill-opacity="0.2"/>
<path d="M117.882 -208.25H149.645V149.197H117.882V-208.25Z" stroke="url(#paint8_linear_54_2873)" stroke-opacity="0.2" stroke-width="0.447368"/>
<path d="M160.605 -208.474H192.816V149.421H160.605V-208.474Z" fill="url(#paint9_linear_54_2873)" fill-opacity="0.2"/>
<path d="M160.829 -208.25H192.592V149.197H160.829V-208.25Z" stroke="url(#paint10_linear_54_2873)" stroke-opacity="0.2" stroke-width="0.447368"/>
<path d="M203.553 -208.474H235.763V149.421H203.553V-208.474Z" fill="url(#paint11_linear_54_2873)" fill-opacity="0.2"/>
<path d="M203.776 -208.25H235.54V149.197H203.776V-208.25Z" stroke="url(#paint12_linear_54_2873)" stroke-opacity="0.2" stroke-width="0.447368"/>
<path d="M246.5 -208.474H278.711V149.421H246.5V-208.474Z" fill="url(#paint13_linear_54_2873)" fill-opacity="0.2"/>
<path d="M246.724 -208.25H278.487V149.197H246.724V-208.25Z" stroke="url(#paint14_linear_54_2873)" stroke-opacity="0.2" stroke-width="0.447368"/>
<path d="M289.448 -208.474H321.658V149.421H289.448V-208.474Z" fill="url(#paint15_linear_54_2873)" fill-opacity="0.2"/>
<path d="M289.671 -208.25H321.435V149.197H289.671V-208.25Z" stroke="url(#paint16_linear_54_2873)" stroke-opacity="0.2" stroke-width="0.447368"/>
<path d="M332.395 -208.474H364.606V149.421H332.395V-208.474Z" fill="url(#paint17_linear_54_2873)" fill-opacity="0.2"/>
<path d="M332.619 -208.25H364.382V149.197H332.619V-208.25Z" stroke="url(#paint18_linear_54_2873)" stroke-opacity="0.2" stroke-width="0.447368"/>
<path d="M375.342 -208.474H407.553V149.421H375.342V-208.474Z" fill="url(#paint19_linear_54_2873)" fill-opacity="0.2"/>
<path d="M375.566 -208.25H407.329V149.197H375.566V-208.25Z" stroke="url(#paint20_linear_54_2873)" stroke-opacity="0.2" stroke-width="0.447368"/>
<path d="M418.29 -208.474H450.5V149.421H418.29V-208.474Z" fill="url(#paint21_linear_54_2873)" fill-opacity="0.2"/>
<path d="M418.513 -208.25H450.276V149.197H418.513V-208.25Z" stroke="url(#paint22_linear_54_2873)" stroke-opacity="0.2" stroke-width="0.447368"/>
</g>
</g>
</g>
</g>
</g>
</g>
<g clip-path="url(#clip3_54_2873)">
<rect x="42.9473" y="107.646" width="0.447368" height="68" rx="0.223684" fill="url(#paint23_linear_54_2873)"/>
<rect width="0.447368" height="116.316" transform="translate(42.9473)" fill="url(#paint24_linear_54_2873)"/>
</g>
<rect width="0.447368" height="134.211" transform="translate(85.8945)" fill="url(#paint25_linear_54_2873)"/>
<g clip-path="url(#clip4_54_2873)">
<rect x="117.658" y="79.1797" width="0.447368" height="35.7895" rx="0.223684" fill="url(#paint26_linear_54_2873)"/>
<rect width="0.447368" height="143.158" transform="translate(117.658)" fill="url(#paint27_linear_54_2873)"/>
</g>
<g clip-path="url(#clip5_54_2873)">
<rect x="386.526" y="79.1797" width="0.447368" height="35.7895" rx="0.223684" fill="url(#paint28_linear_54_2873)"/>
<rect width="0.447368" height="143.158" transform="translate(386.526 -3.05176e-05)" fill="url(#paint29_linear_54_2873)"/>
</g>
<rect width="0.447368" height="134.211" transform="translate(418.29)" fill="url(#paint30_linear_54_2873)"/>
<defs>
<radialGradient id="paint0_radial_54_2873" cx="0" cy="0" r="1" gradientUnits="userSpaceOnUse" gradientTransform="translate(198.184 -29.5263) rotate(90) scale(178.947 252.316)">
<stop stop-color="#D9D9D9"/>
<stop offset="1" stop-color="#D9D9D9" stop-opacity="0"/>
</radialGradient>
<linearGradient id="paint1_linear_54_2873" x1="4.9207" y1="-208.474" x2="4.9207" y2="149.421" gradientUnits="userSpaceOnUse">
<stop stop-color="#02031C" stop-opacity="0"/>
<stop offset="1" stop-color="#CECEFB"/>
</linearGradient>
<linearGradient id="paint2_linear_54_2873" x1="4.92064" y1="-208.474" x2="4.92064" y2="149.421" gradientUnits="userSpaceOnUse">
<stop stop-color="#02031C" stop-opacity="0"/>
<stop offset="1" stop-color="#CECEFB"/>
</linearGradient>
<linearGradient id="paint3_linear_54_2873" x1="47.8685" y1="-208.474" x2="47.8685" y2="149.421" gradientUnits="userSpaceOnUse">
<stop stop-color="#02031C" stop-opacity="0"/>
<stop offset="1" stop-color="#CECEFB"/>
</linearGradient>
<linearGradient id="paint4_linear_54_2873" x1="47.8684" y1="-208.474" x2="47.8684" y2="149.421" gradientUnits="userSpaceOnUse">
<stop stop-color="#02031C" stop-opacity="0"/>
<stop offset="1" stop-color="#CECEFB"/>
</linearGradient>
<linearGradient id="paint5_linear_54_2873" x1="90.8157" y1="-208.474" x2="90.8157" y2="149.421" gradientUnits="userSpaceOnUse">
<stop stop-color="#02031C" stop-opacity="0"/>
<stop offset="1" stop-color="#CECEFB"/>
</linearGradient>
<linearGradient id="paint6_linear_54_2873" x1="90.8162" y1="-208.474" x2="90.8162" y2="149.421" gradientUnits="userSpaceOnUse">
<stop stop-color="#02031C" stop-opacity="0"/>
<stop offset="1" stop-color="#CECEFB"/>
</linearGradient>
<linearGradient id="paint7_linear_54_2873" x1="133.763" y1="-208.474" x2="133.763" y2="149.421" gradientUnits="userSpaceOnUse">
<stop stop-color="#02031C" stop-opacity="0"/>
<stop offset="1" stop-color="#CECEFB"/>
</linearGradient>
<linearGradient id="paint8_linear_54_2873" x1="133.763" y1="-208.474" x2="133.763" y2="149.421" gradientUnits="userSpaceOnUse">
<stop stop-color="#02031C" stop-opacity="0"/>
<stop offset="1" stop-color="#CECEFB"/>
</linearGradient>
<linearGradient id="paint9_linear_54_2873" x1="176.711" y1="-208.474" x2="176.711" y2="149.421" gradientUnits="userSpaceOnUse">
<stop stop-color="#02031C" stop-opacity="0"/>
<stop offset="1" stop-color="#CECEFB"/>
</linearGradient>
<linearGradient id="paint10_linear_54_2873" x1="176.711" y1="-208.474" x2="176.711" y2="149.421" gradientUnits="userSpaceOnUse">
<stop stop-color="#02031C" stop-opacity="0"/>
<stop offset="1" stop-color="#CECEFB"/>
</linearGradient>
<linearGradient id="paint11_linear_54_2873" x1="219.658" y1="-208.474" x2="219.658" y2="149.421" gradientUnits="userSpaceOnUse">
<stop stop-color="#02031C" stop-opacity="0"/>
<stop offset="1" stop-color="#CECEFB"/>
</linearGradient>
<linearGradient id="paint12_linear_54_2873" x1="219.658" y1="-208.474" x2="219.658" y2="149.421" gradientUnits="userSpaceOnUse">
<stop stop-color="#02031C" stop-opacity="0"/>
<stop offset="1" stop-color="#CECEFB"/>
</linearGradient>
<linearGradient id="paint13_linear_54_2873" x1="262.605" y1="-208.474" x2="262.605" y2="149.421" gradientUnits="userSpaceOnUse">
<stop stop-color="#02031C" stop-opacity="0"/>
<stop offset="1" stop-color="#CECEFB"/>
</linearGradient>
<linearGradient id="paint14_linear_54_2873" x1="262.605" y1="-208.474" x2="262.605" y2="149.421" gradientUnits="userSpaceOnUse">
<stop stop-color="#02031C" stop-opacity="0"/>
<stop offset="1" stop-color="#CECEFB"/>
</linearGradient>
<linearGradient id="paint15_linear_54_2873" x1="305.553" y1="-208.474" x2="305.553" y2="149.421" gradientUnits="userSpaceOnUse">
<stop stop-color="#02031C" stop-opacity="0"/>
<stop offset="1" stop-color="#CECEFB"/>
</linearGradient>
<linearGradient id="paint16_linear_54_2873" x1="305.553" y1="-208.474" x2="305.553" y2="149.421" gradientUnits="userSpaceOnUse">
<stop stop-color="#02031C" stop-opacity="0"/>
<stop offset="1" stop-color="#CECEFB"/>
</linearGradient>
<linearGradient id="paint17_linear_54_2873" x1="348.5" y1="-208.474" x2="348.5" y2="149.421" gradientUnits="userSpaceOnUse">
<stop stop-color="#02031C" stop-opacity="0"/>
<stop offset="1" stop-color="#CECEFB"/>
</linearGradient>
<linearGradient id="paint18_linear_54_2873" x1="348.5" y1="-208.474" x2="348.5" y2="149.421" gradientUnits="userSpaceOnUse">
<stop stop-color="#02031C" stop-opacity="0"/>
<stop offset="1" stop-color="#CECEFB"/>
</linearGradient>
<linearGradient id="paint19_linear_54_2873" x1="391.448" y1="-208.474" x2="391.448" y2="149.421" gradientUnits="userSpaceOnUse">
<stop stop-color="#02031C" stop-opacity="0"/>
<stop offset="1" stop-color="#CECEFB"/>
</linearGradient>
<linearGradient id="paint20_linear_54_2873" x1="391.447" y1="-208.474" x2="391.447" y2="149.421" gradientUnits="userSpaceOnUse">
<stop stop-color="#02031C" stop-opacity="0"/>
<stop offset="1" stop-color="#CECEFB"/>
</linearGradient>
<linearGradient id="paint21_linear_54_2873" x1="434.395" y1="-208.474" x2="434.395" y2="149.421" gradientUnits="userSpaceOnUse">
<stop stop-color="#02031C" stop-opacity="0"/>
<stop offset="1" stop-color="#CECEFB"/>
</linearGradient>
<linearGradient id="paint22_linear_54_2873" x1="434.395" y1="-208.474" x2="434.395" y2="149.421" gradientUnits="userSpaceOnUse">
<stop stop-color="#02031C" stop-opacity="0"/>
<stop offset="1" stop-color="#CECEFB"/>
</linearGradient>
<linearGradient id="paint23_linear_54_2873" x1="43.1709" y1="107.646" x2="43.1709" y2="175.646" gradientUnits="userSpaceOnUse">
<stop offset="0.195132" stop-color="#02031C" stop-opacity="0"/>
<stop offset="1" stop-color="#D5C7FF" stop-opacity="0.4"/>
</linearGradient>
<linearGradient id="paint24_linear_54_2873" x1="0.223685" y1="0" x2="0.223685" y2="116.316" gradientUnits="userSpaceOnUse">
<stop stop-color="#02031C"/>
<stop offset="0.3" stop-color="#02031C" stop-opacity="0"/>
<stop offset="0.697368" stop-color="#02031C" stop-opacity="0"/>
<stop offset="1" stop-color="#02031C"/>
</linearGradient>
<linearGradient id="paint25_linear_54_2873" x1="0.223684" y1="0" x2="0.223684" y2="134.211" gradientUnits="userSpaceOnUse">
<stop stop-color="#02031C"/>
<stop offset="0.3" stop-color="#02031C" stop-opacity="0"/>
<stop offset="0.697368" stop-color="#02031C" stop-opacity="0"/>
<stop offset="1" stop-color="#02031C"/>
</linearGradient>
<linearGradient id="paint26_linear_54_2873" x1="117.881" y1="79.1797" x2="117.881" y2="114.969" gradientUnits="userSpaceOnUse">
<stop offset="0.195132" stop-color="#02031C" stop-opacity="0"/>
<stop offset="1" stop-color="#865BFF" stop-opacity="0.8"/>
</linearGradient>
<linearGradient id="paint27_linear_54_2873" x1="0.223681" y1="0" x2="0.223681" y2="143.158" gradientUnits="userSpaceOnUse">
<stop stop-color="#02031C"/>
<stop offset="0.3" stop-color="#02031C" stop-opacity="0"/>
<stop offset="0.697368" stop-color="#02031C" stop-opacity="0"/>
<stop offset="1" stop-color="#02031C"/>
</linearGradient>
<linearGradient id="paint28_linear_54_2873" x1="386.75" y1="79.1797" x2="386.75" y2="114.969" gradientUnits="userSpaceOnUse">
<stop offset="0.195132" stop-color="#02031C" stop-opacity="0"/>
<stop offset="1" stop-color="#865BFF" stop-opacity="0.8"/>
</linearGradient>
<linearGradient id="paint29_linear_54_2873" x1="0.223681" y1="0" x2="0.223681" y2="143.158" gradientUnits="userSpaceOnUse">
<stop stop-color="#02031C"/>
<stop offset="0.3" stop-color="#02031C" stop-opacity="0"/>
<stop offset="0.697368" stop-color="#02031C" stop-opacity="0"/>
<stop offset="1" stop-color="#02031C"/>
</linearGradient>
<linearGradient id="paint30_linear_54_2873" x1="0.223684" y1="0" x2="0.223684" y2="134.211" gradientUnits="userSpaceOnUse">
<stop stop-color="#02031C"/>
<stop offset="0.3" stop-color="#02031C" stop-opacity="0"/>
<stop offset="0.697368" stop-color="#02031C" stop-opacity="0"/>
<stop offset="1" stop-color="#02031C"/>
</linearGradient>
<clipPath id="clip0_54_2873">
<rect width="504.632" height="170" fill="white"/>
</clipPath>
<clipPath id="clip1_54_2873">
<rect width="504.632" height="170" fill="white"/>
</clipPath>
<clipPath id="clip2_54_2873">
<rect width="504.632" height="170" fill="white"/>
</clipPath>
<clipPath id="clip3_54_2873">
<rect width="0.447368" height="116.316" fill="white" transform="translate(42.9473)"/>
</clipPath>
<clipPath id="clip4_54_2873">
<rect width="0.447368" height="143.158" fill="white" transform="translate(117.658)"/>
</clipPath>
<clipPath id="clip5_54_2873">
<rect width="0.447368" height="143.158" fill="white" transform="translate(386.526)"/>
</clipPath>
</defs>
</svg>
