<svg width="1152" height="380" viewBox="0 0 1152 380" fill="none" xmlns="http://www.w3.org/2000/svg">
<g clip-path="url(#clip0_54_2873)">
<g clip-path="url(#clip1_54_2873)">
<g clip-path="url(#clip2_54_2873)">
<mask id="mask0_54_2873" style="mask-type:luminance" maskUnits="userSpaceOnUse" x="0" y="0" width="1128" height="380">
<path d="M0 0H1128V380H0V0Z" fill="white"/>
</mask>
<g mask="url(#mask0_54_2873)">
<mask id="mask1_54_2873" style="mask-type:luminance" maskUnits="userSpaceOnUse" x="0" y="0" width="1128" height="380">
<path d="M0 0H1128V380H0V0Z" fill="white"/>
</mask>
<g mask="url(#mask1_54_2873)">
<mask id="mask2_54_2873" style="mask-type:alpha" maskUnits="userSpaceOnUse" x="-121" y="-466" width="1128" height="800">
<path d="M-121 -466H1007V334H-121V-466Z" fill="url(#paint0_radial_54_2873)"/>
</mask>
<g mask="url(#mask2_54_2873)">
<path d="M-25 -466H47V334H-25V-466Z" fill="url(#paint1_linear_54_2873)" fill-opacity="0.2"/>
<path d="M-24.5 -465.5H46.5V333.5H-24.5V-465.5Z" stroke="url(#paint2_linear_54_2873)" stroke-opacity="0.2"/>
<path d="M71 -466H143V334H71V-466Z" fill="url(#paint3_linear_54_2873)" fill-opacity="0.2"/>
<path d="M71.5 -465.5H142.5V333.5H71.5V-465.5Z" stroke="url(#paint4_linear_54_2873)" stroke-opacity="0.2"/>
<path d="M167 -466H239V334H167V-466Z" fill="url(#paint5_linear_54_2873)" fill-opacity="0.2"/>
<path d="M167.5 -465.5H238.5V333.5H167.5V-465.5Z" stroke="url(#paint6_linear_54_2873)" stroke-opacity="0.2"/>
<path d="M263 -466H335V334H263V-466Z" fill="url(#paint7_linear_54_2873)" fill-opacity="0.2"/>
<path d="M263.5 -465.5H334.5V333.5H263.5V-465.5Z" stroke="url(#paint8_linear_54_2873)" stroke-opacity="0.2"/>
<path d="M359 -466H431V334H359V-466Z" fill="url(#paint9_linear_54_2873)" fill-opacity="0.2"/>
<path d="M359.5 -465.5H430.5V333.5H359.5V-465.5Z" stroke="url(#paint10_linear_54_2873)" stroke-opacity="0.2"/>
<path d="M455 -466H527V334H455V-466Z" fill="url(#paint11_linear_54_2873)" fill-opacity="0.2"/>
<path d="M455.5 -465.5H526.5V333.5H455.5V-465.5Z" stroke="url(#paint12_linear_54_2873)" stroke-opacity="0.2"/>
<path d="M551 -466H623V334H551V-466Z" fill="url(#paint13_linear_54_2873)" fill-opacity="0.2"/>
<path d="M551.5 -465.5H622.5V333.5H551.5V-465.5Z" stroke="url(#paint14_linear_54_2873)" stroke-opacity="0.2"/>
<path d="M647 -466H719V334H647V-466Z" fill="url(#paint15_linear_54_2873)" fill-opacity="0.2"/>
<path d="M647.5 -465.5H718.5V333.5H647.5V-465.5Z" stroke="url(#paint16_linear_54_2873)" stroke-opacity="0.2"/>
<path d="M743 -466H815V334H743V-466Z" fill="url(#paint17_linear_54_2873)" fill-opacity="0.2"/>
<path d="M743.5 -465.5H814.5V333.5H743.5V-465.5Z" stroke="url(#paint18_linear_54_2873)" stroke-opacity="0.2"/>
<path d="M839 -466H911V334H839V-466Z" fill="url(#paint19_linear_54_2873)" fill-opacity="0.2"/>
<path d="M839.5 -465.5H910.5V333.5H839.5V-465.5Z" stroke="url(#paint20_linear_54_2873)" stroke-opacity="0.2"/>
<path d="M935 -466H1007V334H935V-466Z" fill="url(#paint21_linear_54_2873)" fill-opacity="0.2"/>
<path d="M935.5 -465.5H1006.5V333.5H935.5V-465.5Z" stroke="url(#paint22_linear_54_2873)" stroke-opacity="0.2"/>
</g>
</g>
</g>
</g>
</g>
</g>
<g clip-path="url(#clip3_54_2873)">
<rect x="96" y="240.62" width="1" height="152" rx="0.5" fill="url(#paint23_linear_54_2873)"/>
<rect width="1" height="260" transform="translate(96)" fill="url(#paint24_linear_54_2873)"/>
</g>
<rect width="1" height="300" transform="translate(192)" fill="url(#paint25_linear_54_2873)"/>
<g clip-path="url(#clip4_54_2873)">
<rect x="263" y="176.99" width="1" height="80" rx="0.5" fill="url(#paint26_linear_54_2873)"/>
<rect width="1" height="320" transform="translate(263)" fill="url(#paint27_linear_54_2873)"/>
</g>
<g clip-path="url(#clip5_54_2873)">
<rect x="864" y="176.99" width="1" height="80" rx="0.5" fill="url(#paint28_linear_54_2873)"/>
<rect width="1" height="320" transform="translate(864)" fill="url(#paint29_linear_54_2873)"/>
</g>
<rect width="1" height="300" transform="translate(935)" fill="url(#paint30_linear_54_2873)"/>
<g clip-path="url(#clip6_54_2873)">
<rect x="1031" y="239.59" width="1" height="152" rx="0.5" fill="url(#paint31_linear_54_2873)"/>
<rect width="1" height="260" transform="translate(1031)" fill="url(#paint32_linear_54_2873)"/>
</g>
<defs>
<radialGradient id="paint0_radial_54_2873" cx="0" cy="0" r="1" gradientUnits="userSpaceOnUse" gradientTransform="translate(443 -66) rotate(90) scale(400 564)">
<stop stop-color="#D9D9D9"/>
<stop offset="1" stop-color="#D9D9D9" stop-opacity="0"/>
</radialGradient>
<linearGradient id="paint1_linear_54_2873" x1="11" y1="-466" x2="11" y2="334" gradientUnits="userSpaceOnUse">
<stop stop-color="#02031C" stop-opacity="0"/>
<stop offset="1" stop-color="#CECEFB"/>
</linearGradient>
<linearGradient id="paint2_linear_54_2873" x1="11" y1="-466" x2="11" y2="334" gradientUnits="userSpaceOnUse">
<stop stop-color="#02031C" stop-opacity="0"/>
<stop offset="1" stop-color="#CECEFB"/>
</linearGradient>
<linearGradient id="paint3_linear_54_2873" x1="107" y1="-466" x2="107" y2="334" gradientUnits="userSpaceOnUse">
<stop stop-color="#02031C" stop-opacity="0"/>
<stop offset="1" stop-color="#CECEFB"/>
</linearGradient>
<linearGradient id="paint4_linear_54_2873" x1="107" y1="-466" x2="107" y2="334" gradientUnits="userSpaceOnUse">
<stop stop-color="#02031C" stop-opacity="0"/>
<stop offset="1" stop-color="#CECEFB"/>
</linearGradient>
<linearGradient id="paint5_linear_54_2873" x1="203" y1="-466" x2="203" y2="334" gradientUnits="userSpaceOnUse">
<stop stop-color="#02031C" stop-opacity="0"/>
<stop offset="1" stop-color="#CECEFB"/>
</linearGradient>
<linearGradient id="paint6_linear_54_2873" x1="203" y1="-466" x2="203" y2="334" gradientUnits="userSpaceOnUse">
<stop stop-color="#02031C" stop-opacity="0"/>
<stop offset="1" stop-color="#CECEFB"/>
</linearGradient>
<linearGradient id="paint7_linear_54_2873" x1="299" y1="-466" x2="299" y2="334" gradientUnits="userSpaceOnUse">
<stop stop-color="#02031C" stop-opacity="0"/>
<stop offset="1" stop-color="#CECEFB"/>
</linearGradient>
<linearGradient id="paint8_linear_54_2873" x1="299" y1="-466" x2="299" y2="334" gradientUnits="userSpaceOnUse">
<stop stop-color="#02031C" stop-opacity="0"/>
<stop offset="1" stop-color="#CECEFB"/>
</linearGradient>
<linearGradient id="paint9_linear_54_2873" x1="395" y1="-466" x2="395" y2="334" gradientUnits="userSpaceOnUse">
<stop stop-color="#02031C" stop-opacity="0"/>
<stop offset="1" stop-color="#CECEFB"/>
</linearGradient>
<linearGradient id="paint10_linear_54_2873" x1="395" y1="-466" x2="395" y2="334" gradientUnits="userSpaceOnUse">
<stop stop-color="#02031C" stop-opacity="0"/>
<stop offset="1" stop-color="#CECEFB"/>
</linearGradient>
<linearGradient id="paint11_linear_54_2873" x1="491" y1="-466" x2="491" y2="334" gradientUnits="userSpaceOnUse">
<stop stop-color="#02031C" stop-opacity="0"/>
<stop offset="1" stop-color="#CECEFB"/>
</linearGradient>
<linearGradient id="paint12_linear_54_2873" x1="491" y1="-466" x2="491" y2="334" gradientUnits="userSpaceOnUse">
<stop stop-color="#02031C" stop-opacity="0"/>
<stop offset="1" stop-color="#CECEFB"/>
</linearGradient>
<linearGradient id="paint13_linear_54_2873" x1="587" y1="-466" x2="587" y2="334" gradientUnits="userSpaceOnUse">
<stop stop-color="#02031C" stop-opacity="0"/>
<stop offset="1" stop-color="#CECEFB"/>
</linearGradient>
<linearGradient id="paint14_linear_54_2873" x1="587" y1="-466" x2="587" y2="334" gradientUnits="userSpaceOnUse">
<stop stop-color="#02031C" stop-opacity="0"/>
<stop offset="1" stop-color="#CECEFB"/>
</linearGradient>
<linearGradient id="paint15_linear_54_2873" x1="683" y1="-466" x2="683" y2="334" gradientUnits="userSpaceOnUse">
<stop stop-color="#02031C" stop-opacity="0"/>
<stop offset="1" stop-color="#CECEFB"/>
</linearGradient>
<linearGradient id="paint16_linear_54_2873" x1="683" y1="-466" x2="683" y2="334" gradientUnits="userSpaceOnUse">
<stop stop-color="#02031C" stop-opacity="0"/>
<stop offset="1" stop-color="#CECEFB"/>
</linearGradient>
<linearGradient id="paint17_linear_54_2873" x1="779" y1="-466" x2="779" y2="334" gradientUnits="userSpaceOnUse">
<stop stop-color="#02031C" stop-opacity="0"/>
<stop offset="1" stop-color="#CECEFB"/>
</linearGradient>
<linearGradient id="paint18_linear_54_2873" x1="779" y1="-466" x2="779" y2="334" gradientUnits="userSpaceOnUse">
<stop stop-color="#02031C" stop-opacity="0"/>
<stop offset="1" stop-color="#CECEFB"/>
</linearGradient>
<linearGradient id="paint19_linear_54_2873" x1="875" y1="-466" x2="875" y2="334" gradientUnits="userSpaceOnUse">
<stop stop-color="#02031C" stop-opacity="0"/>
<stop offset="1" stop-color="#CECEFB"/>
</linearGradient>
<linearGradient id="paint20_linear_54_2873" x1="875" y1="-466" x2="875" y2="334" gradientUnits="userSpaceOnUse">
<stop stop-color="#02031C" stop-opacity="0"/>
<stop offset="1" stop-color="#CECEFB"/>
</linearGradient>
<linearGradient id="paint21_linear_54_2873" x1="971" y1="-466" x2="971" y2="334" gradientUnits="userSpaceOnUse">
<stop stop-color="#02031C" stop-opacity="0"/>
<stop offset="1" stop-color="#CECEFB"/>
</linearGradient>
<linearGradient id="paint22_linear_54_2873" x1="971" y1="-466" x2="971" y2="334" gradientUnits="userSpaceOnUse">
<stop stop-color="#02031C" stop-opacity="0"/>
<stop offset="1" stop-color="#CECEFB"/>
</linearGradient>
<linearGradient id="paint23_linear_54_2873" x1="96.5" y1="240.62" x2="96.5" y2="392.62" gradientUnits="userSpaceOnUse">
<stop offset="0.195132" stop-color="#02031C" stop-opacity="0"/>
<stop offset="1" stop-color="#D5C7FF" stop-opacity="0.4"/>
</linearGradient>
<linearGradient id="paint24_linear_54_2873" x1="0.500002" y1="0" x2="0.500002" y2="260" gradientUnits="userSpaceOnUse">
<stop stop-color="#02031C"/>
<stop offset="0.3" stop-color="#02031C" stop-opacity="0"/>
<stop offset="0.697368" stop-color="#02031C" stop-opacity="0"/>
<stop offset="1" stop-color="#02031C"/>
</linearGradient>
<linearGradient id="paint25_linear_54_2873" x1="0.5" y1="0" x2="0.5" y2="300" gradientUnits="userSpaceOnUse">
<stop stop-color="#02031C"/>
<stop offset="0.3" stop-color="#02031C" stop-opacity="0"/>
<stop offset="0.697368" stop-color="#02031C" stop-opacity="0"/>
<stop offset="1" stop-color="#02031C"/>
</linearGradient>
<linearGradient id="paint26_linear_54_2873" x1="263.5" y1="176.99" x2="263.5" y2="256.99" gradientUnits="userSpaceOnUse">
<stop offset="0.195132" stop-color="#02031C" stop-opacity="0"/>
<stop offset="1" stop-color="#865BFF" stop-opacity="0.8"/>
</linearGradient>
<linearGradient id="paint27_linear_54_2873" x1="0.499992" y1="0" x2="0.499992" y2="320" gradientUnits="userSpaceOnUse">
<stop stop-color="#02031C"/>
<stop offset="0.3" stop-color="#02031C" stop-opacity="0"/>
<stop offset="0.697368" stop-color="#02031C" stop-opacity="0"/>
<stop offset="1" stop-color="#02031C"/>
</linearGradient>
<linearGradient id="paint28_linear_54_2873" x1="864.5" y1="176.99" x2="864.5" y2="256.99" gradientUnits="userSpaceOnUse">
<stop offset="0.195132" stop-color="#02031C" stop-opacity="0"/>
<stop offset="1" stop-color="#865BFF" stop-opacity="0.8"/>
</linearGradient>
<linearGradient id="paint29_linear_54_2873" x1="0.499992" y1="0" x2="0.499992" y2="320" gradientUnits="userSpaceOnUse">
<stop stop-color="#02031C"/>
<stop offset="0.3" stop-color="#02031C" stop-opacity="0"/>
<stop offset="0.697368" stop-color="#02031C" stop-opacity="0"/>
<stop offset="1" stop-color="#02031C"/>
</linearGradient>
<linearGradient id="paint30_linear_54_2873" x1="0.5" y1="0" x2="0.5" y2="300" gradientUnits="userSpaceOnUse">
<stop stop-color="#02031C"/>
<stop offset="0.3" stop-color="#02031C" stop-opacity="0"/>
<stop offset="0.697368" stop-color="#02031C" stop-opacity="0"/>
<stop offset="1" stop-color="#02031C"/>
</linearGradient>
<linearGradient id="paint31_linear_54_2873" x1="1031.5" y1="239.59" x2="1031.5" y2="391.59" gradientUnits="userSpaceOnUse">
<stop offset="0.195132" stop-color="#02031C" stop-opacity="0"/>
<stop offset="1" stop-color="#D5C7FF" stop-opacity="0.4"/>
</linearGradient>
<linearGradient id="paint32_linear_54_2873" x1="0.500002" y1="0" x2="0.500002" y2="260" gradientUnits="userSpaceOnUse">
<stop stop-color="#02031C"/>
<stop offset="0.3" stop-color="#02031C" stop-opacity="0"/>
<stop offset="0.697368" stop-color="#02031C" stop-opacity="0"/>
<stop offset="1" stop-color="#02031C"/>
</linearGradient>
<clipPath id="clip0_54_2873">
<rect width="1128" height="380" fill="white"/>
</clipPath>
<clipPath id="clip1_54_2873">
<rect width="1128" height="380" fill="white"/>
</clipPath>
<clipPath id="clip2_54_2873">
<rect width="1128" height="380" fill="white"/>
</clipPath>
<clipPath id="clip3_54_2873">
<rect width="1" height="260" fill="white" transform="translate(96)"/>
</clipPath>
<clipPath id="clip4_54_2873">
<rect width="1" height="320" fill="white" transform="translate(263)"/>
</clipPath>
<clipPath id="clip5_54_2873">
<rect width="1" height="320" fill="white" transform="translate(864)"/>
</clipPath>
<clipPath id="clip6_54_2873">
<rect width="1" height="260" fill="white" transform="translate(1031)"/>
</clipPath>
</defs>
</svg>
