<svg width="312" height="243" viewBox="0 0 312 243" fill="none" xmlns="http://www.w3.org/2000/svg">
<path d="M-2.72255 128.707L-4 133.526V247H316V29.5132L312.806 47.5849V32.3243L309.613 43.9705C308.868 41.2932 307.313 35.6174 307.058 34.3323C306.802 33.0472 304.822 48.7897 303.864 56.8215C302.267 47.451 299.074 28.3887 299.074 27.1036C299.074 25.8185 297.158 32.4582 296.2 35.9387V22.2845L293.964 25.4972L285.98 1L283.425 14.6542L280.87 10.2367L276.399 19.4733L272.886 18.2685L266.818 47.5849L264.902 41.561L229.453 94.1698L223.705 87.7443L206.459 100.595C205.288 102.469 202.882 106.218 202.627 106.218H193.685L191.449 109.43L186.02 107.824L181.23 111.84L164.942 86.1379L161.429 94.1698L153.764 87.7443L148.974 102.202L147.377 109.43L135.242 106.218L132.687 110.635L121.19 96.9809L118.635 111.84L110.651 102.202L105.86 113.848L102.667 106.218L101.07 115.053L95.9601 110.635L93.7245 113.848L92.1277 107.824L89.2535 113.848L80.9501 102.202L65.9401 122.281L55.7206 116.659L45.1816 126.297L41.3493 118.265L32.7265 124.289L31.7685 118.265L26.978 122.281L23.7844 118.265L19.3134 119.872L15.1617 116.659L12.9261 128.707L10.0519 130.715L6.53892 126.297L-0.806387 133.526L-2.72255 128.707Z" stroke="#916CFF"/>
<path d="M-2.72255 128.707L-4 133.526V247H316V29.5132L312.806 47.5849V32.3243L309.613 43.9705C308.868 41.2932 307.313 35.6174 307.058 34.3323C306.802 33.0472 304.822 48.7897 303.864 56.8215C302.267 47.451 299.074 28.3887 299.074 27.1036C299.074 25.8185 297.158 32.4582 296.2 35.9387V22.2845L293.964 25.4972L285.98 1L283.425 14.6542L280.87 10.2367L276.399 19.4733L272.886 18.2685L266.818 47.5849L264.902 41.561L229.453 94.1698L223.705 87.7443L206.459 100.595C205.288 102.469 202.882 106.218 202.627 106.218H193.685L191.449 109.43L186.02 107.824L181.23 111.84L164.942 86.1379L161.429 94.1698L153.764 87.7443L148.974 102.202L147.377 109.43L135.242 106.218L132.687 110.635L121.19 96.9809L118.635 111.84L110.651 102.202L105.86 113.848L102.667 106.218L101.07 115.053L95.9601 110.635L93.7245 113.848L92.1277 107.824L89.2535 113.848L80.9501 102.202L65.9401 122.281L55.7206 116.659L45.1816 126.297L41.3493 118.265L32.7265 124.289L31.7685 118.265L26.978 122.281L23.7844 118.265L19.3134 119.872L15.1617 116.659L12.9261 128.707L10.0519 130.715L6.53892 126.297L-0.806387 133.526L-2.72255 128.707Z" fill="url(#paint0_linear_2_2)" fill-opacity="0.69"/>
<defs>
<linearGradient id="paint0_linear_2_2" x1="152.751" y1="-13" x2="146.596" y2="327.962" gradientUnits="userSpaceOnUse">
<stop stop-color="#654AC2" stop-opacity="0.36"/>
<stop offset="1" stop-color="#7B56F8" stop-opacity="0"/>
</linearGradient>
</defs>
</svg>
