<svg xmlns="http://www.w3.org/2000/svg" width="149" height="110" viewBox="0 0 149 110" fill="none">
  <path d="M-1.86135 62.7281L-2.47803 65.0575V193.247H152V14.7821L150.458 23.5172V16.1409L148.917 21.7701C148.557 20.4761 147.807 17.7326 147.683 17.1114C147.56 16.4903 146.604 24.0995 146.142 27.9818C145.371 23.4525 143.829 14.2385 143.829 13.6174C143.829 12.9962 142.904 16.2056 142.442 17.8879V11.288L141.362 12.8409L137.508 1L136.275 7.59986L135.041 5.46461L132.883 9.92922L131.187 9.34688L128.258 23.5172L127.333 20.6055L110.22 46.0343L107.445 42.9285L99.1199 49.1402C98.5546 50.046 97.3932 51.8577 97.2698 51.8577H92.9531L91.8739 53.4107L89.253 52.6342L86.9404 54.5753L79.0778 42.1521L77.3819 46.0343L73.6818 42.9285L71.3693 49.9166L70.5984 53.4107L64.74 51.8577L63.5066 53.993L57.9565 47.3931L56.7232 54.5753L52.8689 49.9166L50.5564 55.5459L49.0147 51.8577L48.2438 56.1282L45.7771 53.993L44.6979 55.5459L43.9271 52.6342L42.5396 55.5459L38.5311 49.9166L31.2852 59.6223L26.3517 56.9047L21.2641 61.5634L19.4141 57.6811L15.2515 60.5929L14.789 57.6811L12.4764 59.6223L10.9347 57.6811L8.77637 58.4576L6.77216 56.9047L5.69297 62.7281L4.30544 63.6987L2.60958 61.5634L-0.936329 65.0575L-1.86135 62.7281Z" fill="url(#paint0_linear_173_14325)"/>
  <path d="M-1.86129 62.7281L-2.47797 65.0575L-2.47803 196.021H152L152 14.7821L150.458 23.5172V16.1409L148.917 21.7701C148.557 20.4761 147.807 17.7326 147.683 17.1114C147.56 16.4903 146.604 24.0995 146.142 27.9818C145.371 23.4525 143.829 14.2385 143.829 13.6174C143.829 12.9962 142.904 16.2056 142.442 17.8879V11.288L141.362 12.8409L137.508 1L136.275 7.59986L135.041 5.46461L132.883 9.92922L131.187 9.34688L128.258 23.5172L127.333 20.6055L110.22 46.0343L107.445 42.9285L99.1199 49.1402C98.5546 50.046 97.3932 51.8577 97.2699 51.8577H92.9531L91.8739 53.4107L89.253 52.6342L86.9405 54.5753L79.0778 42.1521L77.382 46.0343L73.6819 42.9285L71.3693 49.9166L70.5985 53.4107L64.74 51.8577L63.5067 53.993L57.9566 47.3931L56.7232 54.5753L52.869 49.9166L50.5564 55.5459L49.0147 51.8577L48.2439 56.1282L45.7772 53.993L44.698 55.5459L43.9271 52.6342L42.5396 55.5459L38.5312 49.9166L31.2852 59.6223L26.3518 56.9047L21.2642 61.5634L19.4141 57.6811L15.2516 60.5929L14.789 57.6811L12.4765 59.6223L10.9348 57.6811L8.77642 58.4576L6.77222 56.9047L5.69303 62.7281L4.3055 63.6987L2.60963 61.5634L-0.936272 65.0575L-1.86129 62.7281Z" stroke="#916CFF"/>
  <defs>
    <linearGradient id="paint0_linear_173_14325" x1="77.0015" y1="47" x2="74.5913" y2="116.489" gradientUnits="userSpaceOnUse">
      <stop stop-color="#654AC2" stop-opacity="0.36"/>
      <stop offset="1" stop-color="#7B56F8" stop-opacity="0"/>
    </linearGradient>
  </defs>
</svg>